<svg width="501" height="89" viewBox="0 0 501 89" fill="none" xmlns="http://www.w3.org/2000/svg">
<g filter="url(#filter0_dd_43_52)">
<rect width="500" height="85" rx="15" fill="white"/>
</g>
<path d="M39.6429 37H34.1429V31.4C34.1429 30.7635 33.8945 30.153 33.4525 29.7029C33.0104 29.2529 32.4109 29 31.7857 29H22.3571C21.732 29 21.1324 29.2529 20.6904 29.7029C20.2483 30.153 20 30.7635 20 31.4V52.2C20 52.4122 20.0828 52.6157 20.2301 52.7657C20.3775 52.9157 20.5773 53 20.7857 53H25.8929C25.997 53 26.097 52.9579 26.1706 52.8828C26.2443 52.8078 26.2857 52.7061 26.2857 52.6V49.0225C26.2857 48.592 26.6108 48.2225 27.0336 48.201C27.1399 48.1958 27.246 48.2126 27.3457 48.2504C27.4454 48.2882 27.5365 48.3462 27.6135 48.4209C27.6905 48.4956 27.7518 48.5855 27.7936 48.685C27.8355 48.7845 27.8571 48.8917 27.8571 49V52.6C27.8571 52.7061 27.8985 52.8078 27.9722 52.8828C28.0459 52.9579 28.1458 53 28.25 53H41.2143C41.4227 53 41.6225 52.9157 41.7699 52.7657C41.9172 52.6157 42 52.4122 42 52.2V39.4C42 38.7635 41.7517 38.153 41.3096 37.7029C40.8676 37.2529 40.268 37 39.6429 37ZM23.245 49.7935C23.0823 49.8152 22.917 49.7844 22.7723 49.7056C22.6276 49.6267 22.5108 49.5037 22.4383 49.3538C22.3658 49.2039 22.3411 49.0346 22.3679 48.8698C22.3947 48.7049 22.4715 48.5527 22.5875 48.4346C22.7036 48.3164 22.853 48.2382 23.015 48.211C23.1769 48.1837 23.3431 48.2088 23.4903 48.2826C23.6375 48.3564 23.7584 48.4754 23.8358 48.6227C23.9133 48.77 23.9435 48.9383 23.9222 49.104C23.8997 49.2789 23.8212 49.4412 23.6987 49.5659C23.5762 49.6906 23.4167 49.7706 23.245 49.7935ZM23.245 45.7935C23.0823 45.8152 22.917 45.7844 22.7723 45.7056C22.6276 45.6267 22.5108 45.5037 22.4383 45.3538C22.3658 45.2039 22.3411 45.0346 22.3679 44.8698C22.3947 44.7049 22.4715 44.5527 22.5875 44.4346C22.7036 44.3164 22.853 44.2382 23.015 44.211C23.1769 44.1837 23.3431 44.2088 23.4903 44.2826C23.6375 44.3564 23.7584 44.4754 23.8358 44.6227C23.9133 44.77 23.9435 44.9383 23.9222 45.104C23.8997 45.2789 23.8212 45.4412 23.6987 45.5659C23.5762 45.6906 23.4167 45.7706 23.245 45.7935ZM23.245 41.7935C23.0823 41.8152 22.917 41.7844 22.7723 41.7056C22.6276 41.6267 22.5108 41.5037 22.4383 41.3538C22.3658 41.2039 22.3411 41.0346 22.3679 40.8698C22.3947 40.7049 22.4715 40.5527 22.5875 40.4346C22.7036 40.3164 22.853 40.2382 23.015 40.211C23.1769 40.1837 23.3431 40.2088 23.4903 40.2826C23.6375 40.3564 23.7584 40.4754 23.8358 40.6227C23.9133 40.77 23.9435 40.9383 23.9222 41.104C23.8997 41.2789 23.8212 41.4412 23.6987 41.5659C23.5762 41.6906 23.4167 41.7706 23.245 41.7935ZM23.245 37.7935C23.0823 37.8152 22.917 37.7844 22.7723 37.7056C22.6276 37.6267 22.5108 37.5037 22.4383 37.3538C22.3658 37.2039 22.3411 37.0346 22.3679 36.8698C22.3947 36.7049 22.4715 36.5527 22.5875 36.4346C22.7036 36.3164 22.853 36.2382 23.015 36.211C23.1769 36.1837 23.3431 36.2088 23.4903 36.2826C23.6375 36.3564 23.7584 36.4754 23.8358 36.6227C23.9133 36.77 23.9435 36.9383 23.9222 37.104C23.8997 37.2789 23.8212 37.4412 23.6987 37.5659C23.5762 37.6906 23.4167 37.7706 23.245 37.7935ZM23.245 33.7935C23.0823 33.8152 22.917 33.7844 22.7723 33.7056C22.6276 33.6267 22.5108 33.5037 22.4383 33.3538C22.3658 33.2039 22.3411 33.0346 22.3679 32.8698C22.3947 32.7049 22.4715 32.5527 22.5875 32.4346C22.7036 32.3164 22.853 32.2382 23.015 32.211C23.1769 32.1837 23.3431 32.2088 23.4903 32.2826C23.6375 32.3564 23.7584 32.4754 23.8358 32.6227C23.9133 32.77 23.9435 32.9383 23.9222 33.104C23.8997 33.2789 23.8212 33.4412 23.6987 33.5659C23.5762 33.6906 23.4167 33.7706 23.245 33.7935ZM27.1736 45.7935C27.0108 45.8152 26.8455 45.7844 26.7009 45.7056C26.5562 45.6267 26.4394 45.5037 26.3668 45.3538C26.2943 45.2039 26.2697 45.0346 26.2965 44.8698C26.3233 44.7049 26.4001 44.5527 26.5161 44.4346C26.6321 44.3164 26.7816 44.2382 26.9435 44.211C27.1054 44.1837 27.2717 44.2088 27.4189 44.2826C27.5661 44.3564 27.6869 44.4754 27.7644 44.6227C27.8418 44.77 27.872 44.9383 27.8508 45.104C27.8283 45.2789 27.7497 45.4412 27.6273 45.5659C27.5048 45.6906 27.3453 45.7706 27.1736 45.7935ZM27.1736 41.7935C27.0108 41.8152 26.8455 41.7844 26.7009 41.7056C26.5562 41.6267 26.4394 41.5037 26.3668 41.3538C26.2943 41.2039 26.2697 41.0346 26.2965 40.8698C26.3233 40.7049 26.4001 40.5527 26.5161 40.4346C26.6321 40.3164 26.7816 40.2382 26.9435 40.211C27.1054 40.1837 27.2717 40.2088 27.4189 40.2826C27.5661 40.3564 27.6869 40.4754 27.7644 40.6227C27.8418 40.77 27.872 40.9383 27.8508 41.104C27.8283 41.2789 27.7497 41.4412 27.6273 41.5659C27.5048 41.6906 27.3453 41.7706 27.1736 41.7935ZM27.1736 37.7935C27.0108 37.8152 26.8455 37.7844 26.7009 37.7056C26.5562 37.6267 26.4394 37.5037 26.3668 37.3538C26.2943 37.2039 26.2697 37.0346 26.2965 36.8698C26.3233 36.7049 26.4001 36.5527 26.5161 36.4346C26.6321 36.3164 26.7816 36.2382 26.9435 36.211C27.1054 36.1837 27.2717 36.2088 27.4189 36.2826C27.5661 36.3564 27.6869 36.4754 27.7644 36.6227C27.8418 36.77 27.872 36.9383 27.8508 37.104C27.8283 37.2789 27.7497 37.4412 27.6273 37.5659C27.5048 37.6906 27.3453 37.7706 27.1736 37.7935ZM27.1736 33.7935C27.0108 33.8152 26.8455 33.7844 26.7009 33.7056C26.5562 33.6267 26.4394 33.5037 26.3668 33.3538C26.2943 33.2039 26.2697 33.0346 26.2965 32.8698C26.3233 32.7049 26.4001 32.5527 26.5161 32.4346C26.6321 32.3164 26.7816 32.2382 26.9435 32.211C27.1054 32.1837 27.2717 32.2088 27.4189 32.2826C27.5661 32.3564 27.6869 32.4754 27.7644 32.6227C27.8418 32.77 27.872 32.9383 27.8508 33.104C27.8283 33.2789 27.7497 33.4412 27.6273 33.5659C27.5048 33.6906 27.3453 33.7706 27.1736 33.7935ZM31.1021 49.7935C30.9394 49.8152 30.7741 49.7844 30.6294 49.7056C30.4847 49.6267 30.3679 49.5037 30.2954 49.3538C30.2229 49.2039 30.1983 49.0346 30.2251 48.8698C30.2518 48.7049 30.3286 48.5527 30.4447 48.4346C30.5607 48.3164 30.7102 48.2382 30.8721 48.211C31.034 48.1837 31.2002 48.2088 31.3475 48.2826C31.4947 48.3564 31.6155 48.4754 31.693 48.6227C31.7704 48.77 31.8006 48.9383 31.7793 49.104C31.7569 49.2789 31.6783 49.4412 31.5558 49.5659C31.4334 49.6906 31.2739 49.7706 31.1021 49.7935ZM31.1021 45.7935C30.9394 45.8152 30.7741 45.7844 30.6294 45.7056C30.4847 45.6267 30.3679 45.5037 30.2954 45.3538C30.2229 45.2039 30.1983 45.0346 30.2251 44.8698C30.2518 44.7049 30.3286 44.5527 30.4447 44.4346C30.5607 44.3164 30.7102 44.2382 30.8721 44.211C31.034 44.1837 31.2002 44.2088 31.3475 44.2826C31.4947 44.3564 31.6155 44.4754 31.693 44.6227C31.7704 44.77 31.8006 44.9383 31.7793 45.104C31.7569 45.2789 31.6783 45.4412 31.5558 45.5659C31.4334 45.6906 31.2739 45.7706 31.1021 45.7935ZM31.1021 41.7935C30.9394 41.8152 30.7741 41.7844 30.6294 41.7056C30.4847 41.6267 30.3679 41.5037 30.2954 41.3538C30.2229 41.2039 30.1983 41.0346 30.2251 40.8698C30.2518 40.7049 30.3286 40.5527 30.4447 40.4346C30.5607 40.3164 30.7102 40.2382 30.8721 40.211C31.034 40.1837 31.2002 40.2088 31.3475 40.2826C31.4947 40.3564 31.6155 40.4754 31.693 40.6227C31.7704 40.77 31.8006 40.9383 31.7793 41.104C31.7569 41.2789 31.6783 41.4412 31.5558 41.5659C31.4334 41.6906 31.2739 41.7706 31.1021 41.7935ZM31.1021 37.7935C30.9394 37.8152 30.7741 37.7844 30.6294 37.7056C30.4847 37.6267 30.3679 37.5037 30.2954 37.3538C30.2229 37.2039 30.1983 37.0346 30.2251 36.8698C30.2518 36.7049 30.3286 36.5527 30.4447 36.4346C30.5607 36.3164 30.7102 36.2382 30.8721 36.211C31.034 36.1837 31.2002 36.2088 31.3475 36.2826C31.4947 36.3564 31.6155 36.4754 31.693 36.6227C31.7704 36.77 31.8006 36.9383 31.7793 37.104C31.7569 37.2789 31.6783 37.4412 31.5558 37.5659C31.4334 37.6906 31.2739 37.7706 31.1021 37.7935ZM31.1021 33.7935C30.9394 33.8152 30.7741 33.7844 30.6294 33.7056C30.4847 33.6267 30.3679 33.5037 30.2954 33.3538C30.2229 33.2039 30.1983 33.0346 30.2251 32.8698C30.2518 32.7049 30.3286 32.5527 30.4447 32.4346C30.5607 32.3164 30.7102 32.2382 30.8721 32.211C31.034 32.1837 31.2002 32.2088 31.3475 32.2826C31.4947 32.3564 31.6155 32.4754 31.693 32.6227C31.7704 32.77 31.8006 32.9383 31.7793 33.104C31.7569 33.2789 31.6783 33.4412 31.5558 33.5659C31.4334 33.6906 31.2739 33.7706 31.1021 33.7935ZM40.2321 51.4H34.1429V38.6H39.6429C39.8512 38.6 40.0511 38.6843 40.1984 38.8343C40.3458 38.9843 40.4286 39.1878 40.4286 39.4V51.2C40.4286 51.253 40.4079 51.3039 40.371 51.3414C40.3342 51.3789 40.2842 51.4 40.2321 51.4Z" fill="#134967"/>
<g clip-path="url(#clip0_43_52)">
<path d="M70.4084 40.7464C70.3686 40.3454 70.1979 40.0339 69.8963 39.8118C69.5947 39.5897 69.1854 39.4787 68.6683 39.4787C68.317 39.4787 68.0204 39.5284 67.7784 39.6278C67.5365 39.724 67.3509 39.8582 67.2216 40.0305C67.0956 40.2029 67.0327 40.3984 67.0327 40.6172C67.026 40.7995 67.0642 40.9586 67.147 41.0945C67.2332 41.2304 67.3509 41.348 67.5 41.4474C67.6491 41.5436 67.8215 41.6281 68.017 41.701C68.2126 41.7706 68.4214 41.8303 68.6435 41.88L69.5582 42.0987C70.0024 42.1982 70.41 42.3307 70.7812 42.4964C71.1525 42.6622 71.474 42.866 71.7457 43.108C72.0175 43.3499 72.228 43.6349 72.3771 43.9631C72.5296 44.2912 72.6075 44.6674 72.6108 45.0916C72.6075 45.7147 72.4484 46.255 72.1335 46.7124C71.822 47.1664 71.3712 47.5194 70.7812 47.7713C70.1946 48.0199 69.487 48.1442 68.6584 48.1442C67.8364 48.1442 67.1205 48.0182 66.5107 47.7663C65.9041 47.5144 65.4302 47.1416 65.0888 46.6477C64.7507 46.1506 64.5734 45.5357 64.5568 44.8033H66.6399C66.6631 45.1446 66.7609 45.4297 66.9332 45.6584C67.1089 45.8838 67.3426 46.0545 67.6342 46.1705C67.9292 46.2831 68.2623 46.3395 68.6335 46.3395C68.9981 46.3395 69.3146 46.2865 69.5831 46.1804C69.8549 46.0743 70.0653 45.9268 70.2145 45.7379C70.3636 45.549 70.4382 45.3319 70.4382 45.0866C70.4382 44.858 70.3703 44.6657 70.2344 44.5099C70.1018 44.3542 69.9063 44.2216 69.6477 44.1122C69.3925 44.0028 69.0793 43.9034 68.7081 43.8139L67.5994 43.5355C66.741 43.3267 66.0632 43.0002 65.5661 42.5561C65.0689 42.112 64.822 41.5137 64.8253 40.7614C64.822 40.1449 64.986 39.6063 65.3175 39.1456C65.6522 38.6849 66.1113 38.3253 66.6946 38.0668C67.2779 37.8082 67.9408 37.679 68.6832 37.679C69.4389 37.679 70.0985 37.8082 70.6619 38.0668C71.2287 38.3253 71.6695 38.6849 71.9844 39.1456C72.2992 39.6063 72.4616 40.1399 72.4716 40.7464H70.4084ZM77.5693 48.1491C76.797 48.1491 76.1292 47.9851 75.5657 47.657C75.0056 47.3255 74.5731 46.8648 74.2681 46.2749C73.9632 45.6816 73.8108 44.9938 73.8108 44.2116C73.8108 43.4228 73.9632 42.7334 74.2681 42.1435C74.5731 41.5502 75.0056 41.0895 75.5657 40.7614C76.1292 40.4299 76.797 40.2642 77.5693 40.2642C78.3415 40.2642 79.0077 40.4299 79.5679 40.7614C80.1313 41.0895 80.5655 41.5502 80.8704 42.1435C81.1753 42.7334 81.3278 43.4228 81.3278 44.2116C81.3278 44.9938 81.1753 45.6816 80.8704 46.2749C80.5655 46.8648 80.1313 47.3255 79.5679 47.657C79.0077 47.9851 78.3415 48.1491 77.5693 48.1491ZM77.5792 46.5085C77.9306 46.5085 78.2239 46.4091 78.4592 46.2102C78.6945 46.008 78.8718 45.733 78.9912 45.3849C79.1138 45.0369 79.1751 44.6409 79.1751 44.1967C79.1751 43.7526 79.1138 43.3565 78.9912 43.0085C78.8718 42.6605 78.6945 42.3854 78.4592 42.1832C78.2239 41.9811 77.9306 41.88 77.5792 41.88C77.2246 41.88 76.9263 41.9811 76.6843 42.1832C76.4457 42.3854 76.2651 42.6605 76.1424 43.0085C76.0231 43.3565 75.9635 43.7526 75.9635 44.1967C75.9635 44.6409 76.0231 45.0369 76.1424 45.3849C76.2651 45.733 76.4457 46.008 76.6843 46.2102C76.9263 46.4091 77.2246 46.5085 77.5792 46.5085ZM84.9228 37.8182V48H82.8049V37.8182H84.9228ZM91.6164 44.7486V40.3636H93.7343V48H91.7009V46.6129H91.6214C91.449 47.0604 91.1623 47.42 90.7613 47.6918C90.3636 47.9635 89.878 48.0994 89.3046 48.0994C88.7942 48.0994 88.3451 47.9834 87.9573 47.7514C87.5695 47.5194 87.2663 47.1896 87.0475 46.7621C86.8321 46.3345 86.7227 45.8224 86.7194 45.2259V40.3636H88.8373V44.848C88.8406 45.2988 88.9616 45.6551 89.2002 45.9169C89.4388 46.1787 89.7587 46.3097 90.1597 46.3097C90.4149 46.3097 90.6536 46.2517 90.8756 46.1357C91.0977 46.0163 91.2767 45.8407 91.4126 45.6087C91.5518 45.3767 91.6197 45.09 91.6164 44.7486ZM98.9787 48.1491C98.1965 48.1491 97.5236 47.9834 96.9602 47.652C96.4001 47.3172 95.9692 46.8532 95.6676 46.2599C95.3693 45.6667 95.2201 44.9839 95.2201 44.2116C95.2201 43.4295 95.3709 42.7434 95.6725 42.1534C95.9775 41.5601 96.41 41.0978 96.9701 40.7663C97.5303 40.4316 98.1965 40.2642 98.9687 40.2642C99.6349 40.2642 100.218 40.3852 100.719 40.6271C101.219 40.8691 101.615 41.2088 101.907 41.6463C102.199 42.0838 102.359 42.5975 102.389 43.1875H100.391C100.334 42.8063 100.185 42.4998 99.9431 42.2678C99.7045 42.0324 99.3913 41.9148 99.0035 41.9148C98.6754 41.9148 98.3887 42.0043 98.1434 42.1832C97.9015 42.3589 97.7126 42.6158 97.5767 42.9538C97.4408 43.2919 97.3728 43.7012 97.3728 44.1818C97.3728 44.669 97.4391 45.0833 97.5717 45.4247C97.7076 45.7661 97.8982 46.0263 98.1434 46.2053C98.3887 46.3842 98.6754 46.4737 99.0035 46.4737C99.2455 46.4737 99.4626 46.424 99.6548 46.3246C99.8503 46.2251 100.011 46.081 100.137 45.892C100.266 45.6998 100.351 45.4695 100.391 45.201H102.389C102.356 45.7843 102.197 46.2981 101.912 46.7422C101.63 47.183 101.241 47.5277 100.744 47.7763C100.246 48.0249 99.6581 48.1491 98.9787 48.1491ZM98.4815 47.9602H99.4559L99.3764 48.3928C99.7178 48.4458 99.9962 48.5734 100.212 48.7756C100.43 48.9777 100.541 49.2528 100.545 49.6009C100.548 50.0947 100.319 50.4875 99.8586 50.7791C99.3979 51.0741 98.7516 51.2216 97.9197 51.2216L97.8998 50.277C98.3174 50.277 98.6439 50.2256 98.8792 50.1229C99.1179 50.0234 99.2422 49.8677 99.2521 49.6555C99.2587 49.4534 99.1808 49.2992 99.0184 49.1932C98.856 49.0871 98.6025 49.0125 98.2578 48.9695L98.4815 47.9602ZM107.295 48.1491C106.523 48.1491 105.855 47.9851 105.292 47.657C104.732 47.3255 104.299 46.8648 103.994 46.2749C103.689 45.6816 103.537 44.9938 103.537 44.2116C103.537 43.4228 103.689 42.7334 103.994 42.1435C104.299 41.5502 104.732 41.0895 105.292 40.7614C105.855 40.4299 106.523 40.2642 107.295 40.2642C108.068 40.2642 108.734 40.4299 109.294 40.7614C109.857 41.0895 110.292 41.5502 110.597 42.1435C110.902 42.7334 111.054 43.4228 111.054 44.2116C111.054 44.9938 110.902 45.6816 110.597 46.2749C110.292 46.8648 109.857 47.3255 109.294 47.657C108.734 47.9851 108.068 48.1491 107.295 48.1491ZM107.305 46.5085C107.657 46.5085 107.95 46.4091 108.185 46.2102C108.421 46.008 108.598 45.733 108.717 45.3849C108.84 45.0369 108.901 44.6409 108.901 44.1967C108.901 43.7526 108.84 43.3565 108.717 43.0085C108.598 42.6605 108.421 42.3854 108.185 42.1832C107.95 41.9811 107.657 41.88 107.305 41.88C106.951 41.88 106.652 41.9811 106.411 42.1832C106.172 42.3854 105.991 42.6605 105.869 43.0085C105.749 43.3565 105.69 43.7526 105.69 44.1967C105.69 44.6409 105.749 45.0369 105.869 45.3849C105.991 45.733 106.172 46.008 106.411 46.2102C106.652 46.4091 106.951 46.5085 107.305 46.5085ZM105.874 39.424L104.695 39.4091C104.695 38.776 104.851 38.2905 105.163 37.9524C105.478 37.6143 105.86 37.4437 106.311 37.4403C106.543 37.4403 106.742 37.4785 106.908 37.5547C107.077 37.6276 107.228 37.7138 107.36 37.8132C107.496 37.9126 107.625 38.0005 107.748 38.0767C107.871 38.1496 108.003 38.1861 108.146 38.1861C108.338 38.1828 108.484 38.1115 108.583 37.9723C108.686 37.8298 108.737 37.6442 108.737 37.4155L109.896 37.4503C109.889 38.0767 109.73 38.5606 109.418 38.902C109.107 39.2401 108.727 39.4107 108.28 39.4141C108.031 39.4141 107.822 39.3776 107.653 39.3047C107.488 39.2285 107.342 39.1423 107.216 39.0462C107.09 38.9467 106.967 38.8589 106.848 38.7827C106.729 38.7064 106.594 38.6683 106.445 38.6683C106.273 38.6683 106.134 38.7363 106.028 38.8722C105.925 39.008 105.874 39.192 105.874 39.424ZM116.011 48.1491C115.226 48.1491 114.55 47.9901 113.983 47.6719C113.419 47.3504 112.985 46.8963 112.68 46.3097C112.375 45.7197 112.223 45.022 112.223 44.2166C112.223 43.4311 112.375 42.7417 112.68 42.1484C112.985 41.5552 113.414 41.0928 113.968 40.7614C114.525 40.4299 115.178 40.2642 115.927 40.2642C116.43 40.2642 116.899 40.3454 117.334 40.5078C117.771 40.6669 118.152 40.9072 118.477 41.2287C118.805 41.5502 119.06 41.9545 119.243 42.4418C119.425 42.9257 119.516 43.4924 119.516 44.142V44.7237H113.068V43.4112H117.523C117.523 43.1063 117.456 42.8362 117.324 42.6009C117.191 42.3655 117.007 42.1816 116.772 42.049C116.54 41.9131 116.27 41.8452 115.962 41.8452C115.64 41.8452 115.355 41.9197 115.106 42.0689C114.861 42.2147 114.669 42.4119 114.53 42.6605C114.39 42.9058 114.319 43.1792 114.316 43.4808V44.7287C114.316 45.1065 114.386 45.433 114.525 45.7081C114.667 45.9832 114.868 46.1953 115.126 46.3445C115.385 46.4936 115.691 46.5682 116.046 46.5682C116.281 46.5682 116.497 46.535 116.692 46.4688C116.888 46.4025 117.055 46.303 117.194 46.1705C117.334 46.0379 117.44 45.8755 117.513 45.6832L119.471 45.8125C119.372 46.2831 119.168 46.6941 118.86 47.0455C118.555 47.3935 118.161 47.6652 117.677 47.8608C117.196 48.053 116.641 48.1491 116.011 48.1491ZM127.352 42.5412L125.413 42.6605C125.38 42.4948 125.309 42.3456 125.199 42.2131C125.09 42.0772 124.946 41.9695 124.767 41.8899C124.591 41.8071 124.381 41.7656 124.135 41.7656C123.807 41.7656 123.53 41.8352 123.305 41.9744C123.08 42.1103 122.967 42.2926 122.967 42.5213C122.967 42.7036 123.04 42.8577 123.186 42.9837C123.332 43.1096 123.582 43.2107 123.937 43.2869L125.319 43.5653C126.061 43.7178 126.615 43.9631 126.979 44.3011C127.344 44.6392 127.526 45.0833 127.526 45.6335C127.526 46.134 127.379 46.5732 127.084 46.951C126.792 47.3288 126.391 47.6238 125.88 47.8359C125.373 48.0447 124.788 48.1491 124.125 48.1491C123.115 48.1491 122.309 47.9387 121.709 47.5178C121.113 47.0935 120.763 46.5168 120.66 45.7876L122.743 45.6783C122.806 45.9865 122.959 46.2218 123.201 46.3842C123.443 46.5433 123.753 46.6229 124.13 46.6229C124.502 46.6229 124.8 46.5516 125.025 46.4091C125.254 46.2633 125.37 46.076 125.373 45.8473C125.37 45.6551 125.289 45.4976 125.13 45.375C124.971 45.2491 124.725 45.1529 124.394 45.0866L123.071 44.8232C122.326 44.674 121.771 44.4155 121.406 44.0476C121.045 43.6797 120.864 43.2107 120.864 42.6406C120.864 42.1501 120.997 41.7275 121.262 41.3729C121.53 41.0182 121.906 40.7448 122.39 40.5526C122.878 40.3603 123.448 40.2642 124.101 40.2642C125.065 40.2642 125.824 40.468 126.378 40.8757C126.934 41.2834 127.259 41.8385 127.352 42.5412ZM132.3 50.8636V40.3636H134.388V41.6463H134.482C134.575 41.4408 134.709 41.232 134.885 41.0199C135.064 40.8045 135.296 40.6255 135.581 40.483C135.869 40.3371 136.227 40.2642 136.655 40.2642C137.212 40.2642 137.726 40.41 138.196 40.7017C138.667 40.9901 139.043 41.4259 139.325 42.0092C139.606 42.5893 139.747 43.3168 139.747 44.1918C139.747 45.0436 139.61 45.7628 139.335 46.3494C139.063 46.9328 138.692 47.3752 138.221 47.6768C137.754 47.9751 137.23 48.1243 136.65 48.1243C136.239 48.1243 135.889 48.0563 135.601 47.9205C135.316 47.7846 135.082 47.6139 134.9 47.4084C134.718 47.1996 134.579 46.9891 134.482 46.777H134.418V50.8636H132.3ZM134.373 44.1818C134.373 44.6359 134.436 45.032 134.562 45.37C134.688 45.7081 134.87 45.9716 135.109 46.1605C135.347 46.3461 135.637 46.4389 135.979 46.4389C136.324 46.4389 136.615 46.3445 136.854 46.1555C137.092 45.9633 137.273 45.6982 137.396 45.3601C137.522 45.0187 137.585 44.6259 137.585 44.1818C137.585 43.741 137.523 43.3532 137.401 43.0185C137.278 42.6837 137.097 42.4219 136.859 42.233C136.62 42.044 136.327 41.9496 135.979 41.9496C135.634 41.9496 135.342 42.0407 135.104 42.223C134.869 42.4053 134.688 42.6638 134.562 42.9986C134.436 43.3333 134.373 43.7277 134.373 44.1818ZM144.739 48.1491C143.954 48.1491 143.278 47.9901 142.711 47.6719C142.147 47.3504 141.713 46.8963 141.408 46.3097C141.103 45.7197 140.951 45.022 140.951 44.2166C140.951 43.4311 141.103 42.7417 141.408 42.1484C141.713 41.5552 142.143 41.0928 142.696 40.7614C143.253 40.4299 143.906 40.2642 144.655 40.2642C145.159 40.2642 145.628 40.3454 146.062 40.5078C146.499 40.6669 146.88 40.9072 147.205 41.2287C147.533 41.5502 147.789 41.9545 147.971 42.4418C148.153 42.9257 148.244 43.4924 148.244 44.142V44.7237H141.796V43.4112H146.251C146.251 43.1063 146.184 42.8362 146.052 42.6009C145.919 42.3655 145.735 42.1816 145.5 42.049C145.268 41.9131 144.998 41.8452 144.69 41.8452C144.368 41.8452 144.083 41.9197 143.835 42.0689C143.589 42.2147 143.397 42.4119 143.258 42.6605C143.119 42.9058 143.047 43.1792 143.044 43.4808V44.7287C143.044 45.1065 143.114 45.433 143.253 45.7081C143.395 45.9832 143.596 46.1953 143.854 46.3445C144.113 46.4936 144.42 46.5682 144.774 46.5682C145.009 46.5682 145.225 46.535 145.42 46.4688C145.616 46.4025 145.783 46.303 145.923 46.1705C146.062 46.0379 146.168 45.8755 146.241 45.6832L148.2 45.8125C148.1 46.2831 147.896 46.6941 147.588 47.0455C147.283 47.3935 146.889 47.6652 146.405 47.8608C145.924 48.053 145.369 48.1491 144.739 48.1491ZM149.726 48V40.3636H151.78V41.696H151.859C151.998 41.2221 152.232 40.8641 152.56 40.6222C152.888 40.3769 153.266 40.2543 153.694 40.2543C153.8 40.2543 153.914 40.2609 154.037 40.2741C154.159 40.2874 154.267 40.3056 154.36 40.3288V42.2081C154.261 42.1783 154.123 42.1518 153.947 42.1286C153.772 42.1054 153.611 42.0938 153.465 42.0938C153.154 42.0938 152.875 42.1617 152.63 42.2976C152.388 42.4302 152.196 42.6158 152.053 42.8544C151.914 43.093 151.844 43.3681 151.844 43.6797V48H149.726ZM161.909 42.5412L159.97 42.6605C159.937 42.4948 159.865 42.3456 159.756 42.2131C159.647 42.0772 159.502 41.9695 159.323 41.8899C159.148 41.8071 158.937 41.7656 158.692 41.7656C158.364 41.7656 158.087 41.8352 157.862 41.9744C157.636 42.1103 157.524 42.2926 157.524 42.5213C157.524 42.7036 157.597 42.8577 157.742 42.9837C157.888 43.1096 158.139 43.2107 158.493 43.2869L159.875 43.5653C160.618 43.7178 161.171 43.9631 161.536 44.3011C161.9 44.6392 162.083 45.0833 162.083 45.6335C162.083 46.134 161.935 46.5732 161.64 46.951C161.348 47.3288 160.947 47.6238 160.437 47.8359C159.93 48.0447 159.345 48.1491 158.682 48.1491C157.671 48.1491 156.866 47.9387 156.266 47.5178C155.669 47.0935 155.32 46.5168 155.217 45.7876L157.3 45.6783C157.363 45.9865 157.515 46.2218 157.757 46.3842C157.999 46.5433 158.309 46.6229 158.687 46.6229C159.058 46.6229 159.357 46.5516 159.582 46.4091C159.811 46.2633 159.927 46.076 159.93 45.8473C159.927 45.6551 159.845 45.4976 159.686 45.375C159.527 45.2491 159.282 45.1529 158.951 45.0866L157.628 44.8232C156.882 44.674 156.327 44.4155 155.963 44.0476C155.601 43.6797 155.421 43.2107 155.421 42.6406C155.421 42.1501 155.553 41.7275 155.818 41.3729C156.087 41.0182 156.463 40.7448 156.947 40.5526C157.434 40.3603 158.004 40.2642 158.657 40.2642C159.622 40.2642 160.381 40.468 160.934 40.8757C161.491 41.2834 161.816 41.8385 161.909 42.5412ZM166.967 48.1491C166.194 48.1491 165.526 47.9851 164.963 47.657C164.403 47.3255 163.97 46.8648 163.665 46.2749C163.36 45.6816 163.208 44.9938 163.208 44.2116C163.208 43.4228 163.36 42.7334 163.665 42.1435C163.97 41.5502 164.403 41.0895 164.963 40.7614C165.526 40.4299 166.194 40.2642 166.967 40.2642C167.739 40.2642 168.405 40.4299 168.965 40.7614C169.529 41.0895 169.963 41.5502 170.268 42.1435C170.573 42.7334 170.725 43.4228 170.725 44.2116C170.725 44.9938 170.573 45.6816 170.268 46.2749C169.963 46.8648 169.529 47.3255 168.965 47.657C168.405 47.9851 167.739 48.1491 166.967 48.1491ZM166.976 46.5085C167.328 46.5085 167.621 46.4091 167.856 46.2102C168.092 46.008 168.269 45.733 168.388 45.3849C168.511 45.0369 168.572 44.6409 168.572 44.1967C168.572 43.7526 168.511 43.3565 168.388 43.0085C168.269 42.6605 168.092 42.3854 167.856 42.1832C167.621 41.9811 167.328 41.88 166.976 41.88C166.622 41.88 166.324 41.9811 166.082 42.1832C165.843 42.3854 165.662 42.6605 165.54 43.0085C165.42 43.3565 165.361 43.7526 165.361 44.1967C165.361 44.6409 165.42 45.0369 165.54 45.3849C165.662 45.733 165.843 46.008 166.082 46.2102C166.324 46.4091 166.622 46.5085 166.976 46.5085ZM174.32 43.5852V48H172.202V40.3636H174.221V41.7109H174.31C174.479 41.2668 174.763 40.9155 175.16 40.657C175.558 40.3951 176.04 40.2642 176.607 40.2642C177.137 40.2642 177.6 40.3802 177.994 40.6122C178.389 40.8442 178.695 41.1757 178.914 41.6065C179.133 42.0341 179.242 42.5445 179.242 43.1378V48H177.124V43.5156C177.127 43.0483 177.008 42.6837 176.766 42.4219C176.524 42.1567 176.191 42.0241 175.767 42.0241C175.482 42.0241 175.23 42.0855 175.011 42.2081C174.796 42.3307 174.627 42.5097 174.504 42.745C174.385 42.977 174.323 43.2571 174.32 43.5852ZM183.189 48.1442C182.702 48.1442 182.267 48.0597 181.886 47.8906C181.505 47.7183 181.203 47.4647 180.981 47.13C180.763 46.7919 180.653 46.371 180.653 45.8672C180.653 45.4429 180.731 45.0866 180.887 44.7983C181.043 44.5099 181.255 44.2779 181.523 44.1023C181.792 43.9266 182.097 43.794 182.438 43.7045C182.783 43.6151 183.144 43.5521 183.522 43.5156C183.966 43.4692 184.324 43.4261 184.596 43.3864C184.867 43.3433 185.065 43.2803 185.187 43.1974C185.31 43.1146 185.371 42.992 185.371 42.8295V42.7997C185.371 42.4848 185.272 42.2412 185.073 42.0689C184.877 41.8965 184.599 41.8104 184.238 41.8104C183.857 41.8104 183.553 41.8949 183.328 42.0639C183.103 42.2296 182.953 42.4384 182.881 42.6903L180.922 42.5312C181.021 42.0672 181.217 41.6662 181.508 41.3281C181.8 40.9867 182.176 40.7249 182.637 40.5426C183.101 40.357 183.638 40.2642 184.248 40.2642C184.672 40.2642 185.078 40.3139 185.466 40.4134C185.857 40.5128 186.203 40.6669 186.505 40.8757C186.81 41.0845 187.05 41.353 187.226 41.6811C187.401 42.0059 187.489 42.3954 187.489 42.8494V48H185.481V46.9411H185.421C185.298 47.1797 185.134 47.3902 184.929 47.5724C184.723 47.7514 184.476 47.8923 184.188 47.995C183.9 48.0945 183.567 48.1442 183.189 48.1442ZM183.795 46.6825C184.107 46.6825 184.382 46.6212 184.621 46.4986C184.859 46.3726 185.046 46.2036 185.182 45.9915C185.318 45.7794 185.386 45.5391 185.386 45.2706V44.4602C185.32 44.5033 185.229 44.5431 185.113 44.5795C185 44.6127 184.872 44.6442 184.73 44.674C184.587 44.7005 184.445 44.7254 184.302 44.7486C184.16 44.7685 184.031 44.7867 183.915 44.8033C183.666 44.8397 183.449 44.8977 183.263 44.9773C183.078 45.0568 182.934 45.1645 182.831 45.3004C182.728 45.433 182.677 45.5987 182.677 45.7976C182.677 46.0859 182.781 46.3063 182.99 46.4588C183.202 46.608 183.47 46.6825 183.795 46.6825ZM191.35 37.8182V48H189.232V37.8182H191.35ZM193.147 48V40.3636H195.265V48H193.147ZM194.211 39.3793C193.896 39.3793 193.626 39.2749 193.4 39.0661C193.178 38.8539 193.067 38.6004 193.067 38.3054C193.067 38.0137 193.178 37.7635 193.4 37.5547C193.626 37.3426 193.896 37.2365 194.211 37.2365C194.526 37.2365 194.794 37.3426 195.016 37.5547C195.241 37.7635 195.354 38.0137 195.354 38.3054C195.354 38.6004 195.241 38.8539 195.016 39.0661C194.794 39.2749 194.526 39.3793 194.211 39.3793ZM197.021 48V46.7372L200.76 42.1087V42.054H197.151V40.3636H203.31V41.7408L199.801 46.255V46.3097H203.44V48H197.021ZM207.337 48.1442C206.85 48.1442 206.415 48.0597 206.034 47.8906C205.653 47.7183 205.351 47.4647 205.129 47.13C204.911 46.7919 204.801 46.371 204.801 45.8672C204.801 45.4429 204.879 45.0866 205.035 44.7983C205.191 44.5099 205.403 44.2779 205.671 44.1023C205.94 43.9266 206.245 43.794 206.586 43.7045C206.931 43.6151 207.292 43.5521 207.67 43.5156C208.114 43.4692 208.472 43.4261 208.744 43.3864C209.016 43.3433 209.213 43.2803 209.335 43.1974C209.458 43.1146 209.519 42.992 209.519 42.8295V42.7997C209.519 42.4848 209.42 42.2412 209.221 42.0689C209.025 41.8965 208.747 41.8104 208.386 41.8104C208.005 41.8104 207.701 41.8949 207.476 42.0639C207.251 42.2296 207.101 42.4384 207.029 42.6903L205.07 42.5312C205.169 42.0672 205.365 41.6662 205.656 41.3281C205.948 40.9867 206.324 40.7249 206.785 40.5426C207.249 40.357 207.786 40.2642 208.396 40.2642C208.82 40.2642 209.226 40.3139 209.614 40.4134C210.005 40.5128 210.351 40.6669 210.653 40.8757C210.958 41.0845 211.198 41.353 211.374 41.6811C211.549 42.0059 211.637 42.3954 211.637 42.8494V48H209.629V46.9411H209.569C209.446 47.1797 209.282 47.3902 209.077 47.5724C208.871 47.7514 208.624 47.8923 208.336 47.995C208.048 48.0945 207.715 48.1442 207.337 48.1442ZM207.943 46.6825C208.255 46.6825 208.53 46.6212 208.769 46.4986C209.007 46.3726 209.195 46.2036 209.33 45.9915C209.466 45.7794 209.534 45.5391 209.534 45.2706V44.4602C209.468 44.5033 209.377 44.5431 209.261 44.5795C209.148 44.6127 209.02 44.6442 208.878 44.674C208.735 44.7005 208.593 44.7254 208.45 44.7486C208.308 44.7685 208.179 44.7867 208.063 44.8033C207.814 44.8397 207.597 44.8977 207.411 44.9773C207.226 45.0568 207.082 45.1645 206.979 45.3004C206.876 45.433 206.825 45.5987 206.825 45.7976C206.825 46.0859 206.929 46.3063 207.138 46.4588C207.35 46.608 207.619 46.6825 207.943 46.6825ZM216.194 48.1243C215.614 48.1243 215.089 47.9751 214.618 47.6768C214.151 47.3752 213.78 46.9328 213.505 46.3494C213.233 45.7628 213.097 45.0436 213.097 44.1918C213.097 43.3168 213.238 42.5893 213.52 42.0092C213.801 41.4259 214.176 40.9901 214.643 40.7017C215.114 40.41 215.629 40.2642 216.189 40.2642C216.617 40.2642 216.973 40.3371 217.258 40.483C217.547 40.6255 217.779 40.8045 217.954 41.0199C218.133 41.232 218.269 41.4408 218.362 41.6463H218.426V37.8182H220.539V48H218.451V46.777H218.362C218.262 46.9891 218.122 47.1996 217.939 47.4084C217.76 47.6139 217.527 47.7846 217.238 47.9205C216.953 48.0563 216.605 48.1243 216.194 48.1243ZM216.865 46.4389C217.207 46.4389 217.495 46.3461 217.73 46.1605C217.969 45.9716 218.151 45.7081 218.277 45.37C218.407 45.032 218.471 44.6359 218.471 44.1818C218.471 43.7277 218.408 43.3333 218.282 42.9986C218.156 42.6638 217.974 42.4053 217.735 42.223C217.497 42.0407 217.207 41.9496 216.865 41.9496C216.517 41.9496 216.224 42.044 215.985 42.233C215.747 42.4219 215.566 42.6837 215.444 43.0185C215.321 43.3532 215.26 43.741 215.26 44.1818C215.26 44.6259 215.321 45.0187 215.444 45.3601C215.569 45.6982 215.75 45.9633 215.985 46.1555C216.224 46.3445 216.517 46.4389 216.865 46.4389ZM224.558 48.1442C224.071 48.1442 223.637 48.0597 223.256 47.8906C222.875 47.7183 222.573 47.4647 222.351 47.13C222.132 46.7919 222.023 46.371 222.023 45.8672C222.023 45.4429 222.101 45.0866 222.256 44.7983C222.412 44.5099 222.624 44.2779 222.893 44.1023C223.161 43.9266 223.466 43.794 223.808 43.7045C224.152 43.6151 224.514 43.5521 224.891 43.5156C225.336 43.4692 225.693 43.4261 225.965 43.3864C226.237 43.3433 226.434 43.2803 226.557 43.1974C226.679 43.1146 226.741 42.992 226.741 42.8295V42.7997C226.741 42.4848 226.641 42.2412 226.443 42.0689C226.247 41.8965 225.969 41.8104 225.607 41.8104C225.226 41.8104 224.923 41.8949 224.697 42.0639C224.472 42.2296 224.323 42.4384 224.25 42.6903L222.291 42.5312C222.391 42.0672 222.586 41.6662 222.878 41.3281C223.17 40.9867 223.546 40.7249 224.006 40.5426C224.47 40.357 225.007 40.2642 225.617 40.2642C226.041 40.2642 226.447 40.3139 226.835 40.4134C227.226 40.5128 227.573 40.6669 227.874 40.8757C228.179 41.0845 228.42 41.353 228.595 41.6811C228.771 42.0059 228.859 42.3954 228.859 42.8494V48H226.85V46.9411H226.791C226.668 47.1797 226.504 47.3902 226.298 47.5724C226.093 47.7514 225.846 47.8923 225.558 47.995C225.269 48.0945 224.936 48.1442 224.558 48.1442ZM225.165 46.6825C225.476 46.6825 225.751 46.6212 225.99 46.4986C226.229 46.3726 226.416 46.2036 226.552 45.9915C226.688 45.7794 226.756 45.5391 226.756 45.2706V44.4602C226.689 44.5033 226.598 44.5431 226.482 44.5795C226.37 44.6127 226.242 44.6442 226.099 44.674C225.957 44.7005 225.814 44.7254 225.672 44.7486C225.529 44.7685 225.4 44.7867 225.284 44.8033C225.036 44.8397 224.818 44.8977 224.633 44.9773C224.447 45.0568 224.303 45.1645 224.2 45.3004C224.098 45.433 224.046 45.5987 224.046 45.7976C224.046 46.0859 224.151 46.3063 224.359 46.4588C224.572 46.608 224.84 46.6825 225.165 46.6825ZM236.956 42.5412L235.017 42.6605C234.983 42.4948 234.912 42.3456 234.803 42.2131C234.693 42.0772 234.549 41.9695 234.37 41.8899C234.195 41.8071 233.984 41.7656 233.739 41.7656C233.411 41.7656 233.134 41.8352 232.909 41.9744C232.683 42.1103 232.571 42.2926 232.571 42.5213C232.571 42.7036 232.643 42.8577 232.789 42.9837C232.935 43.1096 233.185 43.2107 233.54 43.2869L234.922 43.5653C235.665 43.7178 236.218 43.9631 236.583 44.3011C236.947 44.6392 237.13 45.0833 237.13 45.6335C237.13 46.134 236.982 46.5732 236.687 46.951C236.395 47.3288 235.994 47.6238 235.484 47.8359C234.977 48.0447 234.392 48.1491 233.729 48.1491C232.718 48.1491 231.913 47.9387 231.313 47.5178C230.716 47.0935 230.366 46.5168 230.264 45.7876L232.347 45.6783C232.41 45.9865 232.562 46.2218 232.804 46.3842C233.046 46.5433 233.356 46.6229 233.734 46.6229C234.105 46.6229 234.403 46.5516 234.629 46.4091C234.857 46.2633 234.973 46.076 234.977 45.8473C234.973 45.6551 234.892 45.4976 234.733 45.375C234.574 45.2491 234.329 45.1529 233.997 45.0866L232.675 44.8232C231.929 44.674 231.374 44.4155 231.009 44.0476C230.648 43.6797 230.468 43.2107 230.468 42.6406C230.468 42.1501 230.6 41.7275 230.865 41.3729C231.134 41.0182 231.51 40.7448 231.994 40.5526C232.481 40.3603 233.051 40.2642 233.704 40.2642C234.669 40.2642 235.428 40.468 235.981 40.8757C236.538 41.2834 236.863 41.8385 236.956 42.5412ZM246.95 50.8636V46.777H246.885C246.785 46.9891 246.645 47.1996 246.462 47.4084C246.283 47.6139 246.05 47.7846 245.761 47.9205C245.476 48.0563 245.128 48.1243 244.717 48.1243C244.137 48.1243 243.612 47.9751 243.141 47.6768C242.674 47.3752 242.303 46.9328 242.028 46.3494C241.756 45.7628 241.62 45.0436 241.62 44.1918C241.62 43.3168 241.761 42.5893 242.043 42.0092C242.324 41.4259 242.699 40.9901 243.166 40.7017C243.637 40.41 244.152 40.2642 244.712 40.2642C245.14 40.2642 245.496 40.3371 245.781 40.483C246.07 40.6255 246.302 40.8045 246.477 41.0199C246.656 41.232 246.792 41.4408 246.885 41.6463H246.974V40.3636H249.062V50.8636H246.95ZM245.388 46.4389C245.73 46.4389 246.018 46.3461 246.254 46.1605C246.492 45.9716 246.674 45.7081 246.8 45.37C246.93 45.032 246.994 44.6359 246.994 44.1818C246.994 43.7277 246.931 43.3333 246.805 42.9986C246.679 42.6638 246.497 42.4053 246.258 42.223C246.02 42.0407 245.73 41.9496 245.388 41.9496C245.04 41.9496 244.747 42.044 244.508 42.233C244.27 42.4219 244.089 42.6837 243.967 43.0185C243.844 43.3532 243.783 43.741 243.783 44.1818C243.783 44.6259 243.844 45.0187 243.967 45.3601C244.093 45.6982 244.273 45.9633 244.508 46.1555C244.747 46.3445 245.04 46.4389 245.388 46.4389ZM255.76 44.7486V40.3636H257.878V48H255.844V46.6129H255.765C255.592 47.0604 255.306 47.42 254.905 47.6918C254.507 47.9635 254.021 48.0994 253.448 48.0994C252.938 48.0994 252.488 47.9834 252.101 47.7514C251.713 47.5194 251.41 47.1896 251.191 46.7621C250.975 46.3345 250.866 45.8224 250.863 45.2259V40.3636H252.981V44.848C252.984 45.2988 253.105 45.6551 253.344 45.9169C253.582 46.1787 253.902 46.3097 254.303 46.3097C254.558 46.3097 254.797 46.2517 255.019 46.1357C255.241 46.0163 255.42 45.8407 255.556 45.6087C255.695 45.3767 255.763 45.09 255.76 44.7486ZM263.152 48.1491C262.366 48.1491 261.69 47.9901 261.123 47.6719C260.56 47.3504 260.126 46.8963 259.821 46.3097C259.516 45.7197 259.364 45.022 259.364 44.2166C259.364 43.4311 259.516 42.7417 259.821 42.1484C260.126 41.5552 260.555 41.0928 261.109 40.7614C261.665 40.4299 262.318 40.2642 263.067 40.2642C263.571 40.2642 264.04 40.3454 264.474 40.5078C264.912 40.6669 265.293 40.9072 265.618 41.2287C265.946 41.5502 266.201 41.9545 266.383 42.4418C266.566 42.9257 266.657 43.4924 266.657 44.142V44.7237H260.209V43.4112H264.663C264.663 43.1063 264.597 42.8362 264.464 42.6009C264.332 42.3655 264.148 42.1816 263.913 42.049C263.68 41.9131 263.41 41.8452 263.102 41.8452C262.781 41.8452 262.496 41.9197 262.247 42.0689C262.002 42.2147 261.81 42.4119 261.67 42.6605C261.531 42.9058 261.46 43.1792 261.457 43.4808V44.7287C261.457 45.1065 261.526 45.433 261.665 45.7081C261.808 45.9832 262.008 46.1953 262.267 46.3445C262.525 46.4936 262.832 46.5682 263.187 46.5682C263.422 46.5682 263.637 46.535 263.833 46.4688C264.029 46.4025 264.196 46.303 264.335 46.1705C264.474 46.0379 264.58 45.8755 264.653 45.6832L266.612 45.8125C266.513 46.2831 266.309 46.6941 266.001 47.0455C265.696 47.3935 265.301 47.6652 264.817 47.8608C264.337 48.053 263.782 48.1491 263.152 48.1491ZM277.833 42.5412L275.894 42.6605C275.861 42.4948 275.79 42.3456 275.68 42.2131C275.571 42.0772 275.427 41.9695 275.248 41.8899C275.072 41.8071 274.861 41.7656 274.616 41.7656C274.288 41.7656 274.011 41.8352 273.786 41.9744C273.561 42.1103 273.448 42.2926 273.448 42.5213C273.448 42.7036 273.521 42.8577 273.667 42.9837C273.812 43.1096 274.063 43.2107 274.417 43.2869L275.799 43.5653C276.542 43.7178 277.095 43.9631 277.46 44.3011C277.825 44.6392 278.007 45.0833 278.007 45.6335C278.007 46.134 277.859 46.5732 277.564 46.951C277.273 47.3288 276.872 47.6238 276.361 47.8359C275.854 48.0447 275.269 48.1491 274.606 48.1491C273.595 48.1491 272.79 47.9387 272.19 47.5178C271.594 47.0935 271.244 46.5168 271.141 45.7876L273.224 45.6783C273.287 45.9865 273.44 46.2218 273.682 46.3842C273.924 46.5433 274.233 46.6229 274.611 46.6229C274.982 46.6229 275.281 46.5516 275.506 46.4091C275.735 46.2633 275.851 46.076 275.854 45.8473C275.851 45.6551 275.77 45.4976 275.611 45.375C275.451 45.2491 275.206 45.1529 274.875 45.0866L273.552 44.8232C272.807 44.674 272.251 44.4155 271.887 44.0476C271.526 43.6797 271.345 43.2107 271.345 42.6406C271.345 42.1501 271.478 41.7275 271.743 41.3729C272.011 41.0182 272.387 40.7448 272.871 40.5526C273.358 40.3603 273.928 40.2642 274.581 40.2642C275.546 40.2642 276.305 40.468 276.858 40.8757C277.415 41.2834 277.74 41.8385 277.833 42.5412ZM282.921 48.1491C282.135 48.1491 281.459 47.9901 280.892 47.6719C280.329 47.3504 279.895 46.8963 279.59 46.3097C279.285 45.7197 279.132 45.022 279.132 44.2166C279.132 43.4311 279.285 42.7417 279.59 42.1484C279.895 41.5552 280.324 41.0928 280.877 40.7614C281.434 40.4299 282.087 40.2642 282.836 40.2642C283.34 40.2642 283.809 40.3454 284.243 40.5078C284.681 40.6669 285.062 40.9072 285.386 41.2287C285.715 41.5502 285.97 41.9545 286.152 42.4418C286.334 42.9257 286.426 43.4924 286.426 44.142V44.7237H279.977V43.4112H284.432C284.432 43.1063 284.366 42.8362 284.233 42.6009C284.101 42.3655 283.917 42.1816 283.681 42.049C283.449 41.9131 283.179 41.8452 282.871 41.8452C282.549 41.8452 282.264 41.9197 282.016 42.0689C281.77 42.2147 281.578 42.4119 281.439 42.6605C281.3 42.9058 281.229 43.1792 281.225 43.4808V44.7287C281.225 45.1065 281.295 45.433 281.434 45.7081C281.577 45.9832 281.777 46.1953 282.036 46.3445C282.294 46.4936 282.601 46.5682 282.955 46.5682C283.191 46.5682 283.406 46.535 283.602 46.4688C283.797 46.4025 283.965 46.303 284.104 46.1705C284.243 46.0379 284.349 45.8755 284.422 45.6832L286.381 45.8125C286.281 46.2831 286.078 46.6941 285.769 47.0455C285.464 47.3935 285.07 47.6652 284.586 47.8608C284.105 48.053 283.55 48.1491 282.921 48.1491ZM293.425 48.1442C292.938 48.1442 292.504 48.0597 292.123 47.8906C291.742 47.7183 291.44 47.4647 291.218 47.13C290.999 46.7919 290.89 46.371 290.89 45.8672C290.89 45.4429 290.968 45.0866 291.124 44.7983C291.279 44.5099 291.492 44.2779 291.76 44.1023C292.028 43.9266 292.333 43.794 292.675 43.7045C293.019 43.6151 293.381 43.5521 293.759 43.5156C294.203 43.4692 294.561 43.4261 294.832 43.3864C295.104 43.3433 295.301 43.2803 295.424 43.1974C295.547 43.1146 295.608 42.992 295.608 42.8295V42.7997C295.608 42.4848 295.509 42.2412 295.31 42.0689C295.114 41.8965 294.836 41.8104 294.474 41.8104C294.093 41.8104 293.79 41.8949 293.565 42.0639C293.339 42.2296 293.19 42.4384 293.117 42.6903L291.158 42.5312C291.258 42.0672 291.453 41.6662 291.745 41.3281C292.037 40.9867 292.413 40.7249 292.874 40.5426C293.338 40.357 293.875 40.2642 294.484 40.2642C294.909 40.2642 295.315 40.3139 295.702 40.4134C296.094 40.5128 296.44 40.6669 296.742 40.8757C297.046 41.0845 297.287 41.353 297.462 41.6811C297.638 42.0059 297.726 42.3954 297.726 42.8494V48H295.717V46.9411H295.658C295.535 47.1797 295.371 47.3902 295.166 47.5724C294.96 47.7514 294.713 47.8923 294.425 47.995C294.136 48.0945 293.803 48.1442 293.425 48.1442ZM294.032 46.6825C294.344 46.6825 294.619 46.6212 294.857 46.4986C295.096 46.3726 295.283 46.2036 295.419 45.9915C295.555 45.7794 295.623 45.5391 295.623 45.2706V44.4602C295.557 44.5033 295.465 44.5431 295.349 44.5795C295.237 44.6127 295.109 44.6442 294.967 44.674C294.824 44.7005 294.682 44.7254 294.539 44.7486C294.397 44.7685 294.267 44.7867 294.151 44.8033C293.903 44.8397 293.686 44.8977 293.5 44.9773C293.314 45.0568 293.17 45.1645 293.068 45.3004C292.965 45.433 292.913 45.5987 292.913 45.7976C292.913 46.0859 293.018 46.3063 293.227 46.4588C293.439 46.608 293.707 46.6825 294.032 46.6825ZM302.283 48.1243C301.703 48.1243 301.178 47.9751 300.707 47.6768C300.24 47.3752 299.868 46.9328 299.593 46.3494C299.322 45.7628 299.186 45.0436 299.186 44.1918C299.186 43.3168 299.326 42.5893 299.608 42.0092C299.89 41.4259 300.264 40.9901 300.732 40.7017C301.202 40.41 301.718 40.2642 302.278 40.2642C302.706 40.2642 303.062 40.3371 303.347 40.483C303.635 40.6255 303.867 40.8045 304.043 41.0199C304.222 41.232 304.358 41.4408 304.451 41.6463H304.515V37.8182H306.628V48H304.54V46.777H304.451C304.351 46.9891 304.21 47.1996 304.028 47.4084C303.849 47.6139 303.615 47.7846 303.327 47.9205C303.042 48.0563 302.694 48.1243 302.283 48.1243ZM302.954 46.4389C303.295 46.4389 303.584 46.3461 303.819 46.1605C304.058 45.9716 304.24 45.7081 304.366 45.37C304.495 45.032 304.56 44.6359 304.56 44.1818C304.56 43.7277 304.497 43.3333 304.371 42.9986C304.245 42.6638 304.063 42.4053 303.824 42.223C303.585 42.0407 303.295 41.9496 302.954 41.9496C302.606 41.9496 302.313 42.044 302.074 42.233C301.835 42.4219 301.655 42.6837 301.532 43.0185C301.41 43.3532 301.348 43.741 301.348 44.1818C301.348 44.6259 301.41 45.0187 301.532 45.3601C301.658 45.6982 301.839 45.9633 302.074 46.1555C302.313 46.3445 302.606 46.4389 302.954 46.4389ZM310.647 48.1442C310.16 48.1442 309.726 48.0597 309.344 47.8906C308.963 47.7183 308.662 47.4647 308.44 47.13C308.221 46.7919 308.111 46.371 308.111 45.8672C308.111 45.4429 308.189 45.0866 308.345 44.7983C308.501 44.5099 308.713 44.2779 308.981 44.1023C309.25 43.9266 309.555 43.794 309.896 43.7045C310.241 43.6151 310.602 43.5521 310.98 43.5156C311.424 43.4692 311.782 43.4261 312.054 43.3864C312.326 43.3433 312.523 43.2803 312.646 43.1974C312.768 43.1146 312.829 42.992 312.829 42.8295V42.7997C312.829 42.4848 312.73 42.2412 312.531 42.0689C312.336 41.8965 312.057 41.8104 311.696 41.8104C311.315 41.8104 311.012 41.8949 310.786 42.0639C310.561 42.2296 310.412 42.4384 310.339 42.6903L308.38 42.5312C308.479 42.0672 308.675 41.6662 308.967 41.3281C309.258 40.9867 309.634 40.7249 310.095 40.5426C310.559 40.357 311.096 40.2642 311.706 40.2642C312.13 40.2642 312.536 40.3139 312.924 40.4134C313.315 40.5128 313.661 40.6669 313.963 40.8757C314.268 41.0845 314.508 41.353 314.684 41.6811C314.86 42.0059 314.947 42.3954 314.947 42.8494V48H312.939V46.9411H312.879C312.757 47.1797 312.592 47.3902 312.387 47.5724C312.182 47.7514 311.935 47.8923 311.646 47.995C311.358 48.0945 311.025 48.1442 310.647 48.1442ZM311.253 46.6825C311.565 46.6825 311.84 46.6212 312.079 46.4986C312.317 46.3726 312.505 46.2036 312.641 45.9915C312.776 45.7794 312.844 45.5391 312.844 45.2706V44.4602C312.778 44.5033 312.687 44.5431 312.571 44.5795C312.458 44.6127 312.331 44.6442 312.188 44.674C312.046 44.7005 311.903 44.7254 311.761 44.7486C311.618 44.7685 311.489 44.7867 311.373 44.8033C311.124 44.8397 310.907 44.8977 310.722 44.9773C310.536 45.0568 310.392 45.1645 310.289 45.3004C310.186 45.433 310.135 45.5987 310.135 45.7976C310.135 46.0859 310.239 46.3063 310.448 46.4588C310.66 46.608 310.929 46.6825 311.253 46.6825ZM316.69 50.8636V40.3636H318.779V41.6463H318.873C318.966 41.4408 319.1 41.232 319.276 41.0199C319.455 40.8045 319.687 40.6255 319.972 40.483C320.26 40.3371 320.618 40.2642 321.046 40.2642C321.602 40.2642 322.116 40.41 322.587 40.7017C323.057 40.9901 323.434 41.4259 323.715 42.0092C323.997 42.5893 324.138 43.3168 324.138 44.1918C324.138 45.0436 324 45.7628 323.725 46.3494C323.453 46.9328 323.082 47.3752 322.612 47.6768C322.144 47.9751 321.621 48.1243 321.041 48.1243C320.63 48.1243 320.28 48.0563 319.992 47.9205C319.707 47.7846 319.473 47.6139 319.291 47.4084C319.108 47.1996 318.969 46.9891 318.873 46.777H318.808V50.8636H316.69ZM318.764 44.1818C318.764 44.6359 318.827 45.032 318.953 45.37C319.078 45.7081 319.261 45.9716 319.499 46.1605C319.738 46.3461 320.028 46.4389 320.369 46.4389C320.714 46.4389 321.006 46.3445 321.244 46.1555C321.483 45.9633 321.664 45.6982 321.786 45.3601C321.912 45.0187 321.975 44.6259 321.975 44.1818C321.975 43.741 321.914 43.3532 321.791 43.0185C321.669 42.6837 321.488 42.4219 321.249 42.233C321.011 42.044 320.717 41.9496 320.369 41.9496C320.025 41.9496 319.733 42.0407 319.494 42.223C319.259 42.4053 319.078 42.6638 318.953 42.9986C318.827 43.3333 318.764 43.7277 318.764 44.1818ZM329.712 40.3636V41.9545H325.113V40.3636H329.712ZM326.157 38.5341H328.275V45.6534C328.275 45.849 328.305 46.0014 328.364 46.1108C328.424 46.2169 328.507 46.2914 328.613 46.3345C328.722 46.3776 328.848 46.3991 328.991 46.3991C329.09 46.3991 329.19 46.3909 329.289 46.3743C329.388 46.3544 329.465 46.3395 329.518 46.3295L329.851 47.9055C329.745 47.9387 329.596 47.9768 329.403 48.0199C329.211 48.0663 328.978 48.0945 328.702 48.1044C328.192 48.1243 327.745 48.0563 327.36 47.9006C326.979 47.7448 326.682 47.5028 326.47 47.1747C326.258 46.8466 326.154 46.4323 326.157 45.9318V38.5341ZM333.369 48.1442C332.882 48.1442 332.447 48.0597 332.066 47.8906C331.685 47.7183 331.384 47.4647 331.161 47.13C330.943 46.7919 330.833 46.371 330.833 45.8672C330.833 45.4429 330.911 45.0866 331.067 44.7983C331.223 44.5099 331.435 44.2779 331.703 44.1023C331.972 43.9266 332.277 43.794 332.618 43.7045C332.963 43.6151 333.324 43.5521 333.702 43.5156C334.146 43.4692 334.504 43.4261 334.776 43.3864C335.048 43.3433 335.245 43.2803 335.367 43.1974C335.49 43.1146 335.551 42.992 335.551 42.8295V42.7997C335.551 42.4848 335.452 42.2412 335.253 42.0689C335.058 41.8965 334.779 41.8104 334.418 41.8104C334.037 41.8104 333.733 41.8949 333.508 42.0639C333.283 42.2296 333.134 42.4384 333.061 42.6903L331.102 42.5312C331.201 42.0672 331.397 41.6662 331.688 41.3281C331.98 40.9867 332.356 40.7249 332.817 40.5426C333.281 40.357 333.818 40.2642 334.428 40.2642C334.852 40.2642 335.258 40.3139 335.646 40.4134C336.037 40.5128 336.383 40.6669 336.685 40.8757C336.99 41.0845 337.23 41.353 337.406 41.6811C337.581 42.0059 337.669 42.3954 337.669 42.8494V48H335.661V46.9411H335.601C335.478 47.1797 335.314 47.3902 335.109 47.5724C334.903 47.7514 334.656 47.8923 334.368 47.995C334.08 48.0945 333.747 48.1442 333.369 48.1442ZM333.975 46.6825C334.287 46.6825 334.562 46.6212 334.801 46.4986C335.039 46.3726 335.227 46.2036 335.362 45.9915C335.498 45.7794 335.566 45.5391 335.566 45.2706V44.4602C335.5 44.5033 335.409 44.5431 335.293 44.5795C335.18 44.6127 335.053 44.6442 334.91 44.674C334.768 44.7005 334.625 44.7254 334.482 44.7486C334.34 44.7685 334.211 44.7867 334.095 44.8033C333.846 44.8397 333.629 44.8977 333.443 44.9773C333.258 45.0568 333.114 45.1645 333.011 45.3004C332.908 45.433 332.857 45.5987 332.857 45.7976C332.857 46.0859 332.961 46.3063 333.17 46.4588C333.382 46.608 333.651 46.6825 333.975 46.6825ZM339.412 48V40.3636H341.431V41.7109H341.52C341.679 41.2635 341.945 40.9105 342.316 40.652C342.687 40.3935 343.131 40.2642 343.648 40.2642C344.172 40.2642 344.618 40.3951 344.986 40.657C345.353 40.9155 345.599 41.2668 345.721 41.7109H345.801C345.957 41.2734 346.238 40.9238 346.646 40.6619C347.057 40.3968 347.543 40.2642 348.103 40.2642C348.815 40.2642 349.394 40.4912 349.838 40.9453C350.285 41.3961 350.509 42.0357 350.509 42.8643V48H348.396V43.282C348.396 42.8577 348.283 42.5395 348.058 42.3274C347.833 42.1153 347.551 42.0092 347.213 42.0092C346.828 42.0092 346.528 42.1319 346.313 42.3771C346.098 42.6191 345.99 42.9389 345.99 43.3366V48H343.937V43.2372C343.937 42.8627 343.829 42.5644 343.613 42.3423C343.401 42.1203 343.121 42.0092 342.773 42.0092C342.538 42.0092 342.326 42.0689 342.137 42.1882C341.951 42.3042 341.804 42.4683 341.694 42.6804C341.585 42.8892 341.53 43.1345 341.53 43.4162V48H339.412ZM357.8 48.1442C357.312 48.1442 356.878 48.0597 356.497 47.8906C356.116 47.7183 355.814 47.4647 355.592 47.13C355.374 46.7919 355.264 46.371 355.264 45.8672C355.264 45.4429 355.342 45.0866 355.498 44.7983C355.654 44.5099 355.866 44.2779 356.134 44.1023C356.403 43.9266 356.708 43.794 357.049 43.7045C357.394 43.6151 357.755 43.5521 358.133 43.5156C358.577 43.4692 358.935 43.4261 359.207 43.3864C359.478 43.3433 359.676 43.2803 359.798 43.1974C359.921 43.1146 359.982 42.992 359.982 42.8295V42.7997C359.982 42.4848 359.883 42.2412 359.684 42.0689C359.488 41.8965 359.21 41.8104 358.849 41.8104C358.468 41.8104 358.164 41.8949 357.939 42.0639C357.714 42.2296 357.564 42.4384 357.491 42.6903L355.533 42.5312C355.632 42.0672 355.828 41.6662 356.119 41.3281C356.411 40.9867 356.787 40.7249 357.248 40.5426C357.712 40.357 358.249 40.2642 358.859 40.2642C359.283 40.2642 359.689 40.3139 360.077 40.4134C360.468 40.5128 360.814 40.6669 361.116 40.8757C361.421 41.0845 361.661 41.353 361.837 41.6811C362.012 42.0059 362.1 42.3954 362.1 42.8494V48H360.092V46.9411H360.032C359.909 47.1797 359.745 47.3902 359.54 47.5724C359.334 47.7514 359.087 47.8923 358.799 47.995C358.511 48.0945 358.178 48.1442 357.8 48.1442ZM358.406 46.6825C358.718 46.6825 358.993 46.6212 359.231 46.4986C359.47 46.3726 359.657 46.2036 359.793 45.9915C359.929 45.7794 359.997 45.5391 359.997 45.2706V44.4602C359.931 44.5033 359.84 44.5431 359.724 44.5795C359.611 44.6127 359.483 44.6442 359.341 44.674C359.198 44.7005 359.056 44.7254 358.913 44.7486C358.771 44.7685 358.642 44.7867 358.526 44.8033C358.277 44.8397 358.06 44.8977 357.874 44.9773C357.689 45.0568 357.544 45.1645 357.442 45.3004C357.339 45.433 357.288 45.5987 357.288 45.7976C357.288 46.0859 357.392 46.3063 357.601 46.4588C357.813 46.608 358.081 46.6825 358.406 46.6825ZM367.294 48.1491C366.521 48.1491 365.853 47.9851 365.29 47.657C364.73 47.3255 364.297 46.8648 363.992 46.2749C363.687 45.6816 363.535 44.9938 363.535 44.2116C363.535 43.4228 363.687 42.7334 363.992 42.1435C364.297 41.5502 364.73 41.0895 365.29 40.7614C365.853 40.4299 366.521 40.2642 367.294 40.2642C368.066 40.2642 368.732 40.4299 369.292 40.7614C369.856 41.0895 370.29 41.5502 370.595 42.1435C370.9 42.7334 371.052 43.4228 371.052 44.2116C371.052 44.9938 370.9 45.6816 370.595 46.2749C370.29 46.8648 369.856 47.3255 369.292 47.657C368.732 47.9851 368.066 48.1491 367.294 48.1491ZM367.303 46.5085C367.655 46.5085 367.948 46.4091 368.183 46.2102C368.419 46.008 368.596 45.733 368.715 45.3849C368.838 45.0369 368.899 44.6409 368.899 44.1967C368.899 43.7526 368.838 43.3565 368.715 43.0085C368.596 42.6605 368.419 42.3854 368.183 42.1832C367.948 41.9811 367.655 41.88 367.303 41.88C366.949 41.88 366.651 41.9811 366.409 42.1832C366.17 42.3854 365.989 42.6605 365.867 43.0085C365.747 43.3565 365.688 43.7526 365.688 44.1967C365.688 44.6409 365.747 45.0369 365.867 45.3849C365.989 45.733 366.17 46.008 366.409 46.2102C366.651 46.4091 366.949 46.5085 367.303 46.5085ZM382.223 42.5412L380.284 42.6605C380.251 42.4948 380.18 42.3456 380.07 42.2131C379.961 42.0772 379.817 41.9695 379.638 41.8899C379.462 41.8071 379.252 41.7656 379.006 41.7656C378.678 41.7656 378.402 41.8352 378.176 41.9744C377.951 42.1103 377.838 42.2926 377.838 42.5213C377.838 42.7036 377.911 42.8577 378.057 42.9837C378.203 43.1096 378.453 43.2107 378.808 43.2869L380.19 43.5653C380.932 43.7178 381.486 43.9631 381.85 44.3011C382.215 44.6392 382.397 45.0833 382.397 45.6335C382.397 46.134 382.25 46.5732 381.955 46.951C381.663 47.3288 381.262 47.6238 380.752 47.8359C380.244 48.0447 379.659 48.1491 378.997 48.1491C377.986 48.1491 377.18 47.9387 376.58 47.5178C375.984 47.0935 375.634 46.5168 375.531 45.7876L377.614 45.6783C377.677 45.9865 377.83 46.2218 378.072 46.3842C378.314 46.5433 378.624 46.6229 379.002 46.6229C379.373 46.6229 379.671 46.5516 379.896 46.4091C380.125 46.2633 380.241 46.076 380.244 45.8473C380.241 45.6551 380.16 45.4976 380.001 45.375C379.842 45.2491 379.596 45.1529 379.265 45.0866L377.943 44.8232C377.197 44.674 376.642 44.4155 376.277 44.0476C375.916 43.6797 375.735 43.2107 375.735 42.6406C375.735 42.1501 375.868 41.7275 376.133 41.3729C376.401 41.0182 376.778 40.7448 377.261 40.5526C377.749 40.3603 378.319 40.2642 378.972 40.2642C379.936 40.2642 380.695 40.468 381.249 40.8757C381.805 41.2834 382.13 41.8385 382.223 42.5412ZM387.311 48.1491C386.525 48.1491 385.849 47.9901 385.282 47.6719C384.719 47.3504 384.285 46.8963 383.98 46.3097C383.675 45.7197 383.522 45.022 383.522 44.2166C383.522 43.4311 383.675 42.7417 383.98 42.1484C384.285 41.5552 384.714 41.0928 385.267 40.7614C385.824 40.4299 386.477 40.2642 387.226 40.2642C387.73 40.2642 388.199 40.3454 388.633 40.5078C389.071 40.6669 389.452 40.9072 389.777 41.2287C390.105 41.5502 390.36 41.9545 390.542 42.4418C390.725 42.9257 390.816 43.4924 390.816 44.142V44.7237H384.368V43.4112H388.822C388.822 43.1063 388.756 42.8362 388.623 42.6009C388.491 42.3655 388.307 42.1816 388.071 42.049C387.839 41.9131 387.569 41.8452 387.261 41.8452C386.94 41.8452 386.655 41.9197 386.406 42.0689C386.161 42.2147 385.968 42.4119 385.829 42.6605C385.69 42.9058 385.619 43.1792 385.616 43.4808V44.7287C385.616 45.1065 385.685 45.433 385.824 45.7081C385.967 45.9832 386.167 46.1953 386.426 46.3445C386.684 46.4936 386.991 46.5682 387.346 46.5682C387.581 46.5682 387.796 46.535 387.992 46.4688C388.187 46.4025 388.355 46.303 388.494 46.1705C388.633 46.0379 388.739 45.8755 388.812 45.6832L390.771 45.8125C390.672 46.2831 390.468 46.6941 390.16 47.0455C389.855 47.3935 389.46 47.6652 388.976 47.8608C388.496 48.053 387.941 48.1491 387.311 48.1491ZM397.195 44.7486V40.3636H399.313V48H397.279V46.6129H397.2C397.028 47.0604 396.741 47.42 396.34 47.6918C395.942 47.9635 395.457 48.0994 394.883 48.0994C394.373 48.0994 393.924 47.9834 393.536 47.7514C393.148 47.5194 392.845 47.1896 392.626 46.7621C392.411 46.3345 392.301 45.8224 392.298 45.2259V40.3636H394.416V44.848C394.419 45.2988 394.54 45.6551 394.779 45.9169C395.017 46.1787 395.337 46.3097 395.738 46.3097C395.993 46.3097 396.232 46.2517 396.454 46.1357C396.676 46.0163 396.855 45.8407 396.991 45.6087C397.13 45.3767 397.198 45.09 397.195 44.7486ZM406.565 43.5852V48H404.447V40.3636H406.466V41.7109H406.555C406.724 41.2668 407.007 40.9155 407.405 40.657C407.803 40.3951 408.285 40.2642 408.852 40.2642C409.382 40.2642 409.845 40.3802 410.239 40.6122C410.633 40.8442 410.94 41.1757 411.159 41.6065C411.378 42.0341 411.487 42.5445 411.487 43.1378V48H409.369V43.5156C409.372 43.0483 409.253 42.6837 409.011 42.4219C408.769 42.1567 408.436 42.0241 408.012 42.0241C407.727 42.0241 407.475 42.0855 407.256 42.2081C407.041 42.3307 406.872 42.5097 406.749 42.745C406.63 42.977 406.568 43.2571 406.565 43.5852ZM416.736 48.1491C415.951 48.1491 415.275 47.9901 414.708 47.6719C414.144 47.3504 413.71 46.8963 413.405 46.3097C413.1 45.7197 412.948 45.022 412.948 44.2166C412.948 43.4311 413.1 42.7417 413.405 42.1484C413.71 41.5552 414.139 41.0928 414.693 40.7614C415.25 40.4299 415.903 40.2642 416.652 40.2642C417.156 40.2642 417.624 40.3454 418.059 40.5078C418.496 40.6669 418.877 40.9072 419.202 41.2287C419.53 41.5502 419.785 41.9545 419.968 42.4418C420.15 42.9257 420.241 43.4924 420.241 44.142V44.7237H413.793V43.4112H418.248C418.248 43.1063 418.181 42.8362 418.049 42.6009C417.916 42.3655 417.732 42.1816 417.497 42.049C417.265 41.9131 416.995 41.8452 416.687 41.8452C416.365 41.8452 416.08 41.9197 415.831 42.0689C415.586 42.2147 415.394 42.4119 415.255 42.6605C415.115 42.9058 415.044 43.1792 415.041 43.4808V44.7287C415.041 45.1065 415.111 45.433 415.25 45.7081C415.392 45.9832 415.593 46.1953 415.851 46.3445C416.11 46.4936 416.416 46.5682 416.771 46.5682C417.006 46.5682 417.222 46.535 417.417 46.4688C417.613 46.4025 417.78 46.303 417.919 46.1705C418.059 46.0379 418.165 45.8755 418.238 45.6832L420.196 45.8125C420.097 46.2831 419.893 46.6941 419.585 47.0455C419.28 47.3935 418.886 47.6652 418.402 47.8608C417.921 48.053 417.366 48.1491 416.736 48.1491ZM425.164 51.0227C424.478 51.0227 423.889 50.9283 423.399 50.7393C422.911 50.5537 422.524 50.3002 422.235 49.9787C421.947 49.6572 421.76 49.2959 421.674 48.8949L423.632 48.6314C423.692 48.7839 423.786 48.9264 423.916 49.0589C424.045 49.1915 424.216 49.2976 424.428 49.3771C424.643 49.46 424.905 49.5014 425.213 49.5014C425.674 49.5014 426.054 49.3887 426.352 49.1634C426.653 48.9413 426.804 48.5684 426.804 48.0447V46.6477H426.715C426.622 46.8598 426.483 47.0604 426.297 47.2493C426.112 47.4382 425.873 47.5923 425.581 47.7116C425.29 47.831 424.942 47.8906 424.537 47.8906C423.964 47.8906 423.442 47.758 422.971 47.4929C422.504 47.2244 422.131 46.8151 421.853 46.2649C421.577 45.7114 421.44 45.0121 421.44 44.1669C421.44 43.3018 421.581 42.5793 421.862 41.9993C422.144 41.4193 422.519 40.9851 422.986 40.6967C423.457 40.4084 423.972 40.2642 424.532 40.2642C424.96 40.2642 425.318 40.3371 425.606 40.483C425.894 40.6255 426.126 40.8045 426.302 41.0199C426.481 41.232 426.619 41.4408 426.715 41.6463H426.794V40.3636H428.897V48.0746C428.897 48.7242 428.738 49.2678 428.42 49.7053C428.102 50.1428 427.661 50.4709 427.098 50.6896C426.537 50.9117 425.893 51.0227 425.164 51.0227ZM425.208 46.2997C425.55 46.2997 425.838 46.2152 426.073 46.0462C426.312 45.8738 426.494 45.6286 426.62 45.3104C426.75 44.9889 426.814 44.6044 426.814 44.157C426.814 43.7095 426.751 43.3217 426.625 42.9936C426.499 42.6622 426.317 42.4053 426.078 42.223C425.84 42.0407 425.55 41.9496 425.208 41.9496C424.86 41.9496 424.567 42.044 424.328 42.233C424.09 42.4186 423.909 42.6771 423.786 43.0085C423.664 43.34 423.603 43.7228 423.603 44.157C423.603 44.5978 423.664 44.9789 423.786 45.3004C423.912 45.6186 424.093 45.8655 424.328 46.0412C424.567 46.2135 424.86 46.2997 425.208 46.2997ZM434.133 48.1491C433.361 48.1491 432.693 47.9851 432.129 47.657C431.569 47.3255 431.137 46.8648 430.832 46.2749C430.527 45.6816 430.374 44.9938 430.374 44.2116C430.374 43.4228 430.527 42.7334 430.832 42.1435C431.137 41.5502 431.569 41.0895 432.129 40.7614C432.693 40.4299 433.361 40.2642 434.133 40.2642C434.905 40.2642 435.571 40.4299 436.132 40.7614C436.695 41.0895 437.129 41.5502 437.434 42.1435C437.739 42.7334 437.891 43.4228 437.891 44.2116C437.891 44.9938 437.739 45.6816 437.434 46.2749C437.129 46.8648 436.695 47.3255 436.132 47.657C435.571 47.9851 434.905 48.1491 434.133 48.1491ZM434.143 46.5085C434.494 46.5085 434.788 46.4091 435.023 46.2102C435.258 46.008 435.436 45.733 435.555 45.3849C435.677 45.0369 435.739 44.6409 435.739 44.1967C435.739 43.7526 435.677 43.3565 435.555 43.0085C435.436 42.6605 435.258 42.3854 435.023 42.1832C434.788 41.9811 434.494 41.88 434.143 41.88C433.788 41.88 433.49 41.9811 433.248 42.1832C433.009 42.3854 432.829 42.6605 432.706 43.0085C432.587 43.3565 432.527 43.7526 432.527 44.1967C432.527 44.6409 432.587 45.0369 432.706 45.3849C432.829 45.733 433.009 46.008 433.248 46.2102C433.49 46.4091 433.788 46.5085 434.143 46.5085ZM433.372 39.3793L434.426 37.1172H436.385L434.869 39.3793H433.372ZM442.819 48.1491C442.037 48.1491 441.364 47.9834 440.8 47.652C440.24 47.3172 439.809 46.8532 439.508 46.2599C439.21 45.6667 439.06 44.9839 439.06 44.2116C439.06 43.4295 439.211 42.7434 439.513 42.1534C439.818 41.5601 440.25 41.0978 440.81 40.7663C441.371 40.4316 442.037 40.2642 442.809 40.2642C443.475 40.2642 444.058 40.3852 444.559 40.6271C445.059 40.8691 445.455 41.2088 445.747 41.6463C446.039 42.0838 446.2 42.5975 446.229 43.1875H444.231C444.174 42.8063 444.025 42.4998 443.783 42.2678C443.545 42.0324 443.232 41.9148 442.844 41.9148C442.516 41.9148 442.229 42.0043 441.984 42.1832C441.742 42.3589 441.553 42.6158 441.417 42.9538C441.281 43.2919 441.213 43.7012 441.213 44.1818C441.213 44.669 441.279 45.0833 441.412 45.4247C441.548 45.7661 441.738 46.0263 441.984 46.2053C442.229 46.3842 442.516 46.4737 442.844 46.4737C443.086 46.4737 443.303 46.424 443.495 46.3246C443.691 46.2251 443.851 46.081 443.977 45.892C444.107 45.6998 444.191 45.4695 444.231 45.201H446.229C446.196 45.7843 446.037 46.2981 445.752 46.7422C445.47 47.183 445.081 47.5277 444.584 47.7763C444.087 48.0249 443.498 48.1491 442.819 48.1491ZM447.685 48V40.3636H449.803V48H447.685ZM448.749 39.3793C448.434 39.3793 448.164 39.2749 447.939 39.0661C447.717 38.8539 447.606 38.6004 447.606 38.3054C447.606 38.0137 447.717 37.7635 447.939 37.5547C448.164 37.3426 448.434 37.2365 448.749 37.2365C449.064 37.2365 449.333 37.3426 449.555 37.5547C449.78 37.7635 449.893 38.0137 449.893 38.3054C449.893 38.6004 449.78 38.8539 449.555 39.0661C449.333 39.2749 449.064 39.3793 448.749 39.3793ZM455.05 48.1491C454.278 48.1491 453.61 47.9851 453.047 47.657C452.486 47.3255 452.054 46.8648 451.749 46.2749C451.444 45.6816 451.292 44.9938 451.292 44.2116C451.292 43.4228 451.444 42.7334 451.749 42.1435C452.054 41.5502 452.486 41.0895 453.047 40.7614C453.61 40.4299 454.278 40.2642 455.05 40.2642C455.822 40.2642 456.489 40.4299 457.049 40.7614C457.612 41.0895 458.046 41.5502 458.351 42.1435C458.656 42.7334 458.809 43.4228 458.809 44.2116C458.809 44.9938 458.656 45.6816 458.351 46.2749C458.046 46.8648 457.612 47.3255 457.049 47.657C456.489 47.9851 455.822 48.1491 455.05 48.1491ZM455.06 46.5085C455.411 46.5085 455.705 46.4091 455.94 46.2102C456.175 46.008 456.353 45.733 456.472 45.3849C456.595 45.0369 456.656 44.6409 456.656 44.1967C456.656 43.7526 456.595 43.3565 456.472 43.0085C456.353 42.6605 456.175 42.3854 455.94 42.1832C455.705 41.9811 455.411 41.88 455.06 41.88C454.705 41.88 454.407 41.9811 454.165 42.1832C453.927 42.3854 453.746 42.6605 453.623 43.0085C453.504 43.3565 453.444 43.7526 453.444 44.1967C453.444 44.6409 453.504 45.0369 453.623 45.3849C453.746 45.733 453.927 46.008 454.165 46.2102C454.407 46.4091 454.705 46.5085 455.06 46.5085ZM461.524 48.1293C461.196 48.1293 460.914 48.0133 460.679 47.7812C460.447 47.5459 460.331 47.2642 460.331 46.9361C460.331 46.6113 460.447 46.3329 460.679 46.1009C460.914 45.8688 461.196 45.7528 461.524 45.7528C461.842 45.7528 462.12 45.8688 462.359 46.1009C462.598 46.3329 462.717 46.6113 462.717 46.9361C462.717 47.1548 462.661 47.3554 462.548 47.5376C462.438 47.7166 462.294 47.8608 462.115 47.9702C461.936 48.0762 461.739 48.1293 461.524 48.1293Z" fill="#134967"/>
</g>
<defs>
<filter id="filter0_dd_43_52" x="0" y="0" width="500" height="89" filterUnits="userSpaceOnUse" color-interpolation-filters="sRGB">
<feFlood flood-opacity="0" result="BackgroundImageFix"/>
<feColorMatrix in="SourceAlpha" type="matrix" values="0 0 0 0 0 0 0 0 0 0 0 0 0 0 0 0 0 0 127 0" result="hardAlpha"/>
<feOffset dy="4"/>
<feComposite in2="hardAlpha" operator="out"/>
<feColorMatrix type="matrix" values="0 0 0 0 0 0 0 0 0 0 0 0 0 0 0 0 0 0 0.04 0"/>
<feBlend mode="normal" in2="BackgroundImageFix" result="effect1_dropShadow_43_52"/>
<feColorMatrix in="SourceAlpha" type="matrix" values="0 0 0 0 0 0 0 0 0 0 0 0 0 0 0 0 0 0 127 0" result="hardAlpha"/>
<feOffset dy="4"/>
<feComposite in2="hardAlpha" operator="out"/>
<feColorMatrix type="matrix" values="0 0 0 0 0 0 0 0 0 0 0 0 0 0 0 0 0 0 0.04 0"/>
<feBlend mode="normal" in2="effect1_dropShadow_43_52" result="effect2_dropShadow_43_52"/>
<feBlend mode="normal" in="SourceGraphic" in2="effect2_dropShadow_43_52" result="shape"/>
</filter>
<clipPath id="clip0_43_52">
<rect width="400" height="28" fill="white" transform="translate(64 29)"/>
</clipPath>
</defs>
</svg>
