<svg width="500" height="89" viewBox="0 0 500 89" fill="none" xmlns="http://www.w3.org/2000/svg">
<g filter="url(#filter0_dd_43_53)">
<rect width="500" height="85" rx="15" fill="white"/>
</g>
<g clip-path="url(#clip0_43_53)">
<path d="M66.0909 36.6016C66.0263 36.3769 65.9355 36.1784 65.8185 36.006C65.7016 35.8306 65.5585 35.6829 65.3892 35.5629C65.223 35.4397 65.0322 35.3459 64.8168 35.2812C64.6044 35.2166 64.369 35.1843 64.1104 35.1843C63.6272 35.1843 63.2025 35.3043 62.8363 35.5444C62.4731 35.7844 62.19 36.1338 61.9869 36.5923C61.7837 37.0478 61.6822 37.6049 61.6822 38.2635C61.6822 38.9221 61.7822 39.4822 61.9822 39.9439C62.1823 40.4055 62.4654 40.7579 62.8317 41.0011C63.1979 41.2411 63.6303 41.3612 64.1289 41.3612C64.5813 41.3612 64.9676 41.2811 65.2876 41.1211C65.6108 40.958 65.857 40.7287 66.0263 40.4332C66.1986 40.1378 66.2848 39.7885 66.2848 39.3853L66.6911 39.4453H64.2536V37.9403H68.2099V39.1314C68.2099 39.9624 68.0344 40.6764 67.6836 41.2734C67.3327 41.8674 66.8496 42.326 66.234 42.6491C65.6185 42.9692 64.9137 43.1293 64.1197 43.1293C63.2333 43.1293 62.4547 42.9338 61.7837 42.543C61.1128 42.149 60.5896 41.5904 60.2141 40.8672C59.8417 40.1409 59.6555 39.2791 59.6555 38.282C59.6555 37.5156 59.7663 36.8324 59.9879 36.2322C60.2126 35.629 60.5265 35.1181 60.9297 34.6996C61.3329 34.281 61.8022 33.9625 62.3377 33.744C62.8732 33.5254 63.4534 33.4162 64.0781 33.4162C64.6136 33.4162 65.1122 33.4947 65.5739 33.6516C66.0355 33.8055 66.4448 34.024 66.8018 34.3072C67.1619 34.5903 67.4558 34.9273 67.6836 35.3182C67.9113 35.706 68.0575 36.1338 68.1222 36.6016H66.0909ZM71.7965 43.1339C71.3441 43.1339 70.9409 43.0554 70.5869 42.8984C70.233 42.7384 69.953 42.503 69.7468 42.1921C69.5436 41.8782 69.4421 41.4873 69.4421 41.0195C69.4421 40.6256 69.5144 40.2947 69.659 40.027C69.8037 39.7592 70.0007 39.5438 70.2499 39.3807C70.4992 39.2176 70.7824 39.0945 71.0994 39.0114C71.4195 38.9283 71.7549 38.8698 72.1058 38.8359C72.5182 38.7929 72.8506 38.7528 73.1029 38.7159C73.3553 38.6759 73.5384 38.6174 73.6523 38.5405C73.7662 38.4635 73.8231 38.3497 73.8231 38.1989V38.1712C73.8231 37.8788 73.7308 37.6526 73.5461 37.4925C73.3645 37.3325 73.106 37.2525 72.7705 37.2525C72.4166 37.2525 72.135 37.331 71.9257 37.4879C71.7164 37.6418 71.578 37.8357 71.5102 38.0696L69.6914 37.9219C69.7837 37.491 69.9653 37.1186 70.2361 36.8047C70.5069 36.4877 70.8562 36.2446 71.284 36.0753C71.7149 35.9029 72.2135 35.8168 72.7798 35.8168C73.1737 35.8168 73.5507 35.8629 73.9108 35.9553C74.274 36.0476 74.5956 36.1907 74.8757 36.3846C75.1588 36.5785 75.3819 36.8278 75.545 37.1325C75.7082 37.4341 75.7897 37.7957 75.7897 38.2173V43H73.9247V42.0167H73.8693C73.7554 42.2383 73.603 42.4337 73.4122 42.603C73.2214 42.7692 72.9921 42.9 72.7244 42.9954C72.4566 43.0877 72.1473 43.1339 71.7965 43.1339ZM72.3597 41.7766C72.649 41.7766 72.9044 41.7197 73.126 41.6058C73.3476 41.4889 73.5215 41.3319 73.6477 41.1349C73.7739 40.938 73.837 40.7148 73.837 40.4656V39.7131C73.7754 39.7531 73.6908 39.79 73.583 39.8239C73.4784 39.8546 73.3599 39.8839 73.2276 39.9116C73.0952 39.9362 72.9629 39.9593 72.8306 39.9808C72.6982 39.9993 72.5782 40.0162 72.4705 40.0316C72.2396 40.0655 72.0381 40.1193 71.8657 40.1932C71.6934 40.267 71.5595 40.3671 71.4641 40.4933C71.3687 40.6164 71.321 40.7702 71.321 40.9549C71.321 41.2227 71.4179 41.4273 71.6118 41.5689C71.8088 41.7074 72.0581 41.7766 72.3597 41.7766ZM77.4155 43V35.9091H79.3221V37.1463H79.3959C79.5252 36.7062 79.7422 36.3738 80.0469 36.1491C80.3515 35.9214 80.7024 35.8075 81.0994 35.8075C81.1979 35.8075 81.3041 35.8137 81.418 35.826C81.5318 35.8383 81.6318 35.8552 81.718 35.8768V37.6218C81.6257 37.5941 81.498 37.5695 81.3349 37.5479C81.1717 37.5264 81.0225 37.5156 80.8871 37.5156C80.5978 37.5156 80.3392 37.5787 80.1115 37.7049C79.8868 37.828 79.7083 38.0004 79.576 38.2219C79.4467 38.4435 79.3821 38.699 79.3821 38.9883V43H77.4155ZM84.6537 43.1339C84.2013 43.1339 83.7981 43.0554 83.4442 42.8984C83.0902 42.7384 82.8102 42.503 82.604 42.1921C82.4009 41.8782 82.2993 41.4873 82.2993 41.0195C82.2993 40.6256 82.3716 40.2947 82.5163 40.027C82.6609 39.7592 82.8579 39.5438 83.1072 39.3807C83.3565 39.2176 83.6396 39.0945 83.9566 39.0114C84.2767 38.9283 84.6121 38.8698 84.963 38.8359C85.3754 38.7929 85.7078 38.7528 85.9602 38.7159C86.2125 38.6759 86.3956 38.6174 86.5095 38.5405C86.6234 38.4635 86.6803 38.3497 86.6803 38.1989V38.1712C86.6803 37.8788 86.588 37.6526 86.4033 37.4925C86.2218 37.3325 85.9632 37.2525 85.6278 37.2525C85.2738 37.2525 84.9922 37.331 84.783 37.4879C84.5737 37.6418 84.4352 37.8357 84.3675 38.0696L82.5486 37.9219C82.6409 37.491 82.8225 37.1186 83.0933 36.8047C83.3642 36.4877 83.7135 36.2446 84.1413 36.0753C84.5721 35.9029 85.0707 35.8168 85.637 35.8168C86.0309 35.8168 86.408 35.8629 86.768 35.9553C87.1312 36.0476 87.4528 36.1907 87.7329 36.3846C88.016 36.5785 88.2392 36.8278 88.4023 37.1325C88.5654 37.4341 88.6469 37.7957 88.6469 38.2173V43H86.7819V42.0167H86.7265C86.6126 42.2383 86.4603 42.4337 86.2695 42.603C86.0786 42.7692 85.8494 42.9 85.5816 42.9954C85.3138 43.0877 85.0045 43.1339 84.6537 43.1339ZM85.2169 41.7766C85.5062 41.7766 85.7616 41.7197 85.9832 41.6058C86.2048 41.4889 86.3787 41.3319 86.5049 41.1349C86.6311 40.938 86.6942 40.7148 86.6942 40.4656V39.7131C86.6326 39.7531 86.548 39.79 86.4403 39.8239C86.3356 39.8546 86.2171 39.8839 86.0848 39.9116C85.9525 39.9362 85.8201 39.9593 85.6878 39.9808C85.5554 39.9993 85.4354 40.0162 85.3277 40.0316C85.0969 40.0655 84.8953 40.1193 84.7229 40.1932C84.5506 40.267 84.4167 40.3671 84.3213 40.4933C84.2259 40.6164 84.1782 40.7702 84.1782 40.9549C84.1782 41.2227 84.2751 41.4273 84.469 41.5689C84.666 41.7074 84.9153 41.7766 85.2169 41.7766ZM92.2393 38.9006V43H90.2727V35.9091H92.147V37.1602H92.2301C92.387 36.7478 92.6502 36.4215 93.0195 36.1815C93.3888 35.9383 93.8366 35.8168 94.3629 35.8168C94.8553 35.8168 95.2846 35.9245 95.6509 36.1399C96.0171 36.3554 96.3018 36.6631 96.5049 37.0632C96.7081 37.4602 96.8096 37.9342 96.8096 38.4851V43H94.843V38.8359C94.8461 38.402 94.7353 38.0634 94.5106 37.8203C94.2859 37.5741 93.9766 37.451 93.5827 37.451C93.318 37.451 93.0841 37.5079 92.881 37.6218C92.681 37.7357 92.524 37.9019 92.4101 38.1204C92.2993 38.3358 92.2424 38.5959 92.2393 38.9006ZM102.231 35.9091V37.3864H97.961V35.9091H102.231ZM98.9305 34.2102H100.897V40.821C100.897 41.0026 100.925 41.1442 100.98 41.2457C101.036 41.3442 101.113 41.4135 101.211 41.4535C101.313 41.4935 101.43 41.5135 101.562 41.5135C101.654 41.5135 101.747 41.5058 101.839 41.4904C101.931 41.4719 102.002 41.4581 102.051 41.4489L102.361 42.9123C102.262 42.9431 102.124 42.9785 101.945 43.0185C101.767 43.0616 101.55 43.0877 101.294 43.0969C100.82 43.1154 100.405 43.0523 100.048 42.9077C99.6937 42.763 99.4183 42.5384 99.2213 42.2337C99.0244 41.929 98.9274 41.5443 98.9305 41.0795V34.2102ZM103.612 43V35.9091H105.579V43H103.612ZM104.6 34.995C104.308 34.995 104.057 34.8981 103.848 34.7042C103.642 34.5072 103.538 34.2718 103.538 33.9979C103.538 33.727 103.642 33.4947 103.848 33.3008C104.057 33.1038 104.308 33.0053 104.6 33.0053C104.893 33.0053 105.142 33.1038 105.348 33.3008C105.557 33.4947 105.662 33.727 105.662 33.9979C105.662 34.2718 105.557 34.5072 105.348 34.7042C105.142 34.8981 104.893 34.995 104.6 34.995ZM107.254 43V35.9091H109.129V37.1602H109.212C109.359 36.7447 109.606 36.4169 109.95 36.1768C110.295 35.9368 110.707 35.8168 111.188 35.8168C111.674 35.8168 112.088 35.9383 112.429 36.1815C112.771 36.4215 112.999 36.7478 113.113 37.1602H113.187C113.331 36.7539 113.593 36.4292 113.971 36.1861C114.353 35.9399 114.804 35.8168 115.324 35.8168C115.986 35.8168 116.523 36.0276 116.935 36.4492C117.351 36.8678 117.558 37.4618 117.558 38.2312V43H115.596V38.619C115.596 38.225 115.492 37.9296 115.282 37.7326C115.073 37.5356 114.812 37.4371 114.498 37.4371C114.141 37.4371 113.862 37.551 113.662 37.7788C113.462 38.0034 113.362 38.3004 113.362 38.6697V43H111.455V38.5774C111.455 38.2296 111.355 37.9527 111.155 37.7464C110.958 37.5402 110.698 37.4371 110.375 37.4371C110.157 37.4371 109.96 37.4925 109.784 37.6033C109.612 37.7111 109.475 37.8634 109.373 38.0604C109.272 38.2543 109.221 38.482 109.221 38.7436V43H107.254ZM122.416 43.1385C121.698 43.1385 121.078 42.9862 120.555 42.6815C120.035 42.3737 119.633 41.9459 119.35 41.3981C119.067 40.8472 118.926 40.2086 118.926 39.4822C118.926 38.7498 119.067 38.1096 119.35 37.5618C119.633 37.0109 120.035 36.5831 120.555 36.2784C121.078 35.9706 121.698 35.8168 122.416 35.8168C123.133 35.8168 123.751 35.9706 124.271 36.2784C124.795 36.5831 125.198 37.0109 125.481 37.5618C125.764 38.1096 125.906 38.7498 125.906 39.4822C125.906 40.2086 125.764 40.8472 125.481 41.3981C125.198 41.9459 124.795 42.3737 124.271 42.6815C123.751 42.9862 123.133 43.1385 122.416 43.1385ZM122.425 41.6151C122.751 41.6151 123.023 41.5227 123.242 41.3381C123.46 41.1503 123.625 40.8949 123.736 40.5717C123.85 40.2486 123.907 39.8808 123.907 39.4684C123.907 39.056 123.85 38.6882 123.736 38.3651C123.625 38.0419 123.46 37.7865 123.242 37.5987C123.023 37.411 122.751 37.3171 122.425 37.3171C122.096 37.3171 121.819 37.411 121.594 37.5987C121.372 37.7865 121.205 38.0419 121.091 38.3651C120.98 38.6882 120.924 39.056 120.924 39.4684C120.924 39.8808 120.98 40.2486 121.091 40.5717C121.205 40.8949 121.372 41.1503 121.594 41.3381C121.819 41.5227 122.096 41.6151 122.425 41.6151ZM133.184 37.9311L131.384 38.0419C131.353 37.888 131.287 37.7495 131.185 37.6264C131.084 37.5002 130.95 37.4002 130.784 37.3263C130.621 37.2494 130.425 37.2109 130.197 37.2109C129.893 37.2109 129.636 37.2756 129.426 37.4048C129.217 37.531 129.113 37.7003 129.113 37.9126C129.113 38.0819 129.18 38.225 129.316 38.342C129.451 38.4589 129.683 38.5528 130.013 38.6236L131.296 38.8821C131.986 39.0237 132.499 39.2514 132.838 39.5653C133.177 39.8793 133.346 40.2917 133.346 40.8026C133.346 41.2673 133.209 41.6751 132.935 42.0259C132.664 42.3768 132.292 42.6507 131.818 42.8477C131.347 43.0415 130.804 43.1385 130.188 43.1385C129.249 43.1385 128.502 42.9431 127.945 42.5522C127.391 42.1583 127.066 41.6228 126.97 40.9457L128.905 40.8441C128.963 41.1303 129.105 41.3488 129.33 41.4996C129.554 41.6474 129.842 41.7212 130.193 41.7212C130.537 41.7212 130.814 41.6551 131.024 41.5227C131.236 41.3873 131.344 41.2134 131.347 41.0011C131.344 40.8226 131.268 40.6764 131.121 40.5625C130.973 40.4455 130.745 40.3563 130.437 40.2947L129.209 40.0501C128.517 39.9116 128.002 39.6715 127.663 39.3299C127.327 38.9883 127.16 38.5528 127.16 38.0234C127.16 37.5679 127.283 37.1755 127.529 36.8462C127.778 36.5169 128.128 36.263 128.577 36.0845C129.029 35.906 129.559 35.8168 130.165 35.8168C131.061 35.8168 131.765 36.006 132.279 36.3846C132.796 36.7631 133.098 37.2786 133.184 37.9311ZM137.793 45.6591V35.9091H139.732V37.1001H139.82C139.906 36.9093 140.03 36.7154 140.194 36.5185C140.36 36.3184 140.575 36.1522 140.84 36.0199C141.108 35.8845 141.44 35.8168 141.837 35.8168C142.354 35.8168 142.831 35.9522 143.268 36.223C143.705 36.4908 144.054 36.8955 144.316 37.4371C144.578 37.9757 144.708 38.6513 144.708 39.4638C144.708 40.2547 144.581 40.9226 144.325 41.4673C144.073 42.009 143.728 42.4199 143.291 42.6999C142.857 42.9769 142.371 43.1154 141.832 43.1154C141.451 43.1154 141.126 43.0523 140.858 42.9261C140.594 42.8 140.377 42.6415 140.207 42.4506C140.038 42.2567 139.909 42.0613 139.82 41.8643H139.76V45.6591H137.793ZM139.718 39.4545C139.718 39.8762 139.777 40.244 139.894 40.5579C140.01 40.8718 140.18 41.1165 140.401 41.2919C140.623 41.4643 140.892 41.5504 141.209 41.5504C141.529 41.5504 141.8 41.4627 142.022 41.2873C142.243 41.1088 142.411 40.8626 142.525 40.5487C142.642 40.2317 142.7 39.867 142.7 39.4545C142.7 39.0452 142.643 38.6851 142.53 38.3743C142.416 38.0634 142.248 37.8203 142.026 37.6449C141.805 37.4695 141.532 37.3817 141.209 37.3817C140.889 37.3817 140.618 37.4664 140.397 37.6357C140.178 37.8049 140.01 38.045 139.894 38.3558C139.777 38.6667 139.718 39.0329 139.718 39.4545ZM146.12 43V35.9091H148.026V37.1463H148.1C148.229 36.7062 148.446 36.3738 148.751 36.1491C149.056 35.9214 149.406 35.8075 149.804 35.8075C149.902 35.8075 150.008 35.8137 150.122 35.826C150.236 35.8383 150.336 35.8552 150.422 35.8768V37.6218C150.33 37.5941 150.202 37.5695 150.039 37.5479C149.876 37.5264 149.727 37.5156 149.591 37.5156C149.302 37.5156 149.043 37.5787 148.816 37.7049C148.591 37.828 148.412 38.0004 148.28 38.2219C148.151 38.4435 148.086 38.699 148.086 38.9883V43H146.12ZM154.413 43.1385C153.696 43.1385 153.075 42.9862 152.552 42.6815C152.032 42.3737 151.63 41.9459 151.347 41.3981C151.064 40.8472 150.923 40.2086 150.923 39.4822C150.923 38.7498 151.064 38.1096 151.347 37.5618C151.63 37.0109 152.032 36.5831 152.552 36.2784C153.075 35.9706 153.696 35.8168 154.413 35.8168C155.13 35.8168 155.748 35.9706 156.268 36.2784C156.792 36.5831 157.195 37.0109 157.478 37.5618C157.761 38.1096 157.903 38.7498 157.903 39.4822C157.903 40.2086 157.761 40.8472 157.478 41.3981C157.195 41.9459 156.792 42.3737 156.268 42.6815C155.748 42.9862 155.13 43.1385 154.413 43.1385ZM154.422 41.6151C154.748 41.6151 155.02 41.5227 155.239 41.3381C155.458 41.1503 155.622 40.8949 155.733 40.5717C155.847 40.2486 155.904 39.8808 155.904 39.4684C155.904 39.056 155.847 38.6882 155.733 38.3651C155.622 38.0419 155.458 37.7865 155.239 37.5987C155.02 37.411 154.748 37.3171 154.422 37.3171C154.093 37.3171 153.816 37.411 153.591 37.5987C153.369 37.7865 153.202 38.0419 153.088 38.3651C152.977 38.6882 152.922 39.056 152.922 39.4684C152.922 39.8808 152.977 40.2486 153.088 40.5717C153.202 40.8949 153.369 41.1503 153.591 41.3381C153.816 41.5227 154.093 41.6151 154.422 41.6151ZM161.894 43.1154C161.356 43.1154 160.868 42.9769 160.431 42.6999C159.997 42.4199 159.652 42.009 159.397 41.4673C159.145 40.9226 159.018 40.2547 159.018 39.4638C159.018 38.6513 159.149 37.9757 159.411 37.4371C159.672 36.8955 160.02 36.4908 160.454 36.223C160.891 35.9522 161.37 35.8168 161.89 35.8168C162.287 35.8168 162.618 35.8845 162.882 36.0199C163.15 36.1522 163.366 36.3184 163.529 36.5185C163.695 36.7154 163.821 36.9093 163.907 37.1001H163.967V33.5455H165.929V43H163.99V41.8643H163.907C163.815 42.0613 163.684 42.2567 163.515 42.4506C163.349 42.6415 163.132 42.8 162.864 42.9261C162.599 43.0523 162.276 43.1154 161.894 43.1154ZM162.518 41.5504C162.835 41.5504 163.102 41.4643 163.321 41.2919C163.542 41.1165 163.712 40.8718 163.829 40.5579C163.949 40.244 164.009 39.8762 164.009 39.4545C164.009 39.0329 163.95 38.6667 163.833 38.3558C163.716 38.045 163.547 37.8049 163.326 37.6357C163.104 37.4664 162.835 37.3817 162.518 37.3817C162.194 37.3817 161.922 37.4695 161.701 37.6449C161.479 37.8203 161.311 38.0634 161.197 38.3743C161.083 38.6851 161.027 39.0452 161.027 39.4545C161.027 39.867 161.083 40.2317 161.197 40.5487C161.314 40.8626 161.482 41.1088 161.701 41.2873C161.922 41.4627 162.194 41.5504 162.518 41.5504ZM172.193 39.9808V35.9091H174.16V43H172.272V41.712H172.198C172.038 42.1275 171.772 42.4614 171.399 42.7138C171.03 42.9661 170.579 43.0923 170.047 43.0923C169.573 43.0923 169.156 42.9846 168.796 42.7692C168.436 42.5537 168.154 42.2475 167.951 41.8505C167.751 41.4535 167.649 40.978 167.646 40.424V35.9091H169.613V40.0732C169.616 40.4917 169.728 40.8226 169.95 41.0657C170.171 41.3088 170.468 41.4304 170.841 41.4304C171.078 41.4304 171.299 41.3765 171.506 41.2688C171.712 41.158 171.878 40.9949 172.004 40.7795C172.133 40.564 172.196 40.2978 172.193 39.9808ZM179.605 35.9091V37.3864H175.334V35.9091H179.605ZM176.304 34.2102H178.271V40.821C178.271 41.0026 178.298 41.1442 178.354 41.2457C178.409 41.3442 178.486 41.4135 178.584 41.4535C178.686 41.4935 178.803 41.5135 178.935 41.5135C179.028 41.5135 179.12 41.5058 179.212 41.4904C179.305 41.4719 179.375 41.4581 179.425 41.4489L179.734 42.9123C179.635 42.9431 179.497 42.9785 179.318 43.0185C179.14 43.0616 178.923 43.0877 178.668 43.0969C178.194 43.1154 177.778 43.0523 177.421 42.9077C177.067 42.763 176.792 42.5384 176.595 42.2337C176.398 41.929 176.301 41.5443 176.304 41.0795V34.2102ZM184.113 43.1385C183.396 43.1385 182.776 42.9862 182.253 42.6815C181.733 42.3737 181.331 41.9459 181.048 41.3981C180.765 40.8472 180.623 40.2086 180.623 39.4822C180.623 38.7498 180.765 38.1096 181.048 37.5618C181.331 37.0109 181.733 36.5831 182.253 36.2784C182.776 35.9706 183.396 35.8168 184.113 35.8168C184.831 35.8168 185.449 35.9706 185.969 36.2784C186.492 36.5831 186.896 37.0109 187.179 37.5618C187.462 38.1096 187.603 38.7498 187.603 39.4822C187.603 40.2086 187.462 40.8472 187.179 41.3981C186.896 41.9459 186.492 42.3737 185.969 42.6815C185.449 42.9862 184.831 43.1385 184.113 43.1385ZM184.123 41.6151C184.449 41.6151 184.721 41.5227 184.94 41.3381C185.158 41.1503 185.323 40.8949 185.434 40.5717C185.548 40.2486 185.605 39.8808 185.605 39.4684C185.605 39.056 185.548 38.6882 185.434 38.3651C185.323 38.0419 185.158 37.7865 184.94 37.5987C184.721 37.411 184.449 37.3171 184.123 37.3171C183.793 37.3171 183.516 37.411 183.292 37.5987C183.07 37.7865 182.902 38.0419 182.789 38.3651C182.678 38.6882 182.622 39.056 182.622 39.4684C182.622 39.8808 182.678 40.2486 182.789 40.5717C182.902 40.8949 183.07 41.1503 183.292 41.3381C183.516 41.5227 183.793 41.6151 184.123 41.6151ZM194.882 37.9311L193.082 38.0419C193.051 37.888 192.985 37.7495 192.883 37.6264C192.782 37.5002 192.648 37.4002 192.482 37.3263C192.318 37.2494 192.123 37.2109 191.895 37.2109C191.591 37.2109 191.334 37.2756 191.124 37.4048C190.915 37.531 190.81 37.7003 190.81 37.9126C190.81 38.0819 190.878 38.225 191.014 38.342C191.149 38.4589 191.381 38.5528 191.711 38.6236L192.994 38.8821C193.683 39.0237 194.197 39.2514 194.536 39.5653C194.874 39.8793 195.044 40.2917 195.044 40.8026C195.044 41.2673 194.907 41.6751 194.633 42.0259C194.362 42.3768 193.99 42.6507 193.516 42.8477C193.045 43.0415 192.502 43.1385 191.886 43.1385C190.947 43.1385 190.199 42.9431 189.642 42.5522C189.088 42.1583 188.764 41.6228 188.668 40.9457L190.603 40.8441C190.661 41.1303 190.803 41.3488 191.027 41.4996C191.252 41.6474 191.54 41.7212 191.891 41.7212C192.235 41.7212 192.512 41.6551 192.722 41.5227C192.934 41.3873 193.042 41.2134 193.045 41.0011C193.042 40.8226 192.966 40.6764 192.819 40.5625C192.671 40.4455 192.443 40.3563 192.135 40.2947L190.907 40.0501C190.215 39.9116 189.699 39.6715 189.361 39.3299C189.025 38.9883 188.858 38.5528 188.858 38.0234C188.858 37.5679 188.981 37.1755 189.227 36.8462C189.476 36.5169 189.826 36.263 190.275 36.0845C190.727 35.906 191.257 35.8168 191.863 35.8168C192.759 35.8168 193.463 36.006 193.977 36.3846C194.494 36.7631 194.796 37.2786 194.882 37.9311ZM199.491 43V35.9091H201.397V37.1463H201.471C201.601 36.7062 201.818 36.3738 202.122 36.1491C202.427 35.9214 202.778 35.8075 203.175 35.8075C203.273 35.8075 203.379 35.8137 203.493 35.826C203.607 35.8383 203.707 35.8552 203.793 35.8768V37.6218C203.701 37.5941 203.573 37.5695 203.41 37.5479C203.247 37.5264 203.098 37.5156 202.962 37.5156C202.673 37.5156 202.415 37.5787 202.187 37.7049C201.962 37.828 201.784 38.0004 201.651 38.2219C201.522 38.4435 201.457 38.699 201.457 38.9883V43H199.491ZM207.784 43.1385C207.067 43.1385 206.447 42.9862 205.924 42.6815C205.403 42.3737 205.002 41.9459 204.719 41.3981C204.435 40.8472 204.294 40.2086 204.294 39.4822C204.294 38.7498 204.435 38.1096 204.719 37.5618C205.002 37.0109 205.403 36.5831 205.924 36.2784C206.447 35.9706 207.067 35.8168 207.784 35.8168C208.501 35.8168 209.12 35.9706 209.64 36.2784C210.163 36.5831 210.566 37.0109 210.849 37.5618C211.132 38.1096 211.274 38.7498 211.274 39.4822C211.274 40.2086 211.132 40.8472 210.849 41.3981C210.566 41.9459 210.163 42.3737 209.64 42.6815C209.12 42.9862 208.501 43.1385 207.784 43.1385ZM207.793 41.6151C208.119 41.6151 208.392 41.5227 208.61 41.3381C208.829 41.1503 208.993 40.8949 209.104 40.5717C209.218 40.2486 209.275 39.8808 209.275 39.4684C209.275 39.056 209.218 38.6882 209.104 38.3651C208.993 38.0419 208.829 37.7865 208.61 37.5987C208.392 37.411 208.119 37.3171 207.793 37.3171C207.464 37.3171 207.187 37.411 206.962 37.5987C206.741 37.7865 206.573 38.0419 206.459 38.3651C206.348 38.6882 206.293 39.056 206.293 39.4684C206.293 39.8808 206.348 40.2486 206.459 40.5717C206.573 40.8949 206.741 41.1503 206.962 41.3381C207.187 41.5227 207.464 41.6151 207.793 41.6151ZM212.69 43V33.5455H214.656V37.1001H214.716C214.803 36.9093 214.927 36.7154 215.09 36.5185C215.256 36.3184 215.472 36.1522 215.737 36.0199C216.004 35.8845 216.337 35.8168 216.734 35.8168C217.251 35.8168 217.728 35.9522 218.165 36.223C218.602 36.4908 218.951 36.8955 219.213 37.4371C219.474 37.9757 219.605 38.6513 219.605 39.4638C219.605 40.2547 219.477 40.9226 219.222 41.4673C218.97 42.009 218.625 42.4199 218.188 42.6999C217.754 42.9769 217.268 43.1154 216.729 43.1154C216.347 43.1154 216.023 43.0523 215.755 42.9261C215.49 42.8 215.273 42.6415 215.104 42.4506C214.935 42.2567 214.806 42.0613 214.716 41.8643H214.629V43H212.69ZM214.615 39.4545C214.615 39.8762 214.673 40.244 214.79 40.5579C214.907 40.8718 215.076 41.1165 215.298 41.2919C215.52 41.4643 215.789 41.5504 216.106 41.5504C216.426 41.5504 216.697 41.4627 216.918 41.2873C217.14 41.1088 217.308 40.8626 217.422 40.5487C217.539 40.2317 217.597 39.867 217.597 39.4545C217.597 39.0452 217.54 38.6851 217.426 38.3743C217.312 38.0634 217.145 37.8203 216.923 37.6449C216.701 37.4695 216.429 37.3817 216.106 37.3817C215.786 37.3817 215.515 37.4664 215.293 37.6357C215.075 37.8049 214.907 38.045 214.79 38.3558C214.673 38.6667 214.615 39.0329 214.615 39.4545ZM225.565 39.9808V35.9091H227.531V43H225.643V41.712H225.569C225.409 42.1275 225.143 42.4614 224.771 42.7138C224.401 42.9661 223.95 43.0923 223.418 43.0923C222.944 43.0923 222.527 42.9846 222.167 42.7692C221.807 42.5537 221.525 42.2475 221.322 41.8505C221.122 41.4535 221.02 40.978 221.017 40.424V35.9091H222.984V40.0732C222.987 40.4917 223.099 40.8226 223.321 41.0657C223.543 41.3088 223.84 41.4304 224.212 41.4304C224.449 41.4304 224.671 41.3765 224.877 41.2688C225.083 41.158 225.249 40.9949 225.375 40.7795C225.505 40.564 225.568 40.2978 225.565 39.9808ZM235.104 37.9311L233.304 38.0419C233.273 37.888 233.207 37.7495 233.105 37.6264C233.004 37.5002 232.87 37.4002 232.704 37.3263C232.541 37.2494 232.345 37.2109 232.117 37.2109C231.813 37.2109 231.556 37.2756 231.346 37.4048C231.137 37.531 231.032 37.7003 231.032 37.9126C231.032 38.0819 231.1 38.225 231.236 38.342C231.371 38.4589 231.603 38.5528 231.933 38.6236L233.216 38.8821C233.905 39.0237 234.419 39.2514 234.758 39.5653C235.096 39.8793 235.266 40.2917 235.266 40.8026C235.266 41.2673 235.129 41.6751 234.855 42.0259C234.584 42.3768 234.212 42.6507 233.738 42.8477C233.267 43.0415 232.724 43.1385 232.108 43.1385C231.169 43.1385 230.422 42.9431 229.864 42.5522C229.311 42.1583 228.986 41.6228 228.89 40.9457L230.825 40.8441C230.883 41.1303 231.025 41.3488 231.249 41.4996C231.474 41.6474 231.762 41.7212 232.113 41.7212C232.457 41.7212 232.734 41.6551 232.944 41.5227C233.156 41.3873 233.264 41.2134 233.267 41.0011C233.264 40.8226 233.188 40.6764 233.041 40.5625C232.893 40.4455 232.665 40.3563 232.357 40.2947L231.129 40.0501C230.437 39.9116 229.921 39.6715 229.583 39.3299C229.247 38.9883 229.08 38.5528 229.08 38.0234C229.08 37.5679 229.203 37.1755 229.449 36.8462C229.698 36.5169 230.048 36.263 230.497 36.0845C230.949 35.906 231.479 35.8168 232.085 35.8168C232.981 35.8168 233.685 36.006 234.199 36.3846C234.716 36.7631 235.018 37.2786 235.104 37.9311ZM240.376 35.9091V37.3864H236.106V35.9091H240.376ZM237.075 34.2102H239.042V40.821C239.042 41.0026 239.069 41.1442 239.125 41.2457C239.18 41.3442 239.257 41.4135 239.356 41.4535C239.457 41.4935 239.574 41.5135 239.706 41.5135C239.799 41.5135 239.891 41.5058 239.983 41.4904C240.076 41.4719 240.147 41.4581 240.196 41.4489L240.505 42.9123C240.407 42.9431 240.268 42.9785 240.09 43.0185C239.911 43.0616 239.694 43.0877 239.439 43.0969C238.965 43.1154 238.549 43.0523 238.192 42.9077C237.838 42.763 237.563 42.5384 237.366 42.2337C237.169 41.929 237.072 41.5443 237.075 41.0795V34.2102ZM244.885 43.1385C244.167 43.1385 243.547 42.9862 243.024 42.6815C242.504 42.3737 242.102 41.9459 241.819 41.3981C241.536 40.8472 241.394 40.2086 241.394 39.4822C241.394 38.7498 241.536 38.1096 241.819 37.5618C242.102 37.0109 242.504 36.5831 243.024 36.2784C243.547 35.9706 244.167 35.8168 244.885 35.8168C245.602 35.8168 246.22 35.9706 246.74 36.2784C247.264 36.5831 247.667 37.0109 247.95 37.5618C248.233 38.1096 248.375 38.7498 248.375 39.4822C248.375 40.2086 248.233 40.8472 247.95 41.3981C247.667 41.9459 247.264 42.3737 246.74 42.6815C246.22 42.9862 245.602 43.1385 244.885 43.1385ZM244.894 41.6151C245.22 41.6151 245.492 41.5227 245.711 41.3381C245.929 41.1503 246.094 40.8949 246.205 40.5717C246.319 40.2486 246.376 39.8808 246.376 39.4684C246.376 39.056 246.319 38.6882 246.205 38.3651C246.094 38.0419 245.929 37.7865 245.711 37.5987C245.492 37.411 245.22 37.3171 244.894 37.3171C244.564 37.3171 244.287 37.411 244.063 37.5987C243.841 37.7865 243.673 38.0419 243.56 38.3651C243.449 38.6882 243.393 39.056 243.393 39.4684C243.393 39.8808 243.449 40.2486 243.56 40.5717C243.673 40.8949 243.841 41.1503 244.063 41.3381C244.287 41.5227 244.564 41.6151 244.894 41.6151ZM255.653 37.9311L253.853 38.0419C253.822 37.888 253.756 37.7495 253.654 37.6264C253.553 37.5002 253.419 37.4002 253.253 37.3263C253.09 37.2494 252.894 37.2109 252.666 37.2109C252.362 37.2109 252.105 37.2756 251.895 37.4048C251.686 37.531 251.581 37.7003 251.581 37.9126C251.581 38.0819 251.649 38.225 251.785 38.342C251.92 38.4589 252.152 38.5528 252.482 38.6236L253.765 38.8821C254.454 39.0237 254.968 39.2514 255.307 39.5653C255.646 39.8793 255.815 40.2917 255.815 40.8026C255.815 41.2673 255.678 41.6751 255.404 42.0259C255.133 42.3768 254.761 42.6507 254.287 42.8477C253.816 43.0415 253.273 43.1385 252.657 43.1385C251.718 43.1385 250.971 42.9431 250.414 42.5522C249.86 42.1583 249.535 41.6228 249.439 40.9457L251.374 40.8441C251.432 41.1303 251.574 41.3488 251.798 41.4996C252.023 41.6474 252.311 41.7212 252.662 41.7212C253.006 41.7212 253.283 41.6551 253.493 41.5227C253.705 41.3873 253.813 41.2134 253.816 41.0011C253.813 40.8226 253.737 40.6764 253.59 40.5625C253.442 40.4455 253.214 40.3563 252.906 40.2947L251.678 40.0501C250.986 39.9116 250.47 39.6715 250.132 39.3299C249.796 38.9883 249.629 38.5528 249.629 38.0234C249.629 37.5679 249.752 37.1755 249.998 36.8462C250.247 36.5169 250.597 36.263 251.046 36.0845C251.498 35.906 252.028 35.8168 252.634 35.8168C253.53 35.8168 254.234 36.006 254.748 36.3846C255.265 36.7631 255.567 37.2786 255.653 37.9311ZM259.291 41.7074L259.24 42.2152C259.2 42.6214 259.123 43.0262 259.009 43.4293C258.898 43.8356 258.781 44.2034 258.658 44.5327C258.538 44.862 258.441 45.1205 258.367 45.3082H257.093C257.139 45.1267 257.202 44.8728 257.282 44.5465C257.362 44.2234 257.438 43.8602 257.509 43.457C257.579 43.0539 257.624 42.643 257.643 42.2244L257.666 41.7074H259.291ZM267.625 35.9091V37.3864H263.355V35.9091H267.625ZM264.324 34.2102H266.291V40.821C266.291 41.0026 266.318 41.1442 266.374 41.2457C266.429 41.3442 266.506 41.4135 266.605 41.4535C266.706 41.4935 266.823 41.5135 266.955 41.5135C267.048 41.5135 267.14 41.5058 267.232 41.4904C267.325 41.4719 267.396 41.4581 267.445 41.4489L267.754 42.9123C267.656 42.9431 267.517 42.9785 267.339 43.0185C267.16 43.0616 266.943 43.0877 266.688 43.0969C266.214 43.1154 265.798 43.0523 265.441 42.9077C265.087 42.763 264.812 42.5384 264.615 42.2337C264.418 41.929 264.321 41.5443 264.324 41.0795V34.2102ZM272.161 43.1385C271.432 43.1385 270.804 42.9908 270.278 42.6953C269.755 42.3968 269.351 41.9751 269.068 41.4304C268.785 40.8826 268.644 40.2347 268.644 39.4869C268.644 38.7575 268.785 38.1173 269.068 37.5664C269.351 37.0155 269.75 36.5862 270.264 36.2784C270.781 35.9706 271.387 35.8168 272.083 35.8168C272.551 35.8168 272.986 35.8922 273.389 36.043C273.795 36.1907 274.149 36.4138 274.451 36.7124C274.756 37.0109 274.993 37.3864 275.162 37.8388C275.331 38.2881 275.416 38.8144 275.416 39.4176V39.9577H269.428V38.739H273.565C273.565 38.4558 273.503 38.205 273.38 37.9865C273.257 37.768 273.086 37.5972 272.868 37.4741C272.652 37.3479 272.401 37.2848 272.115 37.2848C271.817 37.2848 271.552 37.354 271.321 37.4925C271.093 37.628 270.915 37.8111 270.786 38.0419C270.656 38.2696 270.59 38.5236 270.587 38.8036V39.9624C270.587 40.3132 270.652 40.6164 270.781 40.8718C270.913 41.1272 271.099 41.3242 271.34 41.4627C271.58 41.6012 271.864 41.6705 272.194 41.6705C272.412 41.6705 272.612 41.6397 272.794 41.5781C272.975 41.5166 273.131 41.4242 273.26 41.3011C273.389 41.178 273.488 41.0272 273.555 40.8487L275.374 40.9688C275.282 41.4058 275.093 41.7874 274.807 42.1136C274.523 42.4368 274.157 42.6892 273.708 42.8707C273.262 43.0492 272.746 43.1385 272.161 43.1385ZM282.699 37.9311L280.899 38.0419C280.868 37.888 280.802 37.7495 280.7 37.6264C280.599 37.5002 280.465 37.4002 280.299 37.3263C280.135 37.2494 279.94 37.2109 279.712 37.2109C279.408 37.2109 279.151 37.2756 278.941 37.4048C278.732 37.531 278.627 37.7003 278.627 37.9126C278.627 38.0819 278.695 38.225 278.831 38.342C278.966 38.4589 279.198 38.5528 279.528 38.6236L280.811 38.8821C281.5 39.0237 282.014 39.2514 282.353 39.5653C282.691 39.8793 282.861 40.2917 282.861 40.8026C282.861 41.2673 282.724 41.6751 282.45 42.0259C282.179 42.3768 281.807 42.6507 281.333 42.8477C280.862 43.0415 280.319 43.1385 279.703 43.1385C278.764 43.1385 278.016 42.9431 277.459 42.5522C276.905 42.1583 276.581 41.6228 276.485 40.9457L278.42 40.8441C278.478 41.1303 278.62 41.3488 278.844 41.4996C279.069 41.6474 279.357 41.7212 279.708 41.7212C280.052 41.7212 280.329 41.6551 280.539 41.5227C280.751 41.3873 280.859 41.2134 280.862 41.0011C280.859 40.8226 280.783 40.6764 280.636 40.5625C280.488 40.4455 280.26 40.3563 279.952 40.2947L278.724 40.0501C278.032 39.9116 277.516 39.6715 277.178 39.3299C276.842 38.9883 276.675 38.5528 276.675 38.0234C276.675 37.5679 276.798 37.1755 277.044 36.8462C277.293 36.5169 277.643 36.263 278.092 36.0845C278.544 35.906 279.074 35.8168 279.68 35.8168C280.576 35.8168 281.28 36.006 281.794 36.3846C282.311 36.7631 282.613 37.2786 282.699 37.9311ZM287.971 35.9091V37.3864H283.7V35.9091H287.971ZM284.67 34.2102H286.637V40.821C286.637 41.0026 286.664 41.1442 286.72 41.2457C286.775 41.3442 286.852 41.4135 286.95 41.4535C287.052 41.4935 287.169 41.5135 287.301 41.5135C287.394 41.5135 287.486 41.5058 287.578 41.4904C287.671 41.4719 287.741 41.4581 287.791 41.4489L288.1 42.9123C288.002 42.9431 287.863 42.9785 287.685 43.0185C287.506 43.0616 287.289 43.0877 287.034 43.0969C286.56 43.1154 286.144 43.0523 285.787 42.9077C285.433 42.763 285.158 42.5384 284.961 42.2337C284.764 41.929 284.667 41.5443 284.67 41.0795V34.2102ZM291.374 43.1339C290.921 43.1339 290.518 43.0554 290.164 42.8984C289.81 42.7384 289.53 42.503 289.324 42.1921C289.121 41.8782 289.019 41.4873 289.019 41.0195C289.019 40.6256 289.092 40.2947 289.236 40.027C289.381 39.7592 289.578 39.5438 289.827 39.3807C290.077 39.2176 290.36 39.0945 290.677 39.0114C290.997 38.9283 291.332 38.8698 291.683 38.8359C292.096 38.7929 292.428 38.7528 292.68 38.7159C292.933 38.6759 293.116 38.6174 293.23 38.5405C293.344 38.4635 293.4 38.3497 293.4 38.1989V38.1712C293.4 37.8788 293.308 37.6526 293.123 37.4925C292.942 37.3325 292.683 37.2525 292.348 37.2525C291.994 37.2525 291.712 37.331 291.503 37.4879C291.294 37.6418 291.155 37.8357 291.088 38.0696L289.269 37.9219C289.361 37.491 289.543 37.1186 289.813 36.8047C290.084 36.4877 290.434 36.2446 290.861 36.0753C291.292 35.9029 291.791 35.8168 292.357 35.8168C292.751 35.8168 293.128 35.8629 293.488 35.9553C293.851 36.0476 294.173 36.1907 294.453 36.3846C294.736 36.5785 294.959 36.8278 295.122 37.1325C295.285 37.4341 295.367 37.7957 295.367 38.2173V43H293.502V42.0167H293.447C293.333 42.2383 293.18 42.4337 292.99 42.603C292.799 42.7692 292.569 42.9 292.302 42.9954C292.034 43.0877 291.725 43.1339 291.374 43.1339ZM291.937 41.7766C292.226 41.7766 292.482 41.7197 292.703 41.6058C292.925 41.4889 293.099 41.3319 293.225 41.1349C293.351 40.938 293.414 40.7148 293.414 40.4656V39.7131C293.353 39.7531 293.268 39.79 293.16 39.8239C293.056 39.8546 292.937 39.8839 292.805 39.9116C292.673 39.9362 292.54 39.9593 292.408 39.9808C292.276 39.9993 292.156 40.0162 292.048 40.0316C291.817 40.0655 291.615 40.1193 291.443 40.1932C291.271 40.267 291.137 40.3671 291.041 40.4933C290.946 40.6164 290.898 40.7702 290.898 40.9549C290.898 41.2227 290.995 41.4273 291.189 41.5689C291.386 41.7074 291.635 41.7766 291.937 41.7766ZM299.606 43.1154C299.067 43.1154 298.579 42.9769 298.142 42.6999C297.708 42.4199 297.364 42.009 297.108 41.4673C296.856 40.9226 296.73 40.2547 296.73 39.4638C296.73 38.6513 296.86 37.9757 297.122 37.4371C297.384 36.8955 297.731 36.4908 298.165 36.223C298.602 35.9522 299.081 35.8168 299.601 35.8168C299.998 35.8168 300.329 35.8845 300.594 36.0199C300.861 36.1522 301.077 36.3184 301.24 36.5185C301.406 36.7154 301.532 36.9093 301.619 37.1001H301.679V33.5455H303.641V43H301.702V41.8643H301.619C301.526 42.0613 301.395 42.2567 301.226 42.4506C301.06 42.6415 300.843 42.8 300.575 42.9261C300.311 43.0523 299.987 43.1154 299.606 43.1154ZM300.229 41.5504C300.546 41.5504 300.814 41.4643 301.032 41.2919C301.254 41.1165 301.423 40.8718 301.54 40.5579C301.66 40.244 301.72 39.8762 301.72 39.4545C301.72 39.0329 301.662 38.6667 301.545 38.3558C301.428 38.045 301.258 37.8049 301.037 37.6357C300.815 37.4664 300.546 37.3817 300.229 37.3817C299.906 37.3817 299.633 37.4695 299.412 37.6449C299.19 37.8203 299.023 38.0634 298.909 38.3743C298.795 38.6851 298.738 39.0452 298.738 39.4545C298.738 39.867 298.795 40.2317 298.909 40.5487C299.026 40.8626 299.193 41.1088 299.412 41.2873C299.633 41.4627 299.906 41.5504 300.229 41.5504ZM308.561 43.1385C307.844 43.1385 307.224 42.9862 306.701 42.6815C306.181 42.3737 305.779 41.9459 305.496 41.3981C305.213 40.8472 305.071 40.2086 305.071 39.4822C305.071 38.7498 305.213 38.1096 305.496 37.5618C305.779 37.0109 306.181 36.5831 306.701 36.2784C307.224 35.9706 307.844 35.8168 308.561 35.8168C309.278 35.8168 309.897 35.9706 310.417 36.2784C310.94 36.5831 311.343 37.0109 311.627 37.5618C311.91 38.1096 312.051 38.7498 312.051 39.4822C312.051 40.2086 311.91 40.8472 311.627 41.3981C311.343 41.9459 310.94 42.3737 310.417 42.6815C309.897 42.9862 309.278 43.1385 308.561 43.1385ZM308.571 41.6151C308.897 41.6151 309.169 41.5227 309.388 41.3381C309.606 41.1503 309.771 40.8949 309.882 40.5717C309.995 40.2486 310.052 39.8808 310.052 39.4684C310.052 39.056 309.995 38.6882 309.882 38.3651C309.771 38.0419 309.606 37.7865 309.388 37.5987C309.169 37.411 308.897 37.3171 308.571 37.3171C308.241 37.3171 307.964 37.411 307.74 37.5987C307.518 37.7865 307.35 38.0419 307.236 38.3651C307.126 38.6882 307.07 39.056 307.07 39.4684C307.07 39.8808 307.126 40.2486 307.236 40.5717C307.35 40.8949 307.518 41.1503 307.74 41.3381C307.964 41.5227 308.241 41.6151 308.571 41.6151ZM319.33 37.9311L317.53 38.0419C317.499 37.888 317.433 37.7495 317.331 37.6264C317.229 37.5002 317.096 37.4002 316.929 37.3263C316.766 37.2494 316.571 37.2109 316.343 37.2109C316.038 37.2109 315.781 37.2756 315.572 37.4048C315.363 37.531 315.258 37.7003 315.258 37.9126C315.258 38.0819 315.326 38.225 315.461 38.342C315.597 38.4589 315.829 38.5528 316.158 38.6236L317.442 38.8821C318.131 39.0237 318.645 39.2514 318.984 39.5653C319.322 39.8793 319.492 40.2917 319.492 40.8026C319.492 41.2673 319.355 41.6751 319.081 42.0259C318.81 42.3768 318.437 42.6507 317.963 42.8477C317.493 43.0415 316.949 43.1385 316.334 43.1385C315.395 43.1385 314.647 42.9431 314.09 42.5522C313.536 42.1583 313.212 41.6228 313.116 40.9457L315.05 40.8441C315.109 41.1303 315.251 41.3488 315.475 41.4996C315.7 41.6474 315.988 41.7212 316.338 41.7212C316.683 41.7212 316.96 41.6551 317.169 41.5227C317.382 41.3873 317.49 41.2134 317.493 41.0011C317.49 40.8226 317.414 40.6764 317.266 40.5625C317.119 40.4455 316.891 40.3563 316.583 40.2947L315.355 40.0501C314.663 39.9116 314.147 39.6715 313.809 39.3299C313.473 38.9883 313.305 38.5528 313.305 38.0234C313.305 37.5679 313.429 37.1755 313.675 36.8462C313.924 36.5169 314.273 36.263 314.723 36.0845C315.175 35.906 315.704 35.8168 316.311 35.8168C317.206 35.8168 317.911 36.006 318.425 36.3846C318.942 36.7631 319.244 37.2786 319.33 37.9311ZM327.17 43.1385C326.441 43.1385 325.813 42.9908 325.287 42.6953C324.764 42.3968 324.36 41.9751 324.077 41.4304C323.794 40.8826 323.652 40.2347 323.652 39.4869C323.652 38.7575 323.794 38.1173 324.077 37.5664C324.36 37.0155 324.759 36.5862 325.273 36.2784C325.79 35.9706 326.396 35.8168 327.092 35.8168C327.56 35.8168 327.995 35.8922 328.398 36.043C328.804 36.1907 329.158 36.4138 329.46 36.7124C329.765 37.0109 330.002 37.3864 330.171 37.8388C330.34 38.2881 330.425 38.8144 330.425 39.4176V39.9577H324.437V38.739H328.574C328.574 38.4558 328.512 38.205 328.389 37.9865C328.266 37.768 328.095 37.5972 327.877 37.4741C327.661 37.3479 327.41 37.2848 327.124 37.2848C326.826 37.2848 326.561 37.354 326.33 37.4925C326.102 37.628 325.924 37.8111 325.795 38.0419C325.665 38.2696 325.599 38.5236 325.596 38.8036V39.9624C325.596 40.3132 325.661 40.6164 325.79 40.8718C325.922 41.1272 326.108 41.3242 326.349 41.4627C326.589 41.6012 326.873 41.6705 327.203 41.6705C327.421 41.6705 327.621 41.6397 327.803 41.5781C327.984 41.5166 328.14 41.4242 328.269 41.3011C328.398 41.178 328.497 41.0272 328.564 40.8487L330.383 40.9688C330.291 41.4058 330.102 41.7874 329.815 42.1136C329.532 42.4368 329.166 42.6892 328.717 42.8707C328.27 43.0492 327.755 43.1385 327.17 43.1385ZM334.917 45.6591V35.9091H336.856V37.1001H336.944C337.03 36.9093 337.154 36.7154 337.318 36.5185C337.484 36.3184 337.699 36.1522 337.964 36.0199C338.232 35.8845 338.564 35.8168 338.961 35.8168C339.478 35.8168 339.955 35.9522 340.392 36.223C340.829 36.4908 341.179 36.8955 341.44 37.4371C341.702 37.9757 341.833 38.6513 341.833 39.4638C341.833 40.2547 341.705 40.9226 341.449 41.4673C341.197 42.009 340.852 42.4199 340.415 42.6999C339.981 42.9769 339.495 43.1154 338.956 43.1154C338.575 43.1154 338.25 43.0523 337.982 42.9261C337.718 42.8 337.501 42.6415 337.331 42.4506C337.162 42.2567 337.033 42.0613 336.944 41.8643H336.884V45.6591H334.917ZM336.842 39.4545C336.842 39.8762 336.901 40.244 337.018 40.5579C337.134 40.8718 337.304 41.1165 337.525 41.2919C337.747 41.4643 338.016 41.5504 338.333 41.5504C338.653 41.5504 338.924 41.4627 339.146 41.2873C339.367 41.1088 339.535 40.8626 339.649 40.5487C339.766 40.2317 339.824 39.867 339.824 39.4545C339.824 39.0452 339.767 38.6851 339.654 38.3743C339.54 38.0634 339.372 37.8203 339.15 37.6449C338.929 37.4695 338.656 37.3817 338.333 37.3817C338.013 37.3817 337.742 37.4664 337.521 37.6357C337.302 37.8049 337.134 38.045 337.018 38.3558C336.901 38.6667 336.842 39.0329 336.842 39.4545ZM343.244 43V35.9091H345.15V37.1463H345.224C345.353 36.7062 345.57 36.3738 345.875 36.1491C346.18 35.9214 346.531 35.8075 346.928 35.8075C347.026 35.8075 347.132 35.8137 347.246 35.826C347.36 35.8383 347.46 35.8552 347.546 35.8768V37.6218C347.454 37.5941 347.326 37.5695 347.163 37.5479C347 37.5264 346.851 37.5156 346.715 37.5156C346.426 37.5156 346.167 37.5787 345.94 37.7049C345.715 37.828 345.536 38.0004 345.404 38.2219C345.275 38.4435 345.21 38.699 345.21 38.9883V43H343.244ZM351.537 43.1385C350.82 43.1385 350.199 42.9862 349.676 42.6815C349.156 42.3737 348.754 41.9459 348.471 41.3981C348.188 40.8472 348.047 40.2086 348.047 39.4822C348.047 38.7498 348.188 38.1096 348.471 37.5618C348.754 37.0109 349.156 36.5831 349.676 36.2784C350.199 35.9706 350.82 35.8168 351.537 35.8168C352.254 35.8168 352.872 35.9706 353.392 36.2784C353.916 36.5831 354.319 37.0109 354.602 37.5618C354.885 38.1096 355.027 38.7498 355.027 39.4822C355.027 40.2086 354.885 40.8472 354.602 41.3981C354.319 41.9459 353.916 42.3737 353.392 42.6815C352.872 42.9862 352.254 43.1385 351.537 43.1385ZM351.546 41.6151C351.872 41.6151 352.145 41.5227 352.363 41.3381C352.582 41.1503 352.746 40.8949 352.857 40.5717C352.971 40.2486 353.028 39.8808 353.028 39.4684C353.028 39.056 352.971 38.6882 352.857 38.3651C352.746 38.0419 352.582 37.7865 352.363 37.5987C352.145 37.411 351.872 37.3171 351.546 37.3171C351.217 37.3171 350.94 37.411 350.715 37.5987C350.493 37.7865 350.326 38.0419 350.212 38.3651C350.101 38.6882 350.046 39.056 350.046 39.4684C350.046 39.8808 350.101 40.2486 350.212 40.5717C350.326 40.8949 350.493 41.1503 350.715 41.3381C350.94 41.5227 351.217 41.6151 351.546 41.6151ZM358.372 38.9006V43H356.405V35.9091H358.28V37.1602H358.363C358.52 36.7478 358.783 36.4215 359.152 36.1815C359.522 35.9383 359.969 35.8168 360.496 35.8168C360.988 35.8168 361.417 35.9245 361.784 36.1399C362.15 36.3554 362.435 36.6631 362.638 37.0632C362.841 37.4602 362.942 37.9342 362.942 38.4851V43H360.976V38.8359C360.979 38.402 360.868 38.0634 360.643 37.8203C360.419 37.5741 360.109 37.451 359.716 37.451C359.451 37.451 359.217 37.5079 359.014 37.6218C358.814 37.7357 358.657 37.9019 358.543 38.1204C358.432 38.3358 358.375 38.5959 358.372 38.9006ZM368.364 35.9091V37.3864H364.094V35.9091H368.364ZM365.063 34.2102H367.03V40.821C367.03 41.0026 367.058 41.1442 367.113 41.2457C367.168 41.3442 367.245 41.4135 367.344 41.4535C367.445 41.4935 367.562 41.5135 367.695 41.5135C367.787 41.5135 367.879 41.5058 367.972 41.4904C368.064 41.4719 368.135 41.4581 368.184 41.4489L368.493 42.9123C368.395 42.9431 368.256 42.9785 368.078 43.0185C367.899 43.0616 367.682 43.0877 367.427 43.0969C366.953 43.1154 366.537 43.0523 366.18 42.9077C365.827 42.763 365.551 42.5384 365.354 42.2337C365.157 41.929 365.06 41.5443 365.063 41.0795V34.2102ZM372.873 43.1385C372.156 43.1385 371.536 42.9862 371.012 42.6815C370.492 42.3737 370.091 41.9459 369.807 41.3981C369.524 40.8472 369.383 40.2086 369.383 39.4822C369.383 38.7498 369.524 38.1096 369.807 37.5618C370.091 37.0109 370.492 36.5831 371.012 36.2784C371.536 35.9706 372.156 35.8168 372.873 35.8168C373.59 35.8168 374.209 35.9706 374.729 36.2784C375.252 36.5831 375.655 37.0109 375.938 37.5618C376.221 38.1096 376.363 38.7498 376.363 39.4822C376.363 40.2086 376.221 40.8472 375.938 41.3981C375.655 41.9459 375.252 42.3737 374.729 42.6815C374.209 42.9862 373.59 43.1385 372.873 43.1385ZM372.882 41.6151C373.208 41.6151 373.481 41.5227 373.699 41.3381C373.918 41.1503 374.082 40.8949 374.193 40.5717C374.307 40.2486 374.364 39.8808 374.364 39.4684C374.364 39.056 374.307 38.6882 374.193 38.3651C374.082 38.0419 373.918 37.7865 373.699 37.5987C373.481 37.411 373.208 37.3171 372.882 37.3171C372.553 37.3171 372.276 37.411 372.051 37.5987C371.829 37.7865 371.662 38.0419 371.548 38.3651C371.437 38.6882 371.382 39.056 371.382 39.4684C371.382 39.8808 371.437 40.2486 371.548 40.5717C371.662 40.8949 371.829 41.1503 372.051 41.3381C372.276 41.5227 372.553 41.6151 372.882 41.6151ZM383.642 37.9311L381.841 38.0419C381.81 37.888 381.744 37.7495 381.643 37.6264C381.541 37.5002 381.407 37.4002 381.241 37.3263C381.078 37.2494 380.882 37.2109 380.655 37.2109C380.35 37.2109 380.093 37.2756 379.884 37.4048C379.674 37.531 379.57 37.7003 379.57 37.9126C379.57 38.0819 379.637 38.225 379.773 38.342C379.908 38.4589 380.141 38.5528 380.47 38.6236L381.753 38.8821C382.443 39.0237 382.957 39.2514 383.295 39.5653C383.634 39.8793 383.803 40.2917 383.803 40.8026C383.803 41.2673 383.666 41.6751 383.392 42.0259C383.121 42.3768 382.749 42.6507 382.275 42.8477C381.804 43.0415 381.261 43.1385 380.645 43.1385C379.707 43.1385 378.959 42.9431 378.402 42.5522C377.848 42.1583 377.523 41.6228 377.428 40.9457L379.362 40.8441C379.421 41.1303 379.562 41.3488 379.787 41.4996C380.011 41.6474 380.299 41.7212 380.65 41.7212C380.995 41.7212 381.272 41.6551 381.481 41.5227C381.693 41.3873 381.801 41.2134 381.804 41.0011C381.801 40.8226 381.726 40.6764 381.578 40.5625C381.43 40.4455 381.202 40.3563 380.895 40.2947L379.667 40.0501C378.974 39.9116 378.459 39.6715 378.12 39.3299C377.785 38.9883 377.617 38.5528 377.617 38.0234C377.617 37.5679 377.74 37.1755 377.986 36.8462C378.236 36.5169 378.585 36.263 379.034 36.0845C379.487 35.906 380.016 35.8168 380.622 35.8168C381.518 35.8168 382.223 36.006 382.737 36.3846C383.254 36.7631 383.555 37.2786 383.642 37.9311ZM388.25 45.6591V35.9091H390.189V37.1001H390.277C390.363 36.9093 390.488 36.7154 390.651 36.5185C390.817 36.3184 391.032 36.1522 391.297 36.0199C391.565 35.8845 391.897 35.8168 392.294 35.8168C392.811 35.8168 393.288 35.9522 393.725 36.223C394.162 36.4908 394.512 36.8955 394.773 37.4371C395.035 37.9757 395.166 38.6513 395.166 39.4638C395.166 40.2547 395.038 40.9226 394.783 41.4673C394.53 42.009 394.185 42.4199 393.748 42.6999C393.315 42.9769 392.828 43.1154 392.29 43.1154C391.908 43.1154 391.583 43.0523 391.316 42.9261C391.051 42.8 390.834 42.6415 390.665 42.4506C390.495 42.2567 390.366 42.0613 390.277 41.8643H390.217V45.6591H388.25ZM390.175 39.4545C390.175 39.8762 390.234 40.244 390.351 40.5579C390.468 40.8718 390.637 41.1165 390.859 41.2919C391.08 41.4643 391.349 41.5504 391.666 41.5504C391.986 41.5504 392.257 41.4627 392.479 41.2873C392.701 41.1088 392.868 40.8626 392.982 40.5487C393.099 40.2317 393.158 39.867 393.158 39.4545C393.158 39.0452 393.101 38.6851 392.987 38.3743C392.873 38.0634 392.705 37.8203 392.484 37.6449C392.262 37.4695 391.99 37.3817 391.666 37.3817C391.346 37.3817 391.076 37.4664 390.854 37.6357C390.635 37.8049 390.468 38.045 390.351 38.3558C390.234 38.6667 390.175 39.0329 390.175 39.4545ZM398.599 43.1339C398.146 43.1339 397.743 43.0554 397.389 42.8984C397.035 42.7384 396.755 42.503 396.549 42.1921C396.346 41.8782 396.244 41.4873 396.244 41.0195C396.244 40.6256 396.317 40.2947 396.461 40.027C396.606 39.7592 396.803 39.5438 397.052 39.3807C397.302 39.2176 397.585 39.0945 397.902 39.0114C398.222 38.9283 398.557 38.8698 398.908 38.8359C399.321 38.7929 399.653 38.7528 399.905 38.7159C400.158 38.6759 400.341 38.6174 400.455 38.5405C400.569 38.4635 400.625 38.3497 400.625 38.1989V38.1712C400.625 37.8788 400.533 37.6526 400.348 37.4925C400.167 37.3325 399.908 37.2525 399.573 37.2525C399.219 37.2525 398.937 37.331 398.728 37.4879C398.519 37.6418 398.38 37.8357 398.313 38.0696L396.494 37.9219C396.586 37.491 396.768 37.1186 397.038 36.8047C397.309 36.4877 397.659 36.2446 398.086 36.0753C398.517 35.9029 399.016 35.8168 399.582 35.8168C399.976 35.8168 400.353 35.8629 400.713 35.9553C401.076 36.0476 401.398 36.1907 401.678 36.3846C401.961 36.5785 402.184 36.8278 402.347 37.1325C402.511 37.4341 402.592 37.7957 402.592 38.2173V43H400.727V42.0167H400.672C400.558 42.2383 400.405 42.4337 400.215 42.603C400.024 42.7692 399.794 42.9 399.527 42.9954C399.259 43.0877 398.95 43.1339 398.599 43.1339ZM399.162 41.7766C399.451 41.7766 399.707 41.7197 399.928 41.6058C400.15 41.4889 400.324 41.3319 400.45 41.1349C400.576 40.938 400.639 40.7148 400.639 40.4656V39.7131C400.578 39.7531 400.493 39.79 400.385 39.8239C400.281 39.8546 400.162 39.8839 400.03 39.9116C399.898 39.9362 399.765 39.9593 399.633 39.9808C399.501 39.9993 399.381 40.0162 399.273 40.0316C399.042 40.0655 398.84 40.1193 398.668 40.1932C398.496 40.267 398.362 40.3671 398.266 40.4933C398.171 40.6164 398.123 40.7702 398.123 40.9549C398.123 41.2227 398.22 41.4273 398.414 41.5689C398.611 41.7074 398.86 41.7766 399.162 41.7766ZM404.218 43V35.9091H406.124V37.1463H406.198C406.328 36.7062 406.545 36.3738 406.849 36.1491C407.154 35.9214 407.505 35.8075 407.902 35.8075C408 35.8075 408.106 35.8137 408.22 35.826C408.334 35.8383 408.434 35.8552 408.52 35.8768V37.6218C408.428 37.5941 408.3 37.5695 408.137 37.5479C407.974 37.5264 407.825 37.5156 407.689 37.5156C407.4 37.5156 407.142 37.5787 406.914 37.7049C406.689 37.828 406.511 38.0004 406.378 38.2219C406.249 38.4435 406.184 38.699 406.184 38.9883V43H404.218ZM411.456 43.1339C411.004 43.1339 410.6 43.0554 410.247 42.8984C409.893 42.7384 409.613 42.503 409.406 42.1921C409.203 41.8782 409.102 41.4873 409.102 41.0195C409.102 40.6256 409.174 40.2947 409.319 40.027C409.463 39.7592 409.66 39.5438 409.91 39.3807C410.159 39.2176 410.442 39.0945 410.759 39.0114C411.079 38.9283 411.415 38.8698 411.765 38.8359C412.178 38.7929 412.51 38.7528 412.763 38.7159C413.015 38.6759 413.198 38.6174 413.312 38.5405C413.426 38.4635 413.483 38.3497 413.483 38.1989V38.1712C413.483 37.8788 413.39 37.6526 413.206 37.4925C413.024 37.3325 412.766 37.2525 412.43 37.2525C412.076 37.2525 411.795 37.331 411.585 37.4879C411.376 37.6418 411.238 37.8357 411.17 38.0696L409.351 37.9219C409.443 37.491 409.625 37.1186 409.896 36.8047C410.167 36.4877 410.516 36.2446 410.944 36.0753C411.374 35.9029 411.873 35.8168 412.439 35.8168C412.833 35.8168 413.21 35.8629 413.57 35.9553C413.934 36.0476 414.255 36.1907 414.535 36.3846C414.818 36.5785 415.042 36.8278 415.205 37.1325C415.368 37.4341 415.449 37.7957 415.449 38.2173V43H413.584V42.0167H413.529C413.415 42.2383 413.263 42.4337 413.072 42.603C412.881 42.7692 412.652 42.9 412.384 42.9954C412.116 43.0877 411.807 43.1339 411.456 43.1339ZM412.019 41.7766C412.309 41.7766 412.564 41.7197 412.786 41.6058C413.007 41.4889 413.181 41.3319 413.307 41.1349C413.433 40.938 413.497 40.7148 413.497 40.4656V39.7131C413.435 39.7531 413.35 39.79 413.243 39.8239C413.138 39.8546 413.019 39.8839 412.887 39.9116C412.755 39.9362 412.622 39.9593 412.49 39.9808C412.358 39.9993 412.238 40.0162 412.13 40.0316C411.899 40.0655 411.698 40.1193 411.525 40.1932C411.353 40.267 411.219 40.3671 411.124 40.4933C411.028 40.6164 410.981 40.7702 410.981 40.9549C410.981 41.2227 411.077 41.4273 411.271 41.5689C411.468 41.7074 411.718 41.7766 412.019 41.7766ZM59.7848 58V50.9091H61.7514V58H59.7848ZM60.7727 49.995C60.4804 49.995 60.2295 49.8981 60.0202 49.7042C59.814 49.5072 59.7109 49.2718 59.7109 48.9979C59.7109 48.727 59.814 48.4947 60.0202 48.3008C60.2295 48.1038 60.4804 48.0053 60.7727 48.0053C61.0651 48.0053 61.3144 48.1038 61.5206 48.3008C61.7299 48.4947 61.8345 48.727 61.8345 48.9979C61.8345 49.2718 61.7299 49.5072 61.5206 49.7042C61.3144 49.8981 61.0651 49.995 60.7727 49.995ZM63.4268 58V50.9091H65.3011V52.1602H65.3842C65.5319 51.7447 65.7781 51.4169 66.1228 51.1768C66.4675 50.9368 66.8799 50.8168 67.36 50.8168C67.8463 50.8168 68.2602 50.9383 68.6019 51.1815C68.9435 51.4215 69.1712 51.7478 69.2851 52.1602H69.359C69.5036 51.7539 69.7652 51.4292 70.1438 51.1861C70.5254 50.9399 70.9763 50.8168 71.4964 50.8168C72.1581 50.8168 72.6951 51.0276 73.1075 51.4492C73.523 51.8678 73.7308 52.4618 73.7308 53.2312V58H71.7688V53.619C71.7688 53.225 71.6641 52.9296 71.4548 52.7326C71.2456 52.5356 70.984 52.4371 70.67 52.4371C70.313 52.4371 70.0345 52.551 69.8345 52.7788C69.6344 53.0034 69.5344 53.3004 69.5344 53.6697V58H67.6278V53.5774C67.6278 53.2296 67.5278 52.9527 67.3277 52.7464C67.1307 52.5402 66.8707 52.4371 66.5475 52.4371C66.329 52.4371 66.132 52.4925 65.9566 52.6033C65.7843 52.7111 65.6473 52.8634 65.5458 53.0604C65.4442 53.2543 65.3934 53.482 65.3934 53.7436V58H63.4268ZM75.3842 60.6591V50.9091H77.3231V52.1001H77.4108C77.497 51.9093 77.6217 51.7154 77.7848 51.5185C77.951 51.3184 78.1664 51.1522 78.4311 51.0199C78.6988 50.8845 79.0312 50.8168 79.4282 50.8168C79.9453 50.8168 80.4223 50.9522 80.8594 51.223C81.2964 51.4908 81.6457 51.8955 81.9073 52.4371C82.1689 52.9757 82.2997 53.6513 82.2997 54.4638C82.2997 55.2547 82.172 55.9226 81.9165 56.4673C81.6642 57.009 81.3195 57.4199 80.8824 57.6999C80.4485 57.9769 79.9622 58.1154 79.4236 58.1154C79.042 58.1154 78.7173 58.0523 78.4496 57.9261C78.1849 57.8 77.9679 57.6415 77.7986 57.4506C77.6294 57.2567 77.5001 57.0613 77.4108 56.8643H77.3508V60.6591H75.3842ZM77.3093 54.4545C77.3093 54.8762 77.3678 55.244 77.4847 55.5579C77.6017 55.8718 77.7709 56.1165 77.9925 56.2919C78.2141 56.4643 78.4834 56.5504 78.8004 56.5504C79.1205 56.5504 79.3913 56.4627 79.6129 56.2873C79.8345 56.1088 80.0022 55.8626 80.1161 55.5487C80.2331 55.2317 80.2915 54.867 80.2915 54.4545C80.2915 54.0452 80.2346 53.6851 80.1207 53.3743C80.0068 53.0634 79.8391 52.8203 79.6175 52.6449C79.3959 52.4695 79.1236 52.3817 78.8004 52.3817C78.4803 52.3817 78.2095 52.4664 77.9879 52.6357C77.7694 52.8049 77.6017 53.045 77.4847 53.3558C77.3678 53.6667 77.3093 54.0329 77.3093 54.4545ZM88.258 54.9808V50.9091H90.2246V58H88.3365V56.712H88.2626C88.1026 57.1275 87.8364 57.4614 87.464 57.7138C87.0947 57.9661 86.6438 58.0923 86.1113 58.0923C85.6374 58.0923 85.2204 57.9846 84.8603 57.7692C84.5002 57.5537 84.2186 57.2475 84.0155 56.8505C83.8154 56.4535 83.7139 55.978 83.7108 55.424V50.9091H85.6774V55.0732C85.6805 55.4917 85.7928 55.8226 86.0144 56.0657C86.236 56.3088 86.533 56.4304 86.9054 56.4304C87.1424 56.4304 87.3639 56.3765 87.5702 56.2688C87.7764 56.158 87.9425 55.9949 88.0687 55.7795C88.198 55.564 88.2611 55.2978 88.258 54.9808ZM93.8643 48.5455V58H91.8977V48.5455H93.8643ZM101.44 52.9311L99.6391 53.0419C99.6083 52.888 99.5422 52.7495 99.4406 52.6264C99.339 52.5002 99.2052 52.4002 99.039 52.3263C98.8759 52.2494 98.6804 52.2109 98.4527 52.2109C98.148 52.2109 97.891 52.2756 97.6817 52.4048C97.4724 52.531 97.3678 52.7003 97.3678 52.9126C97.3678 53.0819 97.4355 53.225 97.5709 53.342C97.7064 53.4589 97.9387 53.5528 98.268 53.6236L99.5514 53.8821C100.241 54.0237 100.755 54.2514 101.093 54.5653C101.432 54.8793 101.601 55.2917 101.601 55.8026C101.601 56.2673 101.464 56.6751 101.19 57.0259C100.919 57.3768 100.547 57.6507 100.073 57.8477C99.6022 58.0415 99.059 58.1385 98.4434 58.1385C97.5048 58.1385 96.7569 57.9431 96.1998 57.5522C95.6459 57.1583 95.3212 56.6228 95.2258 55.9457L97.1601 55.8441C97.2185 56.1303 97.3601 56.3488 97.5848 56.4996C97.8095 56.6474 98.0972 56.7212 98.4481 56.7212C98.7928 56.7212 99.0698 56.6551 99.279 56.5227C99.4914 56.3873 99.5991 56.2134 99.6022 56.0011C99.5991 55.8226 99.5237 55.6764 99.376 55.5625C99.2282 55.4455 99.0005 55.3563 98.6927 55.2947L97.4648 55.0501C96.7723 54.9116 96.2568 54.6715 95.9182 54.3299C95.5828 53.9883 95.415 53.5528 95.415 53.0234C95.415 52.5679 95.5381 52.1755 95.7844 51.8462C96.0336 51.5169 96.383 51.263 96.8323 51.0845C97.2847 50.906 97.8141 50.8168 98.4204 50.8168C99.316 50.8168 100.021 51.006 100.535 51.3846C101.052 51.7631 101.353 52.2786 101.44 52.9311ZM102.939 58V50.9091H104.906V58H102.939ZM103.927 49.995C103.635 49.995 103.384 49.8981 103.175 49.7042C102.969 49.5072 102.866 49.2718 102.866 48.9979C102.866 48.727 102.969 48.4947 103.175 48.3008C103.384 48.1038 103.635 48.0053 103.927 48.0053C104.22 48.0053 104.469 48.1038 104.675 48.3008C104.885 48.4947 104.989 48.727 104.989 48.9979C104.989 49.2718 104.885 49.5072 104.675 49.7042C104.469 49.8981 104.22 49.995 103.927 49.995ZM109.785 58.1385C109.068 58.1385 108.448 57.9862 107.925 57.6815C107.405 57.3737 107.003 56.9459 106.72 56.3981C106.437 55.8472 106.295 55.2086 106.295 54.4822C106.295 53.7498 106.437 53.1096 106.72 52.5618C107.003 52.0109 107.405 51.5831 107.925 51.2784C108.448 50.9706 109.068 50.8168 109.785 50.8168C110.502 50.8168 111.121 50.9706 111.641 51.2784C112.164 51.5831 112.568 52.0109 112.851 52.5618C113.134 53.1096 113.275 53.7498 113.275 54.4822C113.275 55.2086 113.134 55.8472 112.851 56.3981C112.568 56.9459 112.164 57.3737 111.641 57.6815C111.121 57.9862 110.502 58.1385 109.785 58.1385ZM109.795 56.6151C110.121 56.6151 110.393 56.5227 110.612 56.3381C110.83 56.1503 110.995 55.8949 111.106 55.5717C111.22 55.2486 111.276 54.8808 111.276 54.4684C111.276 54.056 111.22 53.6882 111.106 53.3651C110.995 53.0419 110.83 52.7865 110.612 52.5987C110.393 52.411 110.121 52.3171 109.795 52.3171C109.465 52.3171 109.188 52.411 108.964 52.5987C108.742 52.7865 108.574 53.0419 108.46 53.3651C108.35 53.6882 108.294 54.056 108.294 54.4684C108.294 54.8808 108.35 55.2486 108.46 55.5717C108.574 55.8949 108.742 56.1503 108.964 56.3381C109.188 56.5227 109.465 56.6151 109.795 56.6151ZM116.621 53.9006V58H114.654V50.9091H116.528V52.1602H116.612C116.768 51.7478 117.032 51.4215 117.401 51.1815C117.77 50.9383 118.218 50.8168 118.744 50.8168C119.237 50.8168 119.666 50.9245 120.032 51.1399C120.399 51.3554 120.683 51.6631 120.886 52.0632C121.09 52.4602 121.191 52.9342 121.191 53.4851V58H119.224V53.8359C119.228 53.402 119.117 53.0634 118.892 52.8203C118.667 52.5741 118.358 52.451 117.964 52.451C117.699 52.451 117.466 52.5079 117.262 52.6218C117.062 52.7357 116.905 52.9019 116.792 53.1204C116.681 53.3358 116.624 53.5959 116.621 53.9006ZM124.863 58.1339C124.411 58.1339 124.007 58.0554 123.654 57.8984C123.3 57.7384 123.02 57.503 122.813 57.1921C122.61 56.8782 122.509 56.4873 122.509 56.0195C122.509 55.6256 122.581 55.2947 122.726 55.027C122.87 54.7592 123.067 54.5438 123.317 54.3807C123.566 54.2176 123.849 54.0945 124.166 54.0114C124.486 53.9283 124.822 53.8698 125.172 53.8359C125.585 53.7929 125.917 53.7528 126.17 53.7159C126.422 53.6759 126.605 53.6174 126.719 53.5405C126.833 53.4635 126.89 53.3497 126.89 53.1989V53.1712C126.89 52.8788 126.797 52.6526 126.613 52.4925C126.431 52.3325 126.173 52.2525 125.837 52.2525C125.483 52.2525 125.202 52.331 124.992 52.4879C124.783 52.6418 124.645 52.8357 124.577 53.0696L122.758 52.9219C122.85 52.491 123.032 52.1186 123.303 51.8047C123.574 51.4877 123.923 51.2446 124.351 51.0753C124.782 50.9029 125.28 50.8168 125.846 50.8168C126.24 50.8168 126.617 50.8629 126.977 50.9553C127.341 51.0476 127.662 51.1907 127.942 51.3846C128.225 51.5785 128.449 51.8278 128.612 52.1325C128.775 52.4341 128.856 52.7957 128.856 53.2173V58H126.991V57.0167H126.936C126.822 57.2383 126.67 57.4337 126.479 57.603C126.288 57.7692 126.059 57.9 125.791 57.9954C125.523 58.0877 125.214 58.1339 124.863 58.1339ZM125.426 56.7766C125.716 56.7766 125.971 56.7197 126.193 56.6058C126.414 56.4889 126.588 56.3319 126.714 56.1349C126.84 55.938 126.904 55.7148 126.904 55.4656V54.7131C126.842 54.7531 126.757 54.79 126.65 54.8239C126.545 54.8546 126.427 54.8839 126.294 54.9116C126.162 54.9362 126.029 54.9593 125.897 54.9808C125.765 54.9993 125.645 55.0162 125.537 55.0316C125.306 55.0655 125.105 55.1193 124.932 55.1932C124.76 55.267 124.626 55.3671 124.531 55.4933C124.435 55.6164 124.388 55.7702 124.388 55.9549C124.388 56.2227 124.485 56.4273 124.678 56.5689C124.875 56.7074 125.125 56.7766 125.426 56.7766ZM130.482 58V50.9091H132.389V52.1463H132.463C132.592 51.7062 132.809 51.3738 133.113 51.1491C133.418 50.9214 133.769 50.8075 134.166 50.8075C134.265 50.8075 134.371 50.8137 134.485 50.826C134.598 50.8383 134.698 50.8552 134.785 50.8768V52.6218C134.692 52.5941 134.565 52.5695 134.401 52.5479C134.238 52.5264 134.089 52.5156 133.954 52.5156C133.664 52.5156 133.406 52.5787 133.178 52.7049C132.953 52.828 132.775 53.0004 132.643 53.2219C132.513 53.4435 132.449 53.699 132.449 53.9883V58H130.482ZM144.91 52.9311L143.11 53.0419C143.079 52.888 143.013 52.7495 142.911 52.6264C142.81 52.5002 142.676 52.4002 142.509 52.3263C142.346 52.2494 142.151 52.2109 141.923 52.2109C141.618 52.2109 141.362 52.2756 141.152 52.4048C140.943 52.531 140.838 52.7003 140.838 52.9126C140.838 53.0819 140.906 53.225 141.041 53.342C141.177 53.4589 141.409 53.5528 141.739 53.6236L143.022 53.8821C143.711 54.0237 144.225 54.2514 144.564 54.5653C144.902 54.8793 145.072 55.2917 145.072 55.8026C145.072 56.2673 144.935 56.6751 144.661 57.0259C144.39 57.3768 144.018 57.6507 143.544 57.8477C143.073 58.0415 142.529 58.1385 141.914 58.1385C140.975 58.1385 140.227 57.9431 139.67 57.5522C139.116 57.1583 138.792 56.6228 138.696 55.9457L140.631 55.8441C140.689 56.1303 140.831 56.3488 141.055 56.4996C141.28 56.6474 141.568 56.7212 141.919 56.7212C142.263 56.7212 142.54 56.6551 142.75 56.5227C142.962 56.3873 143.07 56.2134 143.073 56.0011C143.07 55.8226 142.994 55.6764 142.846 55.5625C142.699 55.4455 142.471 55.3563 142.163 55.2947L140.935 55.0501C140.243 54.9116 139.727 54.6715 139.389 54.3299C139.053 53.9883 138.886 53.5528 138.886 53.0234C138.886 52.5679 139.009 52.1755 139.255 51.8462C139.504 51.5169 139.853 51.263 140.303 51.0845C140.755 50.906 141.285 50.8168 141.891 50.8168C142.786 50.8168 143.491 51.006 144.005 51.3846C144.522 51.7631 144.824 52.2786 144.91 52.9311ZM149.642 58.1385C148.912 58.1385 148.284 57.9908 147.758 57.6953C147.235 57.3968 146.832 56.9751 146.548 56.4304C146.265 55.8826 146.124 55.2347 146.124 54.4869C146.124 53.7575 146.265 53.1173 146.548 52.5664C146.832 52.0155 147.23 51.5862 147.744 51.2784C148.261 50.9706 148.868 50.8168 149.563 50.8168C150.031 50.8168 150.466 50.8922 150.87 51.043C151.276 51.1907 151.63 51.4138 151.931 51.7124C152.236 52.0109 152.473 52.3864 152.642 52.8388C152.812 53.2881 152.896 53.8144 152.896 54.4176V54.9577H146.909V53.739H151.045C151.045 53.4558 150.983 53.205 150.86 52.9865C150.737 52.768 150.566 52.5972 150.348 52.4741C150.132 52.3479 149.882 52.2848 149.595 52.2848C149.297 52.2848 149.032 52.354 148.801 52.4925C148.574 52.628 148.395 52.8111 148.266 53.0419C148.137 53.2696 148.07 53.5236 148.067 53.8036V54.9624C148.067 55.3132 148.132 55.6164 148.261 55.8718C148.394 56.1272 148.58 56.3242 148.82 56.4627C149.06 56.6012 149.345 56.6705 149.674 56.6705C149.892 56.6705 150.092 56.6397 150.274 56.5781C150.456 56.5166 150.611 56.4242 150.74 56.3011C150.87 56.178 150.968 56.0272 151.036 55.8487L152.855 55.9688C152.762 56.4058 152.573 56.7874 152.287 57.1136C152.004 57.4368 151.637 57.6892 151.188 57.8707C150.742 58.0492 150.226 58.1385 149.642 58.1385ZM158.827 54.9808V50.9091H160.793V58H158.905V56.712H158.831C158.671 57.1275 158.405 57.4614 158.033 57.7138C157.663 57.9661 157.213 58.0923 156.68 58.0923C156.206 58.0923 155.789 57.9846 155.429 57.7692C155.069 57.5537 154.787 57.2475 154.584 56.8505C154.384 56.4535 154.283 55.978 154.28 55.424V50.9091H156.246V55.0732C156.249 55.4917 156.362 55.8226 156.583 56.0657C156.805 56.3088 157.102 56.4304 157.474 56.4304C157.711 56.4304 157.933 56.3765 158.139 56.2688C158.345 56.158 158.511 55.9949 158.637 55.7795C158.767 55.564 158.83 55.2978 158.827 54.9808ZM167.542 53.9006V58H165.575V50.9091H167.45V52.1602H167.533C167.69 51.7478 167.953 51.4215 168.322 51.1815C168.691 50.9383 169.139 50.8168 169.665 50.8168C170.158 50.8168 170.587 50.9245 170.953 51.1399C171.32 51.3554 171.604 51.6631 171.807 52.0632C172.011 52.4602 172.112 52.9342 172.112 53.4851V58H170.146V53.8359C170.149 53.402 170.038 53.0634 169.813 52.8203C169.588 52.5741 169.279 52.451 168.885 52.451C168.621 52.451 168.387 52.5079 168.184 52.6218C167.983 52.7357 167.827 52.9019 167.713 53.1204C167.602 53.3358 167.545 53.5959 167.542 53.9006ZM176.994 58.1385C176.264 58.1385 175.636 57.9908 175.11 57.6953C174.587 57.3968 174.184 56.9751 173.901 56.4304C173.617 55.8826 173.476 55.2347 173.476 54.4869C173.476 53.7575 173.617 53.1173 173.901 52.5664C174.184 52.0155 174.582 51.5862 175.096 51.2784C175.613 50.9706 176.22 50.8168 176.915 50.8168C177.383 50.8168 177.818 50.8922 178.222 51.043C178.628 51.1907 178.982 51.4138 179.283 51.7124C179.588 52.0109 179.825 52.3864 179.994 52.8388C180.164 53.2881 180.248 53.8144 180.248 54.4176V54.9577H174.261V53.739H178.397C178.397 53.4558 178.336 53.205 178.212 52.9865C178.089 52.768 177.919 52.5972 177.7 52.4741C177.485 52.3479 177.234 52.2848 176.948 52.2848C176.649 52.2848 176.384 52.354 176.153 52.4925C175.926 52.628 175.747 52.8111 175.618 53.0419C175.489 53.2696 175.423 53.5236 175.419 53.8036V54.9624C175.419 55.3132 175.484 55.6164 175.613 55.8718C175.746 56.1272 175.932 56.3242 176.172 56.4627C176.412 56.6012 176.697 56.6705 177.026 56.6705C177.245 56.6705 177.445 56.6397 177.626 56.5781C177.808 56.5166 177.963 56.4242 178.092 56.3011C178.222 56.178 178.32 56.0272 178.388 55.8487L180.207 55.9688C180.114 56.4058 179.925 56.7874 179.639 57.1136C179.356 57.4368 178.99 57.6892 178.54 57.8707C178.094 58.0492 177.578 58.1385 176.994 58.1385ZM184.826 60.8068C184.189 60.8068 183.643 60.7191 183.187 60.5437C182.735 60.3713 182.375 60.1359 182.107 59.8374C181.839 59.5388 181.666 59.2034 181.586 58.831L183.404 58.5863C183.46 58.7279 183.548 58.8602 183.668 58.9833C183.788 59.1064 183.946 59.2049 184.143 59.2788C184.343 59.3557 184.586 59.3942 184.872 59.3942C185.3 59.3942 185.653 59.2895 185.93 59.0803C186.21 58.8741 186.35 58.5278 186.35 58.0415V56.7443H186.267C186.18 56.9413 186.051 57.1275 185.879 57.3029C185.706 57.4783 185.485 57.6214 185.214 57.7322C184.943 57.843 184.62 57.8984 184.245 57.8984C183.712 57.8984 183.227 57.7753 182.79 57.5291C182.356 57.2798 182.01 56.8997 181.752 56.3888C181.496 55.8749 181.369 55.2255 181.369 54.4407C181.369 53.6374 181.499 52.9665 181.761 52.4279C182.023 51.8893 182.37 51.4862 182.804 51.2184C183.241 50.9506 183.72 50.8168 184.24 50.8168C184.637 50.8168 184.969 50.8845 185.237 51.0199C185.505 51.1522 185.72 51.3184 185.883 51.5185C186.05 51.7154 186.177 51.9093 186.267 52.1001H186.34V50.9091H188.293V58.0692C188.293 58.6725 188.146 59.1772 187.85 59.5835C187.555 59.9897 187.145 60.2944 186.622 60.4975C186.102 60.7037 185.503 60.8068 184.826 60.8068ZM184.868 56.4212C185.185 56.4212 185.453 56.3427 185.671 56.1857C185.893 56.0257 186.062 55.7979 186.179 55.5025C186.299 55.204 186.359 54.8469 186.359 54.4315C186.359 54.016 186.3 53.6559 186.184 53.3512C186.067 53.0434 185.897 52.8049 185.676 52.6357C185.454 52.4664 185.185 52.3817 184.868 52.3817C184.545 52.3817 184.272 52.4695 184.051 52.6449C183.829 52.8172 183.661 53.0573 183.548 53.3651C183.434 53.6728 183.377 54.0283 183.377 54.4315C183.377 54.8408 183.434 55.1947 183.548 55.4933C183.664 55.7887 183.832 56.018 184.051 56.1811C184.272 56.3411 184.545 56.4212 184.868 56.4212ZM193.162 58.1385C192.445 58.1385 191.825 57.9862 191.302 57.6815C190.782 57.3737 190.38 56.9459 190.097 56.3981C189.814 55.8472 189.672 55.2086 189.672 54.4822C189.672 53.7498 189.814 53.1096 190.097 52.5618C190.38 52.0109 190.782 51.5831 191.302 51.2784C191.825 50.9706 192.445 50.8168 193.162 50.8168C193.879 50.8168 194.498 50.9706 195.018 51.2784C195.541 51.5831 195.944 52.0109 196.227 52.5618C196.511 53.1096 196.652 53.7498 196.652 54.4822C196.652 55.2086 196.511 55.8472 196.227 56.3981C195.944 56.9459 195.541 57.3737 195.018 57.6815C194.498 57.9862 193.879 58.1385 193.162 58.1385ZM193.171 56.6151C193.498 56.6151 193.77 56.5227 193.988 56.3381C194.207 56.1503 194.372 55.8949 194.482 55.5717C194.596 55.2486 194.653 54.8808 194.653 54.4684C194.653 54.056 194.596 53.6882 194.482 53.3651C194.372 53.0419 194.207 52.7865 193.988 52.5987C193.77 52.411 193.498 52.3171 193.171 52.3171C192.842 52.3171 192.565 52.411 192.34 52.5987C192.119 52.7865 191.951 53.0419 191.837 53.3651C191.726 53.6882 191.671 54.056 191.671 54.4684C191.671 54.8808 191.726 55.2486 191.837 55.5717C191.951 55.8949 192.119 56.1503 192.34 56.3381C192.565 56.5227 192.842 56.6151 193.171 56.6151ZM192.456 49.995L193.434 47.8945H195.253L193.845 49.995H192.456ZM201.235 58.1385C200.508 58.1385 199.884 57.9846 199.36 57.6768C198.84 57.366 198.44 56.9351 198.16 56.3842C197.883 55.8333 197.745 55.1993 197.745 54.4822C197.745 53.7559 197.885 53.1188 198.165 52.571C198.448 52.0201 198.85 51.5908 199.37 51.283C199.89 50.9722 200.508 50.8168 201.225 50.8168C201.844 50.8168 202.386 50.9291 202.85 51.1538C203.315 51.3784 203.683 51.6939 203.954 52.1001C204.225 52.5064 204.374 52.9834 204.402 53.5312H202.546C202.493 53.1773 202.355 52.8926 202.13 52.6772C201.909 52.4587 201.618 52.3494 201.258 52.3494C200.953 52.3494 200.687 52.4325 200.459 52.5987C200.234 52.7618 200.059 53.0004 199.933 53.3143C199.807 53.6282 199.744 54.0083 199.744 54.4545C199.744 54.907 199.805 55.2917 199.928 55.6087C200.054 55.9257 200.231 56.1673 200.459 56.3335C200.687 56.4996 200.953 56.5827 201.258 56.5827C201.482 56.5827 201.684 56.5366 201.863 56.4442C202.044 56.3519 202.193 56.218 202.31 56.0426C202.43 55.8641 202.509 55.6502 202.546 55.4009H204.402C204.371 55.9426 204.223 56.4196 203.958 56.832C203.697 57.2414 203.335 57.5614 202.874 57.7923C202.412 58.0231 201.866 58.1385 201.235 58.1385ZM205.761 58V50.9091H207.727V58H205.761ZM206.749 49.995C206.456 49.995 206.206 49.8981 205.996 49.7042C205.79 49.5072 205.687 49.2718 205.687 48.9979C205.687 48.727 205.79 48.4947 205.996 48.3008C206.206 48.1038 206.456 48.0053 206.749 48.0053C207.041 48.0053 207.29 48.1038 207.497 48.3008C207.706 48.4947 207.81 48.727 207.81 48.9979C207.81 49.2718 207.706 49.5072 207.497 49.7042C207.29 49.8981 207.041 49.995 206.749 49.995ZM212.607 58.1385C211.89 58.1385 211.269 57.9862 210.746 57.6815C210.226 57.3737 209.824 56.9459 209.541 56.3981C209.258 55.8472 209.117 55.2086 209.117 54.4822C209.117 53.7498 209.258 53.1096 209.541 52.5618C209.824 52.0109 210.226 51.5831 210.746 51.2784C211.269 50.9706 211.89 50.8168 212.607 50.8168C213.324 50.8168 213.942 50.9706 214.462 51.2784C214.986 51.5831 215.389 52.0109 215.672 52.5618C215.955 53.1096 216.097 53.7498 216.097 54.4822C216.097 55.2086 215.955 55.8472 215.672 56.3981C215.389 56.9459 214.986 57.3737 214.462 57.6815C213.942 57.9862 213.324 58.1385 212.607 58.1385ZM212.616 56.6151C212.942 56.6151 213.214 56.5227 213.433 56.3381C213.651 56.1503 213.816 55.8949 213.927 55.5717C214.041 55.2486 214.098 54.8808 214.098 54.4684C214.098 54.056 214.041 53.6882 213.927 53.3651C213.816 53.0419 213.651 52.7865 213.433 52.5987C213.214 52.411 212.942 52.3171 212.616 52.3171C212.287 52.3171 212.01 52.411 211.785 52.5987C211.563 52.7865 211.396 53.0419 211.282 53.3651C211.171 53.6882 211.115 54.056 211.115 54.4684C211.115 54.8808 211.171 55.2486 211.282 55.5717C211.396 55.8949 211.563 56.1503 211.785 56.3381C212.01 56.5227 212.287 56.6151 212.616 56.6151ZM218.625 58.12C218.32 58.12 218.059 58.0123 217.84 57.7969C217.625 57.5784 217.517 57.3168 217.517 57.0121C217.517 56.7105 217.625 56.4519 217.84 56.2365C218.059 56.0211 218.32 55.9134 218.625 55.9134C218.92 55.9134 219.179 56.0211 219.401 56.2365C219.622 56.4519 219.733 56.7105 219.733 57.0121C219.733 57.2152 219.681 57.4014 219.576 57.5707C219.474 57.7369 219.34 57.8707 219.174 57.9723C219.008 58.0708 218.825 58.12 218.625 58.12Z" fill="#134967"/>
</g>
<path fill-rule="evenodd" clip-rule="evenodd" d="M20.354 29.7188H28.8952C29.1435 29.7188 29.3447 29.92 29.3447 30.1683V38.7095C29.3447 38.9578 29.1435 39.159 28.8952 39.159H20.354C20.1057 39.159 19.9045 38.9578 19.9045 38.7095V30.1683C19.9045 29.92 20.1057 29.7188 20.354 29.7188ZM36.2089 29.007L41.2948 34.0929C41.4704 34.2685 41.4704 34.5531 41.2948 34.7287L36.2089 39.8146C36.0334 39.9901 35.7488 39.9901 35.5732 39.8146L30.4873 34.7286C30.3117 34.5531 30.3117 34.2685 30.4873 34.0929L35.5732 29.007C35.7488 28.8315 36.0334 28.8315 36.2089 29.007ZM20.354 40.9571H28.8952C29.1435 40.9571 29.3447 41.1584 29.3447 41.4067V49.9478C29.3447 50.1961 29.1435 50.3974 28.8952 50.3974H20.354C20.1057 50.3974 19.9045 50.1961 19.9045 49.9478V41.4067C19.9045 41.1584 20.1057 40.9571 20.354 40.9571ZM31.5924 40.9571H40.1335C40.3818 40.9571 40.5831 41.1584 40.5831 41.4067V49.9478C40.5831 50.1961 40.3818 50.3974 40.1335 50.3974H31.5924C31.3441 50.3974 31.1429 50.1961 31.1429 49.9478V41.4067C31.1429 41.1584 31.3441 40.9571 31.5924 40.9571Z" fill="#134967"/>
<defs>
<filter id="filter0_dd_43_53" x="0" y="0" width="500" height="89" filterUnits="userSpaceOnUse" color-interpolation-filters="sRGB">
<feFlood flood-opacity="0" result="BackgroundImageFix"/>
<feColorMatrix in="SourceAlpha" type="matrix" values="0 0 0 0 0 0 0 0 0 0 0 0 0 0 0 0 0 0 127 0" result="hardAlpha"/>
<feOffset dy="4"/>
<feComposite in2="hardAlpha" operator="out"/>
<feColorMatrix type="matrix" values="0 0 0 0 0 0 0 0 0 0 0 0 0 0 0 0 0 0 0.04 0"/>
<feBlend mode="normal" in2="BackgroundImageFix" result="effect1_dropShadow_43_53"/>
<feColorMatrix in="SourceAlpha" type="matrix" values="0 0 0 0 0 0 0 0 0 0 0 0 0 0 0 0 0 0 127 0" result="hardAlpha"/>
<feOffset dy="4"/>
<feComposite in2="hardAlpha" operator="out"/>
<feColorMatrix type="matrix" values="0 0 0 0 0 0 0 0 0 0 0 0 0 0 0 0 0 0 0.04 0"/>
<feBlend mode="normal" in2="effect1_dropShadow_43_53" result="effect2_dropShadow_43_53"/>
<feBlend mode="normal" in="SourceGraphic" in2="effect2_dropShadow_43_53" result="shape"/>
</filter>
<clipPath id="clip0_43_53">
<rect width="358" height="30" fill="white" transform="translate(59 31)"/>
</clipPath>
</defs>
</svg>
