<svg width="500" height="89" viewBox="0 0 500 89" fill="none" xmlns="http://www.w3.org/2000/svg">
<g filter="url(#filter0_dd_11_137)">
<rect width="500" height="85" rx="15" fill="white"/>
</g>
<g clip-path="url(#clip0_11_137)">
<path d="M58.9476 36.7464C58.9079 36.3454 58.7372 36.0339 58.4356 35.8118C58.1339 35.5897 57.7246 35.4787 57.2076 35.4787C56.8562 35.4787 56.5596 35.5284 56.3177 35.6278C56.0757 35.724 55.8901 35.8582 55.7608 36.0305C55.6349 36.2029 55.5719 36.3984 55.5719 36.6172C55.5653 36.7995 55.6034 36.9586 55.6863 37.0945C55.7724 37.2304 55.8901 37.348 56.0392 37.4474C56.1884 37.5436 56.3607 37.6281 56.5563 37.701C56.7518 37.7706 56.9606 37.8303 57.1827 37.88L58.0975 38.0987C58.5416 38.1982 58.9493 38.3307 59.3205 38.4964C59.6917 38.6622 60.0132 38.866 60.285 39.108C60.5568 39.3499 60.7672 39.6349 60.9164 39.9631C61.0688 40.2912 61.1467 40.6674 61.15 41.0916C61.1467 41.7147 60.9876 42.255 60.6728 42.7124C60.3612 43.1664 59.9105 43.5194 59.3205 43.7713C58.7338 44.0199 58.0262 44.1442 57.1976 44.1442C56.3757 44.1442 55.6597 44.0182 55.0499 43.7663C54.4434 43.5144 53.9694 43.1416 53.628 42.6477C53.29 42.1506 53.1126 41.5357 53.0961 40.8033H55.1792C55.2024 41.1446 55.3001 41.4297 55.4725 41.6584C55.6481 41.8838 55.8818 42.0545 56.1735 42.1705C56.4685 42.2831 56.8016 42.3395 57.1728 42.3395C57.5374 42.3395 57.8539 42.2865 58.1223 42.1804C58.3941 42.0743 58.6046 41.9268 58.7537 41.7379C58.9029 41.549 58.9775 41.3319 58.9775 41.0866C58.9775 40.858 58.9095 40.6657 58.7736 40.5099C58.641 40.3542 58.4455 40.2216 58.187 40.1122C57.9318 40.0028 57.6186 39.9034 57.2473 39.8139L56.1387 39.5355C55.2802 39.3267 54.6025 39.0002 54.1053 38.5561C53.6081 38.112 53.3612 37.5137 53.3645 36.7614C53.3612 36.1449 53.5253 35.6063 53.8567 35.1456C54.1915 34.6849 54.6505 34.3253 55.2338 34.0668C55.8172 33.8082 56.4801 33.679 57.2225 33.679C57.9782 33.679 58.6377 33.8082 59.2012 34.0668C59.7679 34.3253 60.2088 34.6849 60.5236 35.1456C60.8385 35.6063 61.0009 36.1399 61.0108 36.7464H58.9476ZM66.1085 44.1491C65.3363 44.1491 64.6684 43.9851 64.105 43.657C63.5448 43.3255 63.1123 42.8648 62.8074 42.2749C62.5025 41.6816 62.35 40.9938 62.35 40.2116C62.35 39.4228 62.5025 38.7334 62.8074 38.1435C63.1123 37.5502 63.5448 37.0895 64.105 36.7614C64.6684 36.4299 65.3363 36.2642 66.1085 36.2642C66.8808 36.2642 67.547 36.4299 68.1071 36.7614C68.6706 37.0895 69.1047 37.5502 69.4097 38.1435C69.7146 38.7334 69.8671 39.4228 69.8671 40.2116C69.8671 40.9938 69.7146 41.6816 69.4097 42.2749C69.1047 42.8648 68.6706 43.3255 68.1071 43.657C67.547 43.9851 66.8808 44.1491 66.1085 44.1491ZM66.1185 42.5085C66.4698 42.5085 66.7631 42.4091 66.9984 42.2102C67.2338 42.008 67.4111 41.733 67.5304 41.3849C67.653 41.0369 67.7144 40.6409 67.7144 40.1967C67.7144 39.7526 67.653 39.3565 67.5304 39.0085C67.4111 38.6605 67.2338 38.3854 66.9984 38.1832C66.7631 37.9811 66.4698 37.88 66.1185 37.88C65.7638 37.88 65.4655 37.9811 65.2236 38.1832C64.9849 38.3854 64.8043 38.6605 64.6817 39.0085C64.5624 39.3565 64.5027 39.7526 64.5027 40.1967C64.5027 40.6409 64.5624 41.0369 64.6817 41.3849C64.8043 41.733 64.9849 42.008 65.2236 42.2102C65.4655 42.4091 65.7638 42.5085 66.1185 42.5085ZM73.4621 33.8182V44H71.3442V33.8182H73.4621ZM80.1557 40.7486V36.3636H82.2735V44H80.2402V42.6129H80.1606C79.9883 43.0604 79.7016 43.42 79.3005 43.6918C78.9028 43.9635 78.4173 44.0994 77.8439 44.0994C77.3334 44.0994 76.8843 43.9834 76.4966 43.7514C76.1088 43.5194 75.8055 43.1896 75.5868 42.7621C75.3713 42.3345 75.2619 41.8224 75.2586 41.2259V36.3636H77.3765V40.848C77.3798 41.2988 77.5008 41.6551 77.7395 41.9169C77.9781 42.1787 78.2979 42.3097 78.699 42.3097C78.9542 42.3097 79.1928 42.2517 79.4149 42.1357C79.6369 42.0163 79.8159 41.8407 79.9518 41.6087C80.091 41.3767 80.159 41.09 80.1557 40.7486ZM87.5179 44.1491C86.7357 44.1491 86.0629 43.9834 85.4994 43.652C84.9393 43.3172 84.5084 42.8532 84.2068 42.2599C83.9085 41.6667 83.7594 40.9839 83.7594 40.2116C83.7594 39.4295 83.9102 38.7434 84.2118 38.1534C84.5167 37.5601 84.9492 37.0978 85.5094 36.7663C86.0695 36.4316 86.7357 36.2642 87.508 36.2642C88.1742 36.2642 88.7575 36.3852 89.258 36.6271C89.7584 36.8691 90.1545 37.2088 90.4462 37.6463C90.7378 38.0838 90.8986 38.5975 90.9284 39.1875H88.9298C88.8735 38.8063 88.7243 38.4998 88.4824 38.2678C88.2438 38.0324 87.9305 37.9148 87.5428 37.9148C87.2146 37.9148 86.9279 38.0043 86.6827 38.1832C86.4407 38.3589 86.2518 38.6158 86.1159 38.9538C85.98 39.2919 85.9121 39.7012 85.9121 40.1818C85.9121 40.669 85.9784 41.0833 86.1109 41.4247C86.2468 41.7661 86.4374 42.0263 86.6827 42.2053C86.9279 42.3842 87.2146 42.4737 87.5428 42.4737C87.7847 42.4737 88.0018 42.424 88.194 42.3246C88.3896 42.2251 88.5503 42.081 88.6763 41.892C88.8055 41.6998 88.8901 41.4695 88.9298 41.201H90.9284C90.8953 41.7843 90.7362 42.2981 90.4511 42.7422C90.1694 43.183 89.78 43.5277 89.2828 43.7763C88.7857 44.0249 88.1974 44.1491 87.5179 44.1491ZM87.0207 43.9602H87.9952L87.9156 44.3928C88.257 44.4458 88.5354 44.5734 88.7509 44.7756C88.9696 44.9777 89.0806 45.2528 89.084 45.6009C89.0873 46.0947 88.8586 46.4875 88.3979 46.7791C87.9372 47.0741 87.2909 47.2216 86.459 47.2216L86.4391 46.277C86.8567 46.277 87.1831 46.2256 87.4185 46.1229C87.6571 46.0234 87.7814 45.8677 87.7913 45.6555C87.798 45.4534 87.7201 45.2992 87.5577 45.1932C87.3953 45.0871 87.1417 45.0125 86.797 44.9695L87.0207 43.9602ZM95.8347 44.1491C95.0624 44.1491 94.3946 43.9851 93.8311 43.657C93.271 43.3255 92.8385 42.8648 92.5336 42.2749C92.2286 41.6816 92.0762 40.9938 92.0762 40.2116C92.0762 39.4228 92.2286 38.7334 92.5336 38.1435C92.8385 37.5502 93.271 37.0895 93.8311 36.7614C94.3946 36.4299 95.0624 36.2642 95.8347 36.2642C96.607 36.2642 97.2731 36.4299 97.8333 36.7614C98.3967 37.0895 98.8309 37.5502 99.1358 38.1435C99.4408 38.7334 99.5932 39.4228 99.5932 40.2116C99.5932 40.9938 99.4408 41.6816 99.1358 42.2749C98.8309 42.8648 98.3967 43.3255 97.8333 43.657C97.2731 43.9851 96.607 44.1491 95.8347 44.1491ZM95.8446 42.5085C96.196 42.5085 96.4893 42.4091 96.7246 42.2102C96.9599 42.008 97.1373 41.733 97.2566 41.3849C97.3792 41.0369 97.4405 40.6409 97.4405 40.1967C97.4405 39.7526 97.3792 39.3565 97.2566 39.0085C97.1373 38.6605 96.9599 38.3854 96.7246 38.1832C96.4893 37.9811 96.196 37.88 95.8446 37.88C95.49 37.88 95.1917 37.9811 94.9498 38.1832C94.7111 38.3854 94.5305 38.6605 94.4079 39.0085C94.2885 39.3565 94.2289 39.7526 94.2289 40.1967C94.2289 40.6409 94.2885 41.0369 94.4079 41.3849C94.5305 41.733 94.7111 42.008 94.9498 42.2102C95.1917 42.4091 95.49 42.5085 95.8446 42.5085ZM94.4128 35.424L93.2346 35.4091C93.2346 34.776 93.3903 34.2905 93.7019 33.9524C94.0168 33.6143 94.3996 33.4437 94.8503 33.4403C95.0823 33.4403 95.2812 33.4785 95.4469 33.5547C95.616 33.6276 95.7668 33.7138 95.8993 33.8132C96.0352 33.9126 96.1645 34.0005 96.2871 34.0767C96.4097 34.1496 96.5423 34.1861 96.6848 34.1861C96.8771 34.1828 97.0229 34.1115 97.1223 33.9723C97.2251 33.8298 97.2765 33.6442 97.2765 33.4155L98.4348 33.4503C98.4282 34.0767 98.2691 34.5606 97.9576 34.902C97.646 35.2401 97.2665 35.4107 96.8191 35.4141C96.5705 35.4141 96.3617 35.3776 96.1927 35.3047C96.0269 35.2285 95.8811 35.1423 95.7552 35.0462C95.6292 34.9467 95.5066 34.8589 95.3873 34.7827C95.2679 34.7064 95.1337 34.6683 94.9846 34.6683C94.8122 34.6683 94.673 34.7363 94.5669 34.8722C94.4642 35.008 94.4128 35.192 94.4128 35.424ZM104.55 44.1491C103.765 44.1491 103.089 43.9901 102.522 43.6719C101.959 43.3504 101.524 42.8963 101.219 42.3097C100.915 41.7197 100.762 41.022 100.762 40.2166C100.762 39.4311 100.915 38.7417 101.219 38.1484C101.524 37.5552 101.954 37.0928 102.507 36.7614C103.064 36.4299 103.717 36.2642 104.466 36.2642C104.97 36.2642 105.439 36.3454 105.873 36.5078C106.31 36.6669 106.692 36.9072 107.016 37.2287C107.345 37.5502 107.6 37.9545 107.782 38.4418C107.964 38.9257 108.055 39.4924 108.055 40.142V40.7237H101.607V39.4112H106.062C106.062 39.1063 105.996 38.8362 105.863 38.6009C105.73 38.3655 105.546 38.1816 105.311 38.049C105.079 37.9131 104.809 37.8452 104.501 37.8452C104.179 37.8452 103.894 37.9197 103.646 38.0689C103.4 38.2147 103.208 38.4119 103.069 38.6605C102.93 38.9058 102.858 39.1792 102.855 39.4808V40.7287C102.855 41.1065 102.925 41.433 103.064 41.7081C103.206 41.9832 103.407 42.1953 103.666 42.3445C103.924 42.4936 104.231 42.5682 104.585 42.5682C104.821 42.5682 105.036 42.535 105.232 42.4688C105.427 42.4025 105.594 42.303 105.734 42.1705C105.873 42.0379 105.979 41.8755 106.052 41.6832L108.011 41.8125C107.911 42.2831 107.707 42.6941 107.399 43.0455C107.094 43.3935 106.7 43.6652 106.216 43.8608C105.735 44.053 105.18 44.1491 104.55 44.1491ZM115.891 38.5412L113.952 38.6605C113.919 38.4948 113.848 38.3456 113.739 38.2131C113.629 38.0772 113.485 37.9695 113.306 37.8899C113.13 37.8071 112.92 37.7656 112.675 37.7656C112.346 37.7656 112.07 37.8352 111.844 37.9744C111.619 38.1103 111.506 38.2926 111.506 38.5213C111.506 38.7036 111.579 38.8577 111.725 38.9837C111.871 39.1096 112.121 39.2107 112.476 39.2869L113.858 39.5653C114.6 39.7178 115.154 39.9631 115.518 40.3011C115.883 40.6392 116.065 41.0833 116.065 41.6335C116.065 42.134 115.918 42.5732 115.623 42.951C115.331 43.3288 114.93 43.6238 114.42 43.8359C113.913 44.0447 113.328 44.1491 112.665 44.1491C111.654 44.1491 110.848 43.9387 110.248 43.5178C109.652 43.0935 109.302 42.5168 109.199 41.7876L111.283 41.6783C111.346 41.9865 111.498 42.2218 111.74 42.3842C111.982 42.5433 112.292 42.6229 112.67 42.6229C113.041 42.6229 113.339 42.5516 113.565 42.4091C113.793 42.2633 113.909 42.076 113.913 41.8473C113.909 41.6551 113.828 41.4976 113.669 41.375C113.51 41.2491 113.265 41.1529 112.933 41.0866L111.611 40.8232C110.865 40.674 110.31 40.4155 109.945 40.0476C109.584 39.6797 109.403 39.2107 109.403 38.6406C109.403 38.1501 109.536 37.7275 109.801 37.3729C110.07 37.0182 110.446 36.7448 110.93 36.5526C111.417 36.3603 111.987 36.2642 112.64 36.2642C113.604 36.2642 114.363 36.468 114.917 36.8757C115.474 37.2834 115.798 37.8385 115.891 38.5412ZM123.653 44.1243C123.073 44.1243 122.548 43.9751 122.077 43.6768C121.61 43.3752 121.238 42.9328 120.963 42.3494C120.692 41.7628 120.556 41.0436 120.556 40.1918C120.556 39.3168 120.697 38.5893 120.978 38.0092C121.26 37.4259 121.635 36.9901 122.102 36.7017C122.573 36.41 123.088 36.2642 123.648 36.2642C124.076 36.2642 124.432 36.3371 124.717 36.483C125.005 36.6255 125.237 36.8045 125.413 37.0199C125.592 37.232 125.728 37.4408 125.821 37.6463H125.885V33.8182H127.998V44H125.91V42.777H125.821C125.721 42.9891 125.58 43.1996 125.398 43.4084C125.219 43.6139 124.985 43.7846 124.697 43.9205C124.412 44.0563 124.064 44.1243 123.653 44.1243ZM124.324 42.4389C124.666 42.4389 124.954 42.3461 125.189 42.1605C125.428 41.9716 125.61 41.7081 125.736 41.37C125.865 41.032 125.93 40.6359 125.93 40.1818C125.93 39.7277 125.867 39.3333 125.741 38.9986C125.615 38.6638 125.433 38.4053 125.194 38.223C124.956 38.0407 124.666 37.9496 124.324 37.9496C123.976 37.9496 123.683 38.044 123.444 38.233C123.206 38.4219 123.025 38.6837 122.902 39.0185C122.78 39.3532 122.718 39.741 122.718 40.1818C122.718 40.6259 122.78 41.0187 122.902 41.3601C123.028 41.6982 123.209 41.9633 123.444 42.1555C123.683 42.3445 123.976 42.4389 124.324 42.4389ZM133.32 44.1491C132.534 44.1491 131.858 43.9901 131.291 43.6719C130.728 43.3504 130.294 42.8963 129.989 42.3097C129.684 41.7197 129.531 41.022 129.531 40.2166C129.531 39.4311 129.684 38.7417 129.989 38.1484C130.294 37.5552 130.723 37.0928 131.276 36.7614C131.833 36.4299 132.486 36.2642 133.235 36.2642C133.739 36.2642 134.208 36.3454 134.642 36.5078C135.08 36.6669 135.461 36.9072 135.786 37.2287C136.114 37.5502 136.369 37.9545 136.551 38.4418C136.733 38.9257 136.825 39.4924 136.825 40.142V40.7237H130.376V39.4112H134.831C134.831 39.1063 134.765 38.8362 134.632 38.6009C134.5 38.3655 134.316 38.1816 134.08 38.049C133.848 37.9131 133.578 37.8452 133.27 37.8452C132.948 37.8452 132.663 37.9197 132.415 38.0689C132.17 38.2147 131.977 38.4119 131.838 38.6605C131.699 38.9058 131.628 39.1792 131.624 39.4808V40.7287C131.624 41.1065 131.694 41.433 131.833 41.7081C131.976 41.9832 132.176 42.1953 132.435 42.3445C132.693 42.4936 133 42.5682 133.354 42.5682C133.59 42.5682 133.805 42.535 134.001 42.4688C134.196 42.4025 134.364 42.303 134.503 42.1705C134.642 42.0379 134.748 41.8755 134.821 41.6832L136.78 41.8125C136.68 42.2831 136.477 42.6941 136.168 43.0455C135.863 43.3935 135.469 43.6652 134.985 43.8608C134.505 44.053 133.949 44.1491 133.32 44.1491ZM143.824 44.1442C143.337 44.1442 142.903 44.0597 142.522 43.8906C142.141 43.7183 141.839 43.4647 141.617 43.13C141.398 42.7919 141.289 42.371 141.289 41.8672C141.289 41.4429 141.367 41.0866 141.523 40.7983C141.678 40.5099 141.891 40.2779 142.159 40.1023C142.427 39.9266 142.732 39.794 143.074 39.7045C143.418 39.6151 143.78 39.5521 144.158 39.5156C144.602 39.4692 144.96 39.4261 145.231 39.3864C145.503 39.3433 145.7 39.2803 145.823 39.1974C145.946 39.1146 146.007 38.992 146.007 38.8295V38.7997C146.007 38.4848 145.908 38.2412 145.709 38.0689C145.513 37.8965 145.235 37.8104 144.873 37.8104C144.492 37.8104 144.189 37.8949 143.964 38.0639C143.738 38.2296 143.589 38.4384 143.516 38.6903L141.557 38.5312C141.657 38.0672 141.852 37.6662 142.144 37.3281C142.436 36.9867 142.812 36.7249 143.273 36.5426C143.737 36.357 144.274 36.2642 144.883 36.2642C145.308 36.2642 145.714 36.3139 146.101 36.4134C146.493 36.5128 146.839 36.6669 147.141 36.8757C147.445 37.0845 147.686 37.353 147.861 37.6811C148.037 38.0059 148.125 38.3954 148.125 38.8494V44H146.116V42.9411H146.057C145.934 43.1797 145.77 43.3902 145.565 43.5724C145.359 43.7514 145.112 43.8923 144.824 43.995C144.535 44.0945 144.202 44.1442 143.824 44.1442ZM144.431 42.6825C144.743 42.6825 145.018 42.6212 145.256 42.4986C145.495 42.3726 145.682 42.2036 145.818 41.9915C145.954 41.7794 146.022 41.5391 146.022 41.2706V40.4602C145.956 40.5033 145.864 40.5431 145.748 40.5795C145.636 40.6127 145.508 40.6442 145.366 40.674C145.223 40.7005 145.081 40.7254 144.938 40.7486C144.796 40.7685 144.666 40.7867 144.55 40.8033C144.302 40.8397 144.085 40.8977 143.899 40.9773C143.713 41.0568 143.569 41.1645 143.467 41.3004C143.364 41.433 143.312 41.5987 143.312 41.7976C143.312 42.0859 143.417 42.3063 143.626 42.4588C143.838 42.608 144.106 42.6825 144.431 42.6825ZM151.986 33.8182V44H149.868V33.8182H151.986ZM157.844 36.3636V37.9545H153.246V36.3636H157.844ZM154.29 34.5341H156.407V41.6534C156.407 41.849 156.437 42.0014 156.497 42.1108C156.557 42.2169 156.639 42.2914 156.746 42.3345C156.855 42.3776 156.981 42.3991 157.123 42.3991C157.223 42.3991 157.322 42.3909 157.422 42.3743C157.521 42.3544 157.597 42.3395 157.65 42.3295L157.983 43.9055C157.877 43.9387 157.728 43.9768 157.536 44.0199C157.344 44.0663 157.11 44.0945 156.835 44.1044C156.325 44.1243 155.877 44.0563 155.493 43.9006C155.112 43.7448 154.815 43.5028 154.603 43.1747C154.391 42.8466 154.286 42.4323 154.29 41.9318V34.5341ZM161.501 44.1442C161.014 44.1442 160.58 44.0597 160.199 43.8906C159.818 43.7183 159.516 43.4647 159.294 43.13C159.075 42.7919 158.966 42.371 158.966 41.8672C158.966 41.4429 159.044 41.0866 159.2 40.7983C159.355 40.5099 159.567 40.2779 159.836 40.1023C160.104 39.9266 160.409 39.794 160.751 39.7045C161.095 39.6151 161.457 39.5521 161.835 39.5156C162.279 39.4692 162.637 39.4261 162.908 39.3864C163.18 39.3433 163.377 39.2803 163.5 39.1974C163.623 39.1146 163.684 38.992 163.684 38.8295V38.7997C163.684 38.4848 163.585 38.2412 163.386 38.0689C163.19 37.8965 162.912 37.8104 162.55 37.8104C162.169 37.8104 161.866 37.8949 161.641 38.0639C161.415 38.2296 161.266 38.4384 161.193 38.6903L159.234 38.5312C159.334 38.0672 159.529 37.6662 159.821 37.3281C160.113 36.9867 160.489 36.7249 160.95 36.5426C161.414 36.357 161.951 36.2642 162.56 36.2642C162.985 36.2642 163.391 36.3139 163.778 36.4134C164.17 36.5128 164.516 36.6669 164.817 36.8757C165.122 37.0845 165.363 37.353 165.538 37.6811C165.714 38.0059 165.802 38.3954 165.802 38.8494V44H163.793V42.9411H163.734C163.611 43.1797 163.447 43.3902 163.241 43.5724C163.036 43.7514 162.789 43.8923 162.501 43.995C162.212 44.0945 161.879 44.1442 161.501 44.1442ZM162.108 42.6825C162.42 42.6825 162.695 42.6212 162.933 42.4986C163.172 42.3726 163.359 42.2036 163.495 41.9915C163.631 41.7794 163.699 41.5391 163.699 41.2706V40.4602C163.633 40.5033 163.541 40.5431 163.425 40.5795C163.313 40.6127 163.185 40.6442 163.043 40.674C162.9 40.7005 162.758 40.7254 162.615 40.7486C162.473 40.7685 162.343 40.7867 162.227 40.8033C161.979 40.8397 161.762 40.8977 161.576 40.9773C161.39 41.0568 161.246 41.1645 161.143 41.3004C161.041 41.433 160.989 41.5987 160.989 41.7976C160.989 42.0859 161.094 42.3063 161.303 42.4588C161.515 42.608 161.783 42.6825 162.108 42.6825ZM174.947 36.3636V37.9545H170.348V36.3636H174.947ZM171.392 34.5341H173.51V41.6534C173.51 41.849 173.54 42.0014 173.6 42.1108C173.659 42.2169 173.742 42.2914 173.848 42.3345C173.958 42.3776 174.084 42.3991 174.226 42.3991C174.326 42.3991 174.425 42.3909 174.524 42.3743C174.624 42.3544 174.7 42.3395 174.753 42.3295L175.086 43.9055C174.98 43.9387 174.831 43.9768 174.639 44.0199C174.447 44.0663 174.213 44.0945 173.938 44.1044C173.427 44.1243 172.98 44.0563 172.595 43.9006C172.214 43.7448 171.918 43.5028 171.706 43.1747C171.493 42.8466 171.389 42.4323 171.392 41.9318V34.5341ZM179.825 44.1491C179.039 44.1491 178.363 43.9901 177.796 43.6719C177.233 43.3504 176.799 42.8963 176.494 42.3097C176.189 41.7197 176.036 41.022 176.036 40.2166C176.036 39.4311 176.189 38.7417 176.494 38.1484C176.799 37.5552 177.228 37.0928 177.781 36.7614C178.338 36.4299 178.991 36.2642 179.74 36.2642C180.244 36.2642 180.713 36.3454 181.147 36.5078C181.585 36.6669 181.966 36.9072 182.291 37.2287C182.619 37.5502 182.874 37.9545 183.056 38.4418C183.239 38.9257 183.33 39.4924 183.33 40.142V40.7237H176.882V39.4112H181.336C181.336 39.1063 181.27 38.8362 181.137 38.6009C181.005 38.3655 180.821 38.1816 180.585 38.049C180.353 37.9131 180.083 37.8452 179.775 37.8452C179.453 37.8452 179.168 37.9197 178.92 38.0689C178.675 38.2147 178.482 38.4119 178.343 38.6605C178.204 38.9058 178.133 39.1792 178.129 39.4808V40.7287C178.129 41.1065 178.199 41.433 178.338 41.7081C178.481 41.9832 178.681 42.1953 178.94 42.3445C179.198 42.4936 179.505 42.5682 179.859 42.5682C180.095 42.5682 180.31 42.535 180.506 42.4688C180.701 42.4025 180.869 42.303 181.008 42.1705C181.147 42.0379 181.253 41.8755 181.326 41.6832L183.285 41.8125C183.185 42.2831 182.982 42.6941 182.673 43.0455C182.368 43.3935 181.974 43.6652 181.49 43.8608C181.01 44.053 180.454 44.1491 179.825 44.1491ZM188.262 44.1491C187.48 44.1491 186.807 43.9834 186.244 43.652C185.683 43.3172 185.253 42.8532 184.951 42.2599C184.653 41.6667 184.504 40.9839 184.504 40.2116C184.504 39.4295 184.654 38.7434 184.956 38.1534C185.261 37.5601 185.693 37.0978 186.254 36.7663C186.814 36.4316 187.48 36.2642 188.252 36.2642C188.918 36.2642 189.502 36.3852 190.002 36.6271C190.503 36.8691 190.899 37.2088 191.19 37.6463C191.482 38.0838 191.643 38.5975 191.673 39.1875H189.674C189.618 38.8063 189.468 38.4998 189.227 38.2678C188.988 38.0324 188.675 37.9148 188.287 37.9148C187.959 37.9148 187.672 38.0043 187.427 38.1832C187.185 38.3589 186.996 38.6158 186.86 38.9538C186.724 39.2919 186.656 39.7012 186.656 40.1818C186.656 40.669 186.723 41.0833 186.855 41.4247C186.991 41.7661 187.182 42.0263 187.427 42.2053C187.672 42.3842 187.959 42.4737 188.287 42.4737C188.529 42.4737 188.746 42.424 188.938 42.3246C189.134 42.2251 189.294 42.081 189.42 41.892C189.55 41.6998 189.634 41.4695 189.674 41.201H191.673C191.639 41.7843 191.48 42.2981 191.195 42.7422C190.914 43.183 190.524 43.5277 190.027 43.7763C189.53 44.0249 188.941 44.1491 188.262 44.1491ZM195.246 39.5852V44H193.129V36.3636H195.147V37.7109H195.237C195.406 37.2668 195.689 36.9155 196.087 36.657C196.484 36.3951 196.967 36.2642 197.533 36.2642C198.064 36.2642 198.526 36.3802 198.92 36.6122C199.315 36.8442 199.621 37.1757 199.84 37.6065C200.059 38.0341 200.168 38.5445 200.168 39.1378V44H198.05V39.5156C198.054 39.0483 197.934 38.6837 197.692 38.4219C197.451 38.1567 197.117 38.0241 196.693 38.0241C196.408 38.0241 196.156 38.0855 195.938 38.2081C195.722 38.3307 195.553 38.5097 195.43 38.745C195.311 38.977 195.25 39.2571 195.246 39.5852ZM205.388 44.1491C204.616 44.1491 203.948 43.9851 203.384 43.657C202.824 43.3255 202.392 42.8648 202.087 42.2749C201.782 41.6816 201.629 40.9938 201.629 40.2116C201.629 39.4228 201.782 38.7334 202.087 38.1435C202.392 37.5502 202.824 37.0895 203.384 36.7614C203.948 36.4299 204.616 36.2642 205.388 36.2642C206.16 36.2642 206.826 36.4299 207.386 36.7614C207.95 37.0895 208.384 37.5502 208.689 38.1435C208.994 38.7334 209.146 39.4228 209.146 40.2116C209.146 40.9938 208.994 41.6816 208.689 42.2749C208.384 42.8648 207.95 43.3255 207.386 43.657C206.826 43.9851 206.16 44.1491 205.388 44.1491ZM205.398 42.5085C205.749 42.5085 206.042 42.4091 206.278 42.2102C206.513 42.008 206.69 41.733 206.81 41.3849C206.932 41.0369 206.994 40.6409 206.994 40.1967C206.994 39.7526 206.932 39.3565 206.81 39.0085C206.69 38.6605 206.513 38.3854 206.278 38.1832C206.042 37.9811 205.749 37.88 205.398 37.88C205.043 37.88 204.745 37.9811 204.503 38.1832C204.264 38.3854 204.084 38.6605 203.961 39.0085C203.842 39.3565 203.782 39.7526 203.782 40.1967C203.782 40.6409 203.842 41.0369 203.961 41.3849C204.084 41.733 204.264 42.008 204.503 42.2102C204.745 42.4091 205.043 42.5085 205.398 42.5085ZM212.741 33.8182V44H210.623V33.8182H212.741ZM217.988 44.1491C217.216 44.1491 216.548 43.9851 215.985 43.657C215.425 43.3255 214.992 42.8648 214.687 42.2749C214.382 41.6816 214.23 40.9938 214.23 40.2116C214.23 39.4228 214.382 38.7334 214.687 38.1435C214.992 37.5502 215.425 37.0895 215.985 36.7614C216.548 36.4299 217.216 36.2642 217.988 36.2642C218.76 36.2642 219.427 36.4299 219.987 36.7614C220.55 37.0895 220.984 37.5502 221.289 38.1435C221.594 38.7334 221.747 39.4228 221.747 40.2116C221.747 40.9938 221.594 41.6816 221.289 42.2749C220.984 42.8648 220.55 43.3255 219.987 43.657C219.427 43.9851 218.76 44.1491 217.988 44.1491ZM217.998 42.5085C218.349 42.5085 218.643 42.4091 218.878 42.2102C219.113 42.008 219.291 41.733 219.41 41.3849C219.533 41.0369 219.594 40.6409 219.594 40.1967C219.594 39.7526 219.533 39.3565 219.41 39.0085C219.291 38.6605 219.113 38.3854 218.878 38.1832C218.643 37.9811 218.349 37.88 217.998 37.88C217.644 37.88 217.345 37.9811 217.103 38.1832C216.865 38.3854 216.684 38.6605 216.561 39.0085C216.442 39.3565 216.382 39.7526 216.382 40.1967C216.382 40.6409 216.442 41.0369 216.561 41.3849C216.684 41.733 216.865 42.008 217.103 42.2102C217.345 42.4091 217.644 42.5085 217.998 42.5085ZM226.664 47.0227C225.978 47.0227 225.39 46.9283 224.899 46.7393C224.412 46.5537 224.024 46.3002 223.736 45.9787C223.448 45.6572 223.26 45.2959 223.174 44.8949L225.133 44.6314C225.193 44.7839 225.287 44.9264 225.416 45.0589C225.546 45.1915 225.716 45.2976 225.928 45.3771C226.144 45.46 226.406 45.5014 226.714 45.5014C227.175 45.5014 227.554 45.3887 227.852 45.1634C228.154 44.9413 228.305 44.5684 228.305 44.0447V42.6477H228.215C228.123 42.8598 227.983 43.0604 227.798 43.2493C227.612 43.4382 227.373 43.5923 227.082 43.7116C226.79 43.831 226.442 43.8906 226.038 43.8906C225.464 43.8906 224.942 43.758 224.472 43.4929C224.004 43.2244 223.632 42.8151 223.353 42.2649C223.078 41.7114 222.94 41.0121 222.94 40.1669C222.94 39.3018 223.081 38.5793 223.363 37.9993C223.645 37.4193 224.019 36.9851 224.487 36.6967C224.957 36.4084 225.473 36.2642 226.033 36.2642C226.46 36.2642 226.818 36.3371 227.107 36.483C227.395 36.6255 227.627 36.8045 227.803 37.0199C227.982 37.232 228.119 37.4408 228.215 37.6463H228.295V36.3636H230.398V44.0746C230.398 44.7242 230.239 45.2678 229.921 45.7053C229.602 46.1428 229.162 46.4709 228.598 46.6896C228.038 46.9117 227.393 47.0227 226.664 47.0227ZM226.709 42.2997C227.05 42.2997 227.339 42.2152 227.574 42.0462C227.813 41.8738 227.995 41.6286 228.121 41.3104C228.25 40.9889 228.315 40.6044 228.315 40.157C228.315 39.7095 228.252 39.3217 228.126 38.9936C228 38.6622 227.818 38.4053 227.579 38.223C227.34 38.0407 227.05 37.9496 226.709 37.9496C226.361 37.9496 226.068 38.044 225.829 38.233C225.59 38.4186 225.41 38.6771 225.287 39.0085C225.164 39.34 225.103 39.7228 225.103 40.157C225.103 40.5978 225.164 40.9789 225.287 41.3004C225.413 41.6186 225.594 41.8655 225.829 42.0412C226.068 42.2135 226.361 42.2997 226.709 42.2997ZM232.183 44V36.3636H234.301V44H232.183ZM233.247 35.3793C232.932 35.3793 232.662 35.2749 232.437 35.0661C232.215 34.8539 232.104 34.6004 232.104 34.3054C232.104 34.0137 232.215 33.7635 232.437 33.5547C232.662 33.3426 232.932 33.2365 233.247 33.2365C233.562 33.2365 233.83 33.3426 234.053 33.5547C234.278 33.7635 234.391 34.0137 234.391 34.3054C234.391 34.6004 234.278 34.8539 234.053 35.0661C233.83 35.2749 233.562 35.3793 233.247 35.3793ZM238.275 44.1442C237.788 44.1442 237.354 44.0597 236.973 43.8906C236.592 43.7183 236.29 43.4647 236.068 43.13C235.849 42.7919 235.74 42.371 235.74 41.8672C235.74 41.4429 235.818 41.0866 235.973 40.7983C236.129 40.5099 236.341 40.2779 236.61 40.1023C236.878 39.9266 237.183 39.794 237.525 39.7045C237.869 39.6151 238.231 39.5521 238.608 39.5156C239.052 39.4692 239.41 39.4261 239.682 39.3864C239.954 39.3433 240.151 39.2803 240.274 39.1974C240.396 39.1146 240.458 38.992 240.458 38.8295V38.7997C240.458 38.4848 240.358 38.2412 240.159 38.0689C239.964 37.8965 239.686 37.8104 239.324 37.8104C238.943 37.8104 238.64 37.8949 238.414 38.0639C238.189 38.2296 238.04 38.4384 237.967 38.6903L236.008 38.5312C236.108 38.0672 236.303 37.6662 236.595 37.3281C236.887 36.9867 237.263 36.7249 237.723 36.5426C238.187 36.357 238.724 36.2642 239.334 36.2642C239.758 36.2642 240.164 36.3139 240.552 36.4134C240.943 36.5128 241.29 36.6669 241.591 36.8757C241.896 37.0845 242.137 37.353 242.312 37.6811C242.488 38.0059 242.576 38.3954 242.576 38.8494V44H240.567V42.9411H240.508C240.385 43.1797 240.221 43.3902 240.015 43.5724C239.81 43.7514 239.563 43.8923 239.275 43.995C238.986 44.0945 238.653 44.1442 238.275 44.1442ZM238.882 42.6825C239.193 42.6825 239.468 42.6212 239.707 42.4986C239.946 42.3726 240.133 42.2036 240.269 41.9915C240.405 41.7794 240.473 41.5391 240.473 41.2706V40.4602C240.406 40.5033 240.315 40.5431 240.199 40.5795C240.087 40.6127 239.959 40.6442 239.816 40.674C239.674 40.7005 239.531 40.7254 239.389 40.7486C239.246 40.7685 239.117 40.7867 239.001 40.8033C238.753 40.8397 238.535 40.8977 238.35 40.9773C238.164 41.0568 238.02 41.1645 237.917 41.3004C237.815 41.433 237.763 41.5987 237.763 41.7976C237.763 42.0859 237.868 42.3063 238.076 42.4588C238.289 42.608 238.557 42.6825 238.882 42.6825ZM251.109 44.1491C250.327 44.1491 249.654 43.9834 249.091 43.652C248.531 43.3172 248.1 42.8532 247.798 42.2599C247.5 41.6667 247.351 40.9839 247.351 40.2116C247.351 39.4295 247.502 38.7434 247.803 38.1534C248.108 37.5601 248.541 37.0978 249.101 36.7663C249.661 36.4316 250.327 36.2642 251.099 36.2642C251.766 36.2642 252.349 36.3852 252.849 36.6271C253.35 36.8691 253.746 37.2088 254.038 37.6463C254.329 38.0838 254.49 38.5975 254.52 39.1875H252.521C252.465 38.8063 252.316 38.4998 252.074 38.2678C251.835 38.0324 251.522 37.9148 251.134 37.9148C250.806 37.9148 250.519 38.0043 250.274 38.1832C250.032 38.3589 249.843 38.6158 249.707 38.9538C249.571 39.2919 249.503 39.7012 249.503 40.1818C249.503 40.669 249.57 41.0833 249.702 41.4247C249.838 41.7661 250.029 42.0263 250.274 42.2053C250.519 42.3842 250.806 42.4737 251.134 42.4737C251.376 42.4737 251.593 42.424 251.785 42.3246C251.981 42.2251 252.142 42.081 252.268 41.892C252.397 41.6998 252.481 41.4695 252.521 41.201H254.52C254.487 41.7843 254.328 42.2981 254.043 42.7422C253.761 43.183 253.371 43.5277 252.874 43.7763C252.377 44.0249 251.789 44.1491 251.109 44.1491ZM259.426 44.1491C258.654 44.1491 257.986 43.9851 257.423 43.657C256.862 43.3255 256.43 42.8648 256.125 42.2749C255.82 41.6816 255.668 40.9938 255.668 40.2116C255.668 39.4228 255.82 38.7334 256.125 38.1435C256.43 37.5502 256.862 37.0895 257.423 36.7614C257.986 36.4299 258.654 36.2642 259.426 36.2642C260.198 36.2642 260.865 36.4299 261.425 36.7614C261.988 37.0895 262.422 37.5502 262.727 38.1435C263.032 38.7334 263.185 39.4228 263.185 40.2116C263.185 40.9938 263.032 41.6816 262.727 42.2749C262.422 42.8648 261.988 43.3255 261.425 43.657C260.865 43.9851 260.198 44.1491 259.426 44.1491ZM259.436 42.5085C259.787 42.5085 260.081 42.4091 260.316 42.2102C260.551 42.008 260.729 41.733 260.848 41.3849C260.971 41.0369 261.032 40.6409 261.032 40.1967C261.032 39.7526 260.971 39.3565 260.848 39.0085C260.729 38.6605 260.551 38.3854 260.316 38.1832C260.081 37.9811 259.787 37.88 259.436 37.88C259.081 37.88 258.783 37.9811 258.541 38.1832C258.303 38.3854 258.122 38.6605 257.999 39.0085C257.88 39.3565 257.82 39.7526 257.82 40.1967C257.82 40.6409 257.88 41.0369 257.999 41.3849C258.122 41.733 258.303 42.008 258.541 42.2102C258.783 42.4091 259.081 42.5085 259.436 42.5085ZM264.662 44V36.3636H266.68V37.7109H266.77C266.929 37.2635 267.194 36.9105 267.565 36.652C267.936 36.3935 268.381 36.2642 268.898 36.2642C269.421 36.2642 269.867 36.3951 270.235 36.657C270.603 36.9155 270.848 37.2668 270.971 37.7109H271.05C271.206 37.2734 271.488 36.9238 271.895 36.6619C272.306 36.3968 272.792 36.2642 273.352 36.2642C274.065 36.2642 274.643 36.4912 275.087 36.9453C275.535 37.3961 275.758 38.0357 275.758 38.8643V44H273.645V39.282C273.645 38.8577 273.533 38.5395 273.307 38.3274C273.082 38.1153 272.8 38.0092 272.462 38.0092C272.078 38.0092 271.778 38.1319 271.562 38.3771C271.347 38.6191 271.239 38.9389 271.239 39.3366V44H269.186V39.2372C269.186 38.8627 269.078 38.5644 268.863 38.3423C268.651 38.1203 268.371 38.0092 268.023 38.0092C267.787 38.0092 267.575 38.0689 267.386 38.1882C267.201 38.3042 267.053 38.4683 266.944 38.6804C266.834 38.8892 266.78 39.1345 266.78 39.4162V44H264.662ZM280.872 46.8636V36.3636H282.96V37.6463H283.054C283.147 37.4408 283.281 37.232 283.457 37.0199C283.636 36.8045 283.868 36.6255 284.153 36.483C284.441 36.3371 284.799 36.2642 285.227 36.2642C285.783 36.2642 286.297 36.41 286.768 36.7017C287.238 36.9901 287.615 37.4259 287.896 38.0092C288.178 38.5893 288.319 39.3168 288.319 40.1918C288.319 41.0436 288.181 41.7628 287.906 42.3494C287.635 42.9328 287.263 43.3752 286.793 43.6768C286.325 43.9751 285.802 44.1243 285.222 44.1243C284.811 44.1243 284.461 44.0563 284.173 43.9205C283.888 43.7846 283.654 43.6139 283.472 43.4084C283.289 43.1996 283.15 42.9891 283.054 42.777H282.989V46.8636H280.872ZM282.945 40.1818C282.945 40.6359 283.008 41.032 283.134 41.37C283.26 41.7081 283.442 41.9716 283.68 42.1605C283.919 42.3461 284.209 42.4389 284.55 42.4389C284.895 42.4389 285.187 42.3445 285.425 42.1555C285.664 41.9633 285.845 41.6982 285.967 41.3601C286.093 41.0187 286.156 40.6259 286.156 40.1818C286.156 39.741 286.095 39.3532 285.972 39.0185C285.85 38.6837 285.669 38.4219 285.43 38.233C285.192 38.044 284.899 37.9496 284.55 37.9496C284.206 37.9496 283.914 38.0407 283.675 38.223C283.44 38.4053 283.26 38.6638 283.134 38.9986C283.008 39.3333 282.945 39.7277 282.945 40.1818ZM289.831 44V36.3636H291.884V37.696H291.964C292.103 37.2221 292.337 36.8641 292.665 36.6222C292.993 36.3769 293.371 36.2543 293.798 36.2543C293.904 36.2543 294.019 36.2609 294.141 36.2741C294.264 36.2874 294.372 36.3056 294.464 36.3288V38.2081C294.365 38.1783 294.227 38.1518 294.052 38.1286C293.876 38.1054 293.715 38.0938 293.57 38.0938C293.258 38.0938 292.98 38.1617 292.734 38.2976C292.492 38.4302 292.3 38.6158 292.158 38.8544C292.018 39.093 291.949 39.3681 291.949 39.6797V44H289.831ZM298.784 44.1491C297.999 44.1491 297.322 43.9901 296.756 43.6719C296.192 43.3504 295.758 42.8963 295.453 42.3097C295.148 41.7197 294.996 41.022 294.996 40.2166C294.996 39.4311 295.148 38.7417 295.453 38.1484C295.758 37.5552 296.187 37.0928 296.741 36.7614C297.298 36.4299 297.95 36.2642 298.7 36.2642C299.203 36.2642 299.672 36.3454 300.106 36.5078C300.544 36.6669 300.925 36.9072 301.25 37.2287C301.578 37.5502 301.833 37.9545 302.016 38.4418C302.198 38.9257 302.289 39.4924 302.289 40.142V40.7237H295.841V39.4112H300.295C300.295 39.1063 300.229 38.8362 300.097 38.6009C299.964 38.3655 299.78 38.1816 299.545 38.049C299.313 37.9131 299.043 37.8452 298.734 37.8452C298.413 37.8452 298.128 37.9197 297.879 38.0689C297.634 38.2147 297.442 38.4119 297.303 38.6605C297.163 38.9058 297.092 39.1792 297.089 39.4808V40.7287C297.089 41.1065 297.158 41.433 297.298 41.7081C297.44 41.9832 297.641 42.1953 297.899 42.3445C298.158 42.4936 298.464 42.5682 298.819 42.5682C299.054 42.5682 299.27 42.535 299.465 42.4688C299.661 42.4025 299.828 42.303 299.967 42.1705C300.106 42.0379 300.213 41.8755 300.285 41.6832L302.244 41.8125C302.145 42.2831 301.941 42.6941 301.633 43.0455C301.328 43.3935 300.933 43.6652 300.45 43.8608C299.969 44.053 299.414 44.1491 298.784 44.1491ZM307.221 44.1491C306.439 44.1491 305.766 43.9834 305.203 43.652C304.643 43.3172 304.212 42.8532 303.91 42.2599C303.612 41.6667 303.463 40.9839 303.463 40.2116C303.463 39.4295 303.614 38.7434 303.915 38.1534C304.22 37.5601 304.653 37.0978 305.213 36.7663C305.773 36.4316 306.439 36.2642 307.211 36.2642C307.878 36.2642 308.461 36.3852 308.961 36.6271C309.462 36.8691 309.858 37.2088 310.15 37.6463C310.441 38.0838 310.602 38.5975 310.632 39.1875H308.633C308.577 38.8063 308.428 38.4998 308.186 38.2678C307.947 38.0324 307.634 37.9148 307.246 37.9148C306.918 37.9148 306.631 38.0043 306.386 38.1832C306.144 38.3589 305.955 38.6158 305.819 38.9538C305.684 39.2919 305.616 39.7012 305.616 40.1818C305.616 40.669 305.682 41.0833 305.814 41.4247C305.95 41.7661 306.141 42.0263 306.386 42.2053C306.631 42.3842 306.918 42.4737 307.246 42.4737C307.488 42.4737 307.705 42.424 307.898 42.3246C308.093 42.2251 308.254 42.081 308.38 41.892C308.509 41.6998 308.594 41.4695 308.633 41.201H310.632C310.599 41.7843 310.44 42.2981 310.155 42.7422C309.873 43.183 309.483 43.5277 308.986 43.7763C308.489 44.0249 307.901 44.1491 307.221 44.1491ZM306.724 43.9602H307.699L307.619 44.3928C307.961 44.4458 308.239 44.5734 308.454 44.7756C308.673 44.9777 308.784 45.2528 308.787 45.6009C308.791 46.0947 308.562 46.4875 308.101 46.7791C307.641 47.0741 306.994 47.2216 306.162 47.2216L306.143 46.277C306.56 46.277 306.887 46.2256 307.122 46.1229C307.361 46.0234 307.485 45.8677 307.495 45.6555C307.501 45.4534 307.424 45.2992 307.261 45.1932C307.099 45.0871 306.845 45.0125 306.501 44.9695L306.724 43.9602ZM315.538 44.1491C314.766 44.1491 314.098 43.9851 313.535 43.657C312.975 43.3255 312.542 42.8648 312.237 42.2749C311.932 41.6816 311.78 40.9938 311.78 40.2116C311.78 39.4228 311.932 38.7334 312.237 38.1435C312.542 37.5502 312.975 37.0895 313.535 36.7614C314.098 36.4299 314.766 36.2642 315.538 36.2642C316.31 36.2642 316.977 36.4299 317.537 36.7614C318.1 37.0895 318.534 37.5502 318.839 38.1435C319.144 38.7334 319.297 39.4228 319.297 40.2116C319.297 40.9938 319.144 41.6816 318.839 42.2749C318.534 42.8648 318.1 43.3255 317.537 43.657C316.977 43.9851 316.31 44.1491 315.538 44.1491ZM315.548 42.5085C315.899 42.5085 316.193 42.4091 316.428 42.2102C316.663 42.008 316.841 41.733 316.96 41.3849C317.083 41.0369 317.144 40.6409 317.144 40.1967C317.144 39.7526 317.083 39.3565 316.96 39.0085C316.841 38.6605 316.663 38.3854 316.428 38.1832C316.193 37.9811 315.899 37.88 315.548 37.88C315.194 37.88 314.895 37.9811 314.653 38.1832C314.415 38.3854 314.234 38.6605 314.111 39.0085C313.992 39.3565 313.932 39.7526 313.932 40.1967C313.932 40.6409 313.992 41.0369 314.111 41.3849C314.234 41.733 314.415 42.008 314.653 42.2102C314.895 42.4091 315.194 42.5085 315.548 42.5085ZM327.128 38.5412L325.189 38.6605C325.156 38.4948 325.084 38.3456 324.975 38.2131C324.866 38.0772 324.721 37.9695 324.542 37.8899C324.367 37.8071 324.156 37.7656 323.911 37.7656C323.583 37.7656 323.306 37.8352 323.081 37.9744C322.855 38.1103 322.743 38.2926 322.743 38.5213C322.743 38.7036 322.816 38.8577 322.961 38.9837C323.107 39.1096 323.357 39.2107 323.712 39.2869L325.094 39.5653C325.837 39.7178 326.39 39.9631 326.755 40.3011C327.119 40.6392 327.302 41.0833 327.302 41.6335C327.302 42.134 327.154 42.5732 326.859 42.951C326.567 43.3288 326.166 43.6238 325.656 43.8359C325.149 44.0447 324.564 44.1491 323.901 44.1491C322.89 44.1491 322.085 43.9387 321.485 43.5178C320.888 43.0935 320.539 42.5168 320.436 41.7876L322.519 41.6783C322.582 41.9865 322.734 42.2218 322.976 42.3842C323.218 42.5433 323.528 42.6229 323.906 42.6229C324.277 42.6229 324.575 42.5516 324.801 42.4091C325.03 42.2633 325.146 42.076 325.149 41.8473C325.146 41.6551 325.064 41.4976 324.905 41.375C324.746 41.2491 324.501 41.1529 324.169 41.0866L322.847 40.8232C322.101 40.674 321.546 40.4155 321.182 40.0476C320.82 39.6797 320.64 39.2107 320.64 38.6406C320.64 38.1501 320.772 37.7275 321.037 37.3729C321.306 37.0182 321.682 36.7448 322.166 36.5526C322.653 36.3603 323.223 36.2642 323.876 36.2642C324.841 36.2642 325.6 36.468 326.153 36.8757C326.71 37.2834 327.035 37.8385 327.128 38.5412ZM332.075 36.3636H334.193V44.3778C334.193 44.9678 334.077 45.4451 333.845 45.8097C333.613 46.1742 333.28 46.4411 332.846 46.6101C332.415 46.7791 331.9 46.8636 331.3 46.8636C331.227 46.8636 331.157 46.862 331.091 46.8587C331.021 46.8587 330.949 46.857 330.872 46.8537V45.1982C330.929 45.2015 330.978 45.2031 331.021 45.2031C331.061 45.2064 331.104 45.2081 331.151 45.2081C331.492 45.2081 331.731 45.1352 331.867 44.9893C332.006 44.8468 332.075 44.6314 332.075 44.343V36.3636ZM333.129 35.3793C332.818 35.3793 332.549 35.2749 332.324 35.0661C332.099 34.8539 331.986 34.6004 331.986 34.3054C331.986 34.0137 332.099 33.7635 332.324 33.5547C332.549 33.3426 332.818 33.2365 333.129 33.2365C333.448 33.2365 333.718 33.3426 333.94 33.5547C334.165 33.7635 334.278 34.0137 334.278 34.3054C334.278 34.6004 334.165 34.8539 333.94 35.0661C333.718 35.2749 333.448 35.3793 333.129 35.3793ZM340.887 40.7486V36.3636H343.005V44H340.971V42.6129H340.892C340.72 43.0604 340.433 43.42 340.032 43.6918C339.634 43.9635 339.149 44.0994 338.575 44.0994C338.065 44.0994 337.616 43.9834 337.228 43.7514C336.84 43.5194 336.537 43.1896 336.318 42.7621C336.103 42.3345 335.993 41.8224 335.99 41.2259V36.3636H338.108V40.848C338.111 41.2988 338.232 41.6551 338.471 41.9169C338.709 42.1787 339.029 42.3097 339.43 42.3097C339.685 42.3097 339.924 42.2517 340.146 42.1357C340.368 42.0163 340.547 41.8407 340.683 41.6087C340.822 41.3767 340.89 41.09 340.887 40.7486ZM351.153 38.5412L349.214 38.6605C349.181 38.4948 349.109 38.3456 349 38.2131C348.89 38.0772 348.746 37.9695 348.567 37.8899C348.392 37.8071 348.181 37.7656 347.936 37.7656C347.608 37.7656 347.331 37.8352 347.106 37.9744C346.88 38.1103 346.768 38.2926 346.768 38.5213C346.768 38.7036 346.841 38.8577 346.986 38.9837C347.132 39.1096 347.382 39.2107 347.737 39.2869L349.119 39.5653C349.862 39.7178 350.415 39.9631 350.78 40.3011C351.144 40.6392 351.327 41.0833 351.327 41.6335C351.327 42.134 351.179 42.5732 350.884 42.951C350.592 43.3288 350.191 43.6238 349.681 43.8359C349.174 44.0447 348.589 44.1491 347.926 44.1491C346.915 44.1491 346.11 43.9387 345.51 43.5178C344.913 43.0935 344.564 42.5168 344.461 41.7876L346.544 41.6783C346.607 41.9865 346.759 42.2218 347.001 42.3842C347.243 42.5433 347.553 42.6229 347.931 42.6229C348.302 42.6229 348.6 42.5516 348.826 42.4091C349.055 42.2633 349.171 42.076 349.174 41.8473C349.171 41.6551 349.089 41.4976 348.93 41.375C348.771 41.2491 348.526 41.1529 348.194 41.0866L346.872 40.8232C346.126 40.674 345.571 40.4155 345.207 40.0476C344.845 39.6797 344.665 39.2107 344.665 38.6406C344.665 38.1501 344.797 37.7275 345.062 37.3729C345.331 37.0182 345.707 36.7448 346.191 36.5526C346.678 36.3603 347.248 36.2642 347.901 36.2642C348.866 36.2642 349.625 36.468 350.178 36.8757C350.735 37.2834 351.06 37.8385 351.153 38.5412ZM356.822 36.3636V37.9545H352.223V36.3636H356.822ZM353.267 34.5341H355.385V41.6534C355.385 41.849 355.415 42.0014 355.475 42.1108C355.534 42.2169 355.617 42.2914 355.723 42.3345C355.833 42.3776 355.959 42.3991 356.101 42.3991C356.201 42.3991 356.3 42.3909 356.399 42.3743C356.499 42.3544 356.575 42.3395 356.628 42.3295L356.961 43.9055C356.855 43.9387 356.706 43.9768 356.514 44.0199C356.322 44.0663 356.088 44.0945 355.813 44.1044C355.302 44.1243 354.855 44.0563 354.47 43.9006C354.089 43.7448 353.793 43.5028 353.581 43.1747C353.368 42.8466 353.264 42.4323 353.267 41.9318V34.5341ZM361.67 44.1491C360.898 44.1491 360.23 43.9851 359.666 43.657C359.106 43.3255 358.674 42.8648 358.369 42.2749C358.064 41.6816 357.911 40.9938 357.911 40.2116C357.911 39.4228 358.064 38.7334 358.369 38.1435C358.674 37.5502 359.106 37.0895 359.666 36.7614C360.23 36.4299 360.898 36.2642 361.67 36.2642C362.442 36.2642 363.108 36.4299 363.668 36.7614C364.232 37.0895 364.666 37.5502 364.971 38.1435C365.276 38.7334 365.428 39.4228 365.428 40.2116C365.428 40.9938 365.276 41.6816 364.971 42.2749C364.666 42.8648 364.232 43.3255 363.668 43.657C363.108 43.9851 362.442 44.1491 361.67 44.1491ZM361.68 42.5085C362.031 42.5085 362.324 42.4091 362.56 42.2102C362.795 42.008 362.972 41.733 363.092 41.3849C363.214 41.0369 363.276 40.6409 363.276 40.1967C363.276 39.7526 363.214 39.3565 363.092 39.0085C362.972 38.6605 362.795 38.3854 362.56 38.1832C362.324 37.9811 362.031 37.88 361.68 37.88C361.325 37.88 361.027 37.9811 360.785 38.1832C360.546 38.3854 360.366 38.6605 360.243 39.0085C360.124 39.3565 360.064 39.7526 360.064 40.1967C360.064 40.6409 360.124 41.0369 360.243 41.3849C360.366 41.733 360.546 42.008 360.785 42.2102C361.027 42.4091 361.325 42.5085 361.68 42.5085ZM373.259 38.5412L371.32 38.6605C371.287 38.4948 371.216 38.3456 371.106 38.2131C370.997 38.0772 370.853 37.9695 370.674 37.8899C370.498 37.8071 370.288 37.7656 370.043 37.7656C369.714 37.7656 369.438 37.8352 369.212 37.9744C368.987 38.1103 368.874 38.2926 368.874 38.5213C368.874 38.7036 368.947 38.8577 369.093 38.9837C369.239 39.1096 369.489 39.2107 369.844 39.2869L371.226 39.5653C371.968 39.7178 372.522 39.9631 372.886 40.3011C373.251 40.6392 373.433 41.0833 373.433 41.6335C373.433 42.134 373.286 42.5732 372.991 42.951C372.699 43.3288 372.298 43.6238 371.788 43.8359C371.281 44.0447 370.696 44.1491 370.033 44.1491C369.022 44.1491 368.216 43.9387 367.616 43.5178C367.02 43.0935 366.67 42.5168 366.567 41.7876L368.651 41.6783C368.714 41.9865 368.866 42.2218 369.108 42.3842C369.35 42.5433 369.66 42.6229 370.038 42.6229C370.409 42.6229 370.707 42.5516 370.932 42.4091C371.161 42.2633 371.277 42.076 371.281 41.8473C371.277 41.6551 371.196 41.4976 371.037 41.375C370.878 41.2491 370.633 41.1529 370.301 41.0866L368.979 40.8232C368.233 40.674 367.678 40.4155 367.313 40.0476C366.952 39.6797 366.771 39.2107 366.771 38.6406C366.771 38.1501 366.904 37.7275 367.169 37.3729C367.437 37.0182 367.814 36.7448 368.298 36.5526C368.785 36.3603 369.355 36.2642 370.008 36.2642C370.972 36.2642 371.731 36.468 372.285 36.8757C372.842 37.2834 373.166 37.8385 373.259 38.5412ZM381.687 44.1491C380.902 44.1491 380.226 43.9901 379.659 43.6719C379.095 43.3504 378.661 42.8963 378.356 42.3097C378.051 41.7197 377.899 41.022 377.899 40.2166C377.899 39.4311 378.051 38.7417 378.356 38.1484C378.661 37.5552 379.09 37.0928 379.644 36.7614C380.201 36.4299 380.854 36.2642 381.603 36.2642C382.106 36.2642 382.575 36.3454 383.01 36.5078C383.447 36.6669 383.828 36.9072 384.153 37.2287C384.481 37.5502 384.736 37.9545 384.919 38.4418C385.101 38.9257 385.192 39.4924 385.192 40.142V40.7237H378.744V39.4112H383.199C383.199 39.1063 383.132 38.8362 383 38.6009C382.867 38.3655 382.683 38.1816 382.448 38.049C382.216 37.9131 381.946 37.8452 381.637 37.8452C381.316 37.8452 381.031 37.9197 380.782 38.0689C380.537 38.2147 380.345 38.4119 380.206 38.6605C380.066 38.9058 379.995 39.1792 379.992 39.4808V40.7287C379.992 41.1065 380.061 41.433 380.201 41.7081C380.343 41.9832 380.544 42.1953 380.802 42.3445C381.061 42.4936 381.367 42.5682 381.722 42.5682C381.957 42.5682 382.173 42.535 382.368 42.4688C382.564 42.4025 382.731 42.303 382.87 42.1705C383.01 42.0379 383.116 41.8755 383.189 41.6832L385.147 41.8125C385.048 42.2831 384.844 42.6941 384.536 43.0455C384.231 43.3935 383.837 43.6652 383.353 43.8608C382.872 44.053 382.317 44.1491 381.687 44.1491ZM392.192 44.1442C391.705 44.1442 391.271 44.0597 390.889 43.8906C390.508 43.7183 390.207 43.4647 389.985 43.13C389.766 42.7919 389.657 42.371 389.657 41.8672C389.657 41.4429 389.734 41.0866 389.89 40.7983C390.046 40.5099 390.258 40.2779 390.527 40.1023C390.795 39.9266 391.1 39.794 391.441 39.7045C391.786 39.6151 392.147 39.5521 392.525 39.5156C392.969 39.4692 393.327 39.4261 393.599 39.3864C393.871 39.3433 394.068 39.2803 394.191 39.1974C394.313 39.1146 394.375 38.992 394.375 38.8295V38.7997C394.375 38.4848 394.275 38.2412 394.076 38.0689C393.881 37.8965 393.602 37.8104 393.241 37.8104C392.86 37.8104 392.557 37.8949 392.331 38.0639C392.106 38.2296 391.957 38.4384 391.884 38.6903L389.925 38.5312C390.024 38.0672 390.22 37.6662 390.512 37.3281C390.803 36.9867 391.179 36.7249 391.64 36.5426C392.104 36.357 392.641 36.2642 393.251 36.2642C393.675 36.2642 394.081 36.3139 394.469 36.4134C394.86 36.5128 395.206 36.6669 395.508 36.8757C395.813 37.0845 396.053 37.353 396.229 37.6811C396.405 38.0059 396.492 38.3954 396.492 38.8494V44H394.484V42.9411H394.424C394.302 43.1797 394.138 43.3902 393.932 43.5724C393.727 43.7514 393.48 43.8923 393.191 43.995C392.903 44.0945 392.57 44.1442 392.192 44.1442ZM392.799 42.6825C393.11 42.6825 393.385 42.6212 393.624 42.4986C393.862 42.3726 394.05 42.2036 394.186 41.9915C394.322 41.7794 394.389 41.5391 394.389 41.2706V40.4602C394.323 40.5033 394.232 40.5431 394.116 40.5795C394.003 40.6127 393.876 40.6442 393.733 40.674C393.591 40.7005 393.448 40.7254 393.306 40.7486C393.163 40.7685 393.034 40.7867 392.918 40.8033C392.669 40.8397 392.452 40.8977 392.267 40.9773C392.081 41.0568 391.937 41.1645 391.834 41.3004C391.731 41.433 391.68 41.5987 391.68 41.7976C391.68 42.0859 391.784 42.3063 391.993 42.4588C392.205 42.608 392.474 42.6825 392.799 42.6825ZM401.05 44.1243C400.469 44.1243 399.944 43.9751 399.474 43.6768C399.006 43.3752 398.635 42.9328 398.36 42.3494C398.088 41.7628 397.952 41.0436 397.952 40.1918C397.952 39.3168 398.093 38.5893 398.375 38.0092C398.657 37.4259 399.031 36.9901 399.498 36.7017C399.969 36.41 400.484 36.2642 401.045 36.2642C401.472 36.2642 401.828 36.3371 402.113 36.483C402.402 36.6255 402.634 36.8045 402.809 37.0199C402.988 37.232 403.124 37.4408 403.217 37.6463H403.282V33.8182H405.395V44H403.307V42.777H403.217C403.118 42.9891 402.977 43.1996 402.795 43.4084C402.616 43.6139 402.382 43.7846 402.094 43.9205C401.808 44.0563 401.46 44.1243 401.05 44.1243ZM401.721 42.4389C402.062 42.4389 402.35 42.3461 402.586 42.1605C402.824 41.9716 403.007 41.7081 403.133 41.37C403.262 41.032 403.326 40.6359 403.326 40.1818C403.326 39.7277 403.264 39.3333 403.138 38.9986C403.012 38.6638 402.829 38.4053 402.591 38.223C402.352 38.0407 402.062 37.9496 401.721 37.9496C401.373 37.9496 401.079 38.044 400.841 38.233C400.602 38.4219 400.421 38.6837 400.299 39.0185C400.176 39.3532 400.115 39.741 400.115 40.1818C400.115 40.6259 400.176 41.0187 400.299 41.3601C400.425 41.6982 400.605 41.9633 400.841 42.1555C401.079 42.3445 401.373 42.4389 401.721 42.4389ZM409.414 44.1442C408.926 44.1442 408.492 44.0597 408.111 43.8906C407.73 43.7183 407.428 43.4647 407.206 43.13C406.987 42.7919 406.878 42.371 406.878 41.8672C406.878 41.4429 406.956 41.0866 407.112 40.7983C407.267 40.5099 407.48 40.2779 407.748 40.1023C408.017 39.9266 408.321 39.794 408.663 39.7045C409.008 39.6151 409.369 39.5521 409.747 39.5156C410.191 39.4692 410.549 39.4261 410.82 39.3864C411.092 39.3433 411.289 39.2803 411.412 39.1974C411.535 39.1146 411.596 38.992 411.596 38.8295V38.7997C411.596 38.4848 411.497 38.2412 411.298 38.0689C411.102 37.8965 410.824 37.8104 410.463 37.8104C410.081 37.8104 409.778 37.8949 409.553 38.0639C409.327 38.2296 409.178 38.4384 409.105 38.6903L407.146 38.5312C407.246 38.0672 407.441 37.6662 407.733 37.3281C408.025 36.9867 408.401 36.7249 408.862 36.5426C409.326 36.357 409.863 36.2642 410.472 36.2642C410.897 36.2642 411.303 36.3139 411.691 36.4134C412.082 36.5128 412.428 36.6669 412.73 36.8757C413.035 37.0845 413.275 37.353 413.45 37.6811C413.626 38.0059 413.714 38.3954 413.714 38.8494V44H411.705V42.9411H411.646C411.523 43.1797 411.359 43.3902 411.154 43.5724C410.948 43.7514 410.701 43.8923 410.413 43.995C410.124 44.0945 409.791 44.1442 409.414 44.1442ZM410.02 42.6825C410.332 42.6825 410.607 42.6212 410.845 42.4986C411.084 42.3726 411.271 42.2036 411.407 41.9915C411.543 41.7794 411.611 41.5391 411.611 41.2706V40.4602C411.545 40.5033 411.454 40.5431 411.338 40.5795C411.225 40.6127 411.097 40.6442 410.955 40.674C410.812 40.7005 410.67 40.7254 410.527 40.7486C410.385 40.7685 410.255 40.7867 410.139 40.8033C409.891 40.8397 409.674 40.8977 409.488 40.9773C409.303 41.0568 409.158 41.1645 409.056 41.3004C408.953 41.433 408.901 41.5987 408.901 41.7976C408.901 42.0859 409.006 42.3063 409.215 42.4588C409.427 42.608 409.695 42.6825 410.02 42.6825ZM415.457 46.8636V36.3636H417.545V37.6463H417.64C417.732 37.4408 417.867 37.232 418.042 37.0199C418.221 36.8045 418.453 36.6255 418.738 36.483C419.027 36.3371 419.385 36.2642 419.812 36.2642C420.369 36.2642 420.883 36.41 421.353 36.7017C421.824 36.9901 422.2 37.4259 422.482 38.0092C422.764 38.5893 422.905 39.3168 422.905 40.1918C422.905 41.0436 422.767 41.7628 422.492 42.3494C422.22 42.9328 421.849 43.3752 421.378 43.6768C420.911 43.9751 420.387 44.1243 419.807 44.1243C419.396 44.1243 419.047 44.0563 418.758 43.9205C418.473 43.7846 418.24 43.6139 418.057 43.4084C417.875 43.1996 417.736 42.9891 417.64 42.777H417.575V46.8636H415.457ZM417.53 40.1818C417.53 40.6359 417.593 41.032 417.719 41.37C417.845 41.7081 418.027 41.9716 418.266 42.1605C418.505 42.3461 418.795 42.4389 419.136 42.4389C419.481 42.4389 419.772 42.3445 420.011 42.1555C420.25 41.9633 420.43 41.6982 420.553 41.3601C420.679 41.0187 420.742 40.6259 420.742 40.1818C420.742 39.741 420.681 39.3532 420.558 39.0185C420.435 38.6837 420.255 38.4219 420.016 38.233C419.777 38.044 419.484 37.9496 419.136 37.9496C418.791 37.9496 418.5 38.0407 418.261 38.223C418.026 38.4053 417.845 38.6638 417.719 38.9986C417.593 39.3333 417.53 39.7277 417.53 40.1818ZM428.478 36.3636V37.9545H423.88V36.3636H428.478ZM424.924 34.5341H427.041V41.6534C427.041 41.849 427.071 42.0014 427.131 42.1108C427.191 42.2169 427.273 42.2914 427.38 42.3345C427.489 42.3776 427.615 42.3991 427.757 42.3991C427.857 42.3991 427.956 42.3909 428.056 42.3743C428.155 42.3544 428.231 42.3395 428.284 42.3295L428.617 43.9055C428.511 43.9387 428.362 43.9768 428.17 44.0199C427.978 44.0663 427.744 44.0945 427.469 44.1044C426.959 44.1243 426.511 44.0563 426.127 43.9006C425.746 43.7448 425.449 43.5028 425.237 43.1747C425.025 42.8466 424.92 42.4323 424.924 41.9318V34.5341ZM432.135 44.1442C431.648 44.1442 431.214 44.0597 430.833 43.8906C430.452 43.7183 430.15 43.4647 429.928 43.13C429.709 42.7919 429.6 42.371 429.6 41.8672C429.6 41.4429 429.678 41.0866 429.834 40.7983C429.989 40.5099 430.201 40.2779 430.47 40.1023C430.738 39.9266 431.043 39.794 431.385 39.7045C431.729 39.6151 432.091 39.5521 432.468 39.5156C432.913 39.4692 433.271 39.4261 433.542 39.3864C433.814 39.3433 434.011 39.2803 434.134 39.1974C434.257 39.1146 434.318 38.992 434.318 38.8295V38.7997C434.318 38.4848 434.218 38.2412 434.02 38.0689C433.824 37.8965 433.546 37.8104 433.184 37.8104C432.803 37.8104 432.5 37.8949 432.275 38.0639C432.049 38.2296 431.9 38.4384 431.827 38.6903L429.868 38.5312C429.968 38.0672 430.163 37.6662 430.455 37.3281C430.747 36.9867 431.123 36.7249 431.584 36.5426C432.048 36.357 432.584 36.2642 433.194 36.2642C433.619 36.2642 434.025 36.3139 434.412 36.4134C434.803 36.5128 435.15 36.6669 435.451 36.8757C435.756 37.0845 435.997 37.353 436.172 37.6811C436.348 38.0059 436.436 38.3954 436.436 38.8494V44H434.427V42.9411H434.368C434.245 43.1797 434.081 43.3902 433.875 43.5724C433.67 43.7514 433.423 43.8923 433.135 43.995C432.846 44.0945 432.513 44.1442 432.135 44.1442ZM432.742 42.6825C433.053 42.6825 433.329 42.6212 433.567 42.4986C433.806 42.3726 433.993 42.2036 434.129 41.9915C434.265 41.7794 434.333 41.5391 434.333 41.2706V40.4602C434.267 40.5033 434.175 40.5431 434.059 40.5795C433.947 40.6127 433.819 40.6442 433.677 40.674C433.534 40.7005 433.392 40.7254 433.249 40.7486C433.107 40.7685 432.977 40.7867 432.861 40.8033C432.613 40.8397 432.396 40.8977 432.21 40.9773C432.024 41.0568 431.88 41.1645 431.777 41.3004C431.675 41.433 431.623 41.5987 431.623 41.7976C431.623 42.0859 431.728 42.3063 431.937 42.4588C432.149 42.608 432.417 42.6825 432.742 42.6825ZM432.513 35.3793L433.567 33.1172H435.526L434.01 35.3793H432.513ZM445.025 36.3636L442.355 44H439.969L437.299 36.3636H439.536L441.122 41.8274H441.202L442.783 36.3636H445.025ZM449.443 44.1491C448.657 44.1491 447.981 43.9901 447.414 43.6719C446.851 43.3504 446.417 42.8963 446.112 42.3097C445.807 41.7197 445.654 41.022 445.654 40.2166C445.654 39.4311 445.807 38.7417 446.112 38.1484C446.417 37.5552 446.846 37.0928 447.399 36.7614C447.956 36.4299 448.609 36.2642 449.358 36.2642C449.862 36.2642 450.331 36.3454 450.765 36.5078C451.203 36.6669 451.584 36.9072 451.909 37.2287C452.237 37.5502 452.492 37.9545 452.674 38.4418C452.856 38.9257 452.948 39.4924 452.948 40.142V40.7237H446.499V39.4112H450.954C450.954 39.1063 450.888 38.8362 450.755 38.6009C450.623 38.3655 450.439 38.1816 450.203 38.049C449.971 37.9131 449.701 37.8452 449.393 37.8452C449.071 37.8452 448.786 37.9197 448.538 38.0689C448.293 38.2147 448.1 38.4119 447.961 38.6605C447.822 38.9058 447.751 39.1792 447.747 39.4808V40.7287C447.747 41.1065 447.817 41.433 447.956 41.7081C448.099 41.9832 448.299 42.1953 448.558 42.3445C448.816 42.4936 449.123 42.5682 449.477 42.5682C449.713 42.5682 449.928 42.535 450.124 42.4688C450.319 42.4025 450.487 42.303 450.626 42.1705C450.765 42.0379 450.871 41.8755 450.944 41.6832L452.903 41.8125C452.803 42.2831 452.6 42.6941 452.291 43.0455C451.986 43.3935 451.592 43.6652 451.108 43.8608C450.628 44.053 450.072 44.1491 449.443 44.1491ZM454.43 44V36.3636H456.548V44H454.43ZM455.494 35.3793C455.179 35.3793 454.909 35.2749 454.683 35.0661C454.461 34.8539 454.35 34.6004 454.35 34.3054C454.35 34.0137 454.461 33.7635 454.683 33.5547C454.909 33.3426 455.179 33.2365 455.494 33.2365C455.809 33.2365 456.077 33.3426 456.299 33.5547C456.524 33.7635 456.637 34.0137 456.637 34.3054C456.637 34.6004 456.524 34.8539 456.299 35.0661C456.077 35.2749 455.809 35.3793 455.494 35.3793ZM464.698 38.5412L462.759 38.6605C462.726 38.4948 462.655 38.3456 462.545 38.2131C462.436 38.0772 462.292 37.9695 462.113 37.8899C461.937 37.8071 461.727 37.7656 461.481 37.7656C461.153 37.7656 460.876 37.8352 460.651 37.9744C460.426 38.1103 460.313 38.2926 460.313 38.5213C460.313 38.7036 460.386 38.8577 460.532 38.9837C460.678 39.1096 460.928 39.2107 461.282 39.2869L462.665 39.5653C463.407 39.7178 463.96 39.9631 464.325 40.3011C464.69 40.6392 464.872 41.0833 464.872 41.6335C464.872 42.134 464.724 42.5732 464.429 42.951C464.138 43.3288 463.737 43.6238 463.226 43.8359C462.719 44.0447 462.134 44.1491 461.471 44.1491C460.46 44.1491 459.655 43.9387 459.055 43.5178C458.459 43.0935 458.109 42.5168 458.006 41.7876L460.089 41.6783C460.152 41.9865 460.305 42.2218 460.547 42.3842C460.789 42.5433 461.098 42.6229 461.476 42.6229C461.848 42.6229 462.146 42.5516 462.371 42.4091C462.6 42.2633 462.716 42.076 462.719 41.8473C462.716 41.6551 462.635 41.4976 462.476 41.375C462.316 41.2491 462.071 41.1529 461.74 41.0866L460.417 40.8232C459.672 40.674 459.116 40.4155 458.752 40.0476C458.391 39.6797 458.21 39.2107 458.21 38.6406C458.21 38.1501 458.343 37.7275 458.608 37.3729C458.876 37.0182 459.252 36.7448 459.736 36.5526C460.223 36.3603 460.794 36.2642 461.446 36.2642C462.411 36.2642 463.17 36.468 463.723 36.8757C464.28 37.2834 464.605 37.8385 464.698 38.5412ZM55.562 59.1442C55.0748 59.1442 54.6406 59.0597 54.2594 58.8906C53.8783 58.7183 53.5767 58.4647 53.3546 58.13C53.1358 57.7919 53.0265 57.371 53.0265 56.8672C53.0265 56.4429 53.1043 56.0866 53.2601 55.7983C53.4159 55.5099 53.628 55.2779 53.8965 55.1023C54.165 54.9266 54.4699 54.794 54.8113 54.7045C55.156 54.6151 55.5172 54.5521 55.8951 54.5156C56.3392 54.4692 56.6972 54.4261 56.9689 54.3864C57.2407 54.3433 57.4379 54.2803 57.5606 54.1974C57.6832 54.1146 57.7445 53.992 57.7445 53.8295V53.7997C57.7445 53.4848 57.6451 53.2412 57.4462 53.0689C57.2507 52.8965 56.9722 52.8104 56.611 52.8104C56.2298 52.8104 55.9266 52.8949 55.7012 53.0639C55.4758 53.2296 55.3267 53.4384 55.2537 53.6903L53.2949 53.5312C53.3944 53.0672 53.5899 52.6662 53.8816 52.3281C54.1732 51.9867 54.5494 51.7249 55.0101 51.5426C55.4741 51.357 56.0111 51.2642 56.6209 51.2642C57.0452 51.2642 57.4512 51.3139 57.839 51.4134C58.2301 51.5128 58.5764 51.6669 58.878 51.8757C59.1829 52.0845 59.4232 52.353 59.5989 52.6811C59.7746 53.0059 59.8624 53.3954 59.8624 53.8494V59H57.8539V57.9411H57.7942C57.6716 58.1797 57.5075 58.3902 57.302 58.5724C57.0965 58.7514 56.8496 58.8923 56.5613 58.995C56.2729 59.0945 55.9398 59.1442 55.562 59.1442ZM56.1685 57.6825C56.4801 57.6825 56.7552 57.6212 56.9938 57.4986C57.2324 57.3726 57.4197 57.2036 57.5556 56.9915C57.6915 56.7794 57.7594 56.5391 57.7594 56.2706V55.4602C57.6931 55.5033 57.602 55.5431 57.486 55.5795C57.3733 55.6127 57.2457 55.6442 57.1032 55.674C56.9606 55.7005 56.8181 55.7254 56.6756 55.7486C56.5331 55.7685 56.4038 55.7867 56.2878 55.8033C56.0392 55.8397 55.8222 55.8977 55.6365 55.9773C55.4509 56.0568 55.3068 56.1645 55.204 56.3004C55.1013 56.433 55.0499 56.5987 55.0499 56.7976C55.0499 57.0859 55.1543 57.3063 55.3631 57.4588C55.5752 57.608 55.8437 57.6825 56.1685 57.6825ZM65.0558 59.1491C64.2835 59.1491 63.6157 58.9851 63.0522 58.657C62.4921 58.3255 62.0596 57.8648 61.7547 57.2749C61.4497 56.6816 61.2973 55.9938 61.2973 55.2116C61.2973 54.4228 61.4497 53.7334 61.7547 53.1435C62.0596 52.5502 62.4921 52.0895 63.0522 51.7614C63.6157 51.4299 64.2835 51.2642 65.0558 51.2642C65.828 51.2642 66.4942 51.4299 67.0544 51.7614C67.6178 52.0895 68.052 52.5502 68.3569 53.1435C68.6619 53.7334 68.8143 54.4228 68.8143 55.2116C68.8143 55.9938 68.6619 56.6816 68.3569 57.2749C68.052 57.8648 67.6178 58.3255 67.0544 58.657C66.4942 58.9851 65.828 59.1491 65.0558 59.1491ZM65.0657 57.5085C65.4171 57.5085 65.7104 57.4091 65.9457 57.2102C66.181 57.008 66.3584 56.733 66.4777 56.3849C66.6003 56.0369 66.6616 55.6409 66.6616 55.1967C66.6616 54.7526 66.6003 54.3565 66.4777 54.0085C66.3584 53.6605 66.181 53.3854 65.9457 53.1832C65.7104 52.9811 65.4171 52.88 65.0657 52.88C64.7111 52.88 64.4128 52.9811 64.1709 53.1832C63.9322 53.3854 63.7516 53.6605 63.6289 54.0085C63.5096 54.3565 63.45 54.7526 63.45 55.1967C63.45 55.6409 63.5096 56.0369 63.6289 56.3849C63.7516 56.733 63.9322 57.008 64.1709 57.2102C64.4128 57.4091 64.7111 57.5085 65.0657 57.5085ZM79.9854 53.5412L78.0465 53.6605C78.0133 53.4948 77.9421 53.3456 77.8327 53.2131C77.7233 53.0772 77.5791 52.9695 77.4001 52.8899C77.2245 52.8071 77.014 52.7656 76.7688 52.7656C76.4406 52.7656 76.1639 52.8352 75.9385 52.9744C75.7131 53.1103 75.6004 53.2926 75.6004 53.5213C75.6004 53.7036 75.6733 53.8577 75.8192 53.9837C75.965 54.1096 76.2153 54.2107 76.5699 54.2869L77.952 54.5653C78.6944 54.7178 79.2479 54.9631 79.6125 55.3011C79.9771 55.6392 80.1594 56.0833 80.1594 56.6335C80.1594 57.134 80.0119 57.5732 79.7169 57.951C79.4252 58.3288 79.0242 58.6238 78.5138 58.8359C78.0067 59.0447 77.4217 59.1491 76.7588 59.1491C75.7479 59.1491 74.9425 58.9387 74.3426 58.5178C73.746 58.0935 73.3964 57.5168 73.2936 56.7876L75.3767 56.6783C75.4397 56.9865 75.5921 57.2218 75.8341 57.3842C76.076 57.5433 76.3859 57.6229 76.7638 57.6229C77.135 57.6229 77.4333 57.5516 77.6587 57.4091C77.8874 57.2633 78.0034 57.076 78.0067 56.8473C78.0034 56.6551 77.9222 56.4976 77.7631 56.375C77.604 56.2491 77.3587 56.1529 77.0273 56.0866L75.7048 55.8232C74.9591 55.674 74.4039 55.4155 74.0394 55.0476C73.6781 54.6797 73.4974 54.2107 73.4974 53.6406C73.4974 53.1501 73.63 52.7275 73.8952 52.3729C74.1636 52.0182 74.5398 51.7448 75.0237 51.5526C75.5109 51.3603 76.081 51.2642 76.734 51.2642C77.6984 51.2642 78.4574 51.468 79.0109 51.8757C79.5678 52.2834 79.8926 52.8385 79.9854 53.5412ZM85.0731 59.1491C84.2876 59.1491 83.6115 58.9901 83.0447 58.6719C82.4813 58.3504 82.0471 57.8963 81.7422 57.3097C81.4372 56.7197 81.2848 56.022 81.2848 55.2166C81.2848 54.4311 81.4372 53.7417 81.7422 53.1484C82.0471 52.5552 82.4763 52.0928 83.0298 51.7614C83.5866 51.4299 84.2396 51.2642 84.9886 51.2642C85.4924 51.2642 85.9614 51.3454 86.3956 51.5078C86.8331 51.6669 87.2142 51.9072 87.539 52.2287C87.8672 52.5502 88.1224 52.9545 88.3047 53.4418C88.4869 53.9257 88.5781 54.4924 88.5781 55.142V55.7237H82.1299V54.4112H86.5845C86.5845 54.1063 86.5182 53.8362 86.3856 53.6009C86.253 53.3655 86.0691 53.1816 85.8338 53.049C85.6018 52.9131 85.3316 52.8452 85.0234 52.8452C84.7019 52.8452 84.4169 52.9197 84.1683 53.0689C83.923 53.2147 83.7308 53.4119 83.5916 53.6605C83.4524 53.9058 83.3811 54.1792 83.3778 54.4808V55.7287C83.3778 56.1065 83.4474 56.433 83.5866 56.7081C83.7291 56.9832 83.9297 57.1953 84.1882 57.3445C84.4467 57.4936 84.7533 57.5682 85.1079 57.5682C85.3432 57.5682 85.5587 57.535 85.7542 57.4688C85.9498 57.4025 86.1172 57.303 86.2564 57.1705C86.3956 57.0379 86.5016 56.8755 86.5745 56.6832L88.5334 56.8125C88.4339 57.2831 88.2301 57.6941 87.9218 58.0455C87.6169 58.3935 87.2225 58.6652 86.7386 58.8608C86.258 59.053 85.7029 59.1491 85.0731 59.1491ZM94.9572 55.7486V51.3636H97.0751V59H95.0417V57.6129H94.9622C94.7898 58.0604 94.5031 58.42 94.1021 58.6918C93.7044 58.9635 93.2188 59.0994 92.6454 59.0994C92.135 59.0994 91.6859 58.9834 91.2981 58.7514C90.9103 58.5194 90.6071 58.1896 90.3883 57.7621C90.1729 57.3345 90.0635 56.8224 90.0602 56.2259V51.3636H92.1781V55.848C92.1814 56.2988 92.3024 56.6551 92.541 56.9169C92.7797 57.1787 93.0995 57.3097 93.5005 57.3097C93.7557 57.3097 93.9944 57.2517 94.2164 57.1357C94.4385 57.0163 94.6175 56.8407 94.7534 56.6087C94.8926 56.3767 94.9605 56.09 94.9572 55.7486ZM105.66 59.1491C104.887 59.1491 104.22 58.9851 103.656 58.657C103.096 58.3255 102.663 57.8648 102.359 57.2749C102.054 56.6816 101.901 55.9938 101.901 55.2116C101.901 54.4228 102.054 53.7334 102.359 53.1435C102.663 52.5502 103.096 52.0895 103.656 51.7614C104.22 51.4299 104.887 51.2642 105.66 51.2642C106.432 51.2642 107.098 51.4299 107.658 51.7614C108.222 52.0895 108.656 52.5502 108.961 53.1435C109.266 53.7334 109.418 54.4228 109.418 55.2116C109.418 55.9938 109.266 56.6816 108.961 57.2749C108.656 57.8648 108.222 58.3255 107.658 58.657C107.098 58.9851 106.432 59.1491 105.66 59.1491ZM105.67 57.5085C106.021 57.5085 106.314 57.4091 106.55 57.2102C106.785 57.008 106.962 56.733 107.082 56.3849C107.204 56.0369 107.266 55.6409 107.266 55.1967C107.266 54.7526 107.204 54.3565 107.082 54.0085C106.962 53.6605 106.785 53.3854 106.55 53.1832C106.314 52.9811 106.021 52.88 105.67 52.88C105.315 52.88 105.017 52.9811 104.775 53.1832C104.536 53.3854 104.355 53.6605 104.233 54.0085C104.114 54.3565 104.054 54.7526 104.054 55.1967C104.054 55.6409 104.114 56.0369 104.233 56.3849C104.355 56.733 104.536 57.008 104.775 57.2102C105.017 57.4091 105.315 57.5085 105.67 57.5085ZM110.895 59V51.3636H112.949V52.696H113.028C113.167 52.2221 113.401 51.8641 113.729 51.6222C114.057 51.3769 114.435 51.2543 114.863 51.2543C114.969 51.2543 115.083 51.2609 115.206 51.2741C115.328 51.2874 115.436 51.3056 115.529 51.3288V53.2081C115.429 53.1783 115.292 53.1518 115.116 53.1286C114.941 53.1054 114.78 53.0938 114.634 53.0938C114.322 53.0938 114.044 53.1617 113.799 53.2976C113.557 53.4302 113.365 53.6158 113.222 53.8544C113.083 54.093 113.013 54.3681 113.013 54.6797V59H110.895ZM119.819 59.1491C119.036 59.1491 118.364 58.9834 117.8 58.652C117.24 58.3172 116.809 57.8532 116.508 57.2599C116.209 56.6667 116.06 55.9839 116.06 55.2116C116.06 54.4295 116.211 53.7434 116.513 53.1534C116.818 52.5601 117.25 52.0978 117.81 51.7663C118.37 51.4316 119.036 51.2642 119.809 51.2642C120.475 51.2642 121.058 51.3852 121.559 51.6271C122.059 51.8691 122.455 52.2088 122.747 52.6463C123.039 53.0838 123.199 53.5975 123.229 54.1875H121.231C121.174 53.8063 121.025 53.4998 120.783 53.2678C120.545 53.0324 120.231 52.9148 119.844 52.9148C119.515 52.9148 119.229 53.0043 118.983 53.1832C118.742 53.3589 118.553 53.6158 118.417 53.9538C118.281 54.2919 118.213 54.7012 118.213 55.1818C118.213 55.669 118.279 56.0833 118.412 56.4247C118.548 56.7661 118.738 57.0263 118.983 57.2053C119.229 57.3842 119.515 57.4737 119.844 57.4737C120.085 57.4737 120.303 57.424 120.495 57.3246C120.69 57.2251 120.851 57.081 120.977 56.892C121.106 56.6998 121.191 56.4695 121.231 56.201H123.229C123.196 56.7843 123.037 57.2981 122.752 57.7422C122.47 58.183 122.081 58.5277 121.584 58.7763C121.086 59.0249 120.498 59.1491 119.819 59.1491ZM119.322 58.9602H120.296L120.216 59.3928C120.558 59.4458 120.836 59.5734 121.052 59.7756C121.27 59.9777 121.381 60.2528 121.385 60.6009C121.388 61.0947 121.159 61.4875 120.699 61.7791C120.238 62.0741 119.592 62.2216 118.76 62.2216L118.74 61.277C119.157 61.277 119.484 61.2256 119.719 61.1229C119.958 61.0234 120.082 60.8677 120.092 60.6555C120.099 60.4534 120.021 60.2992 119.858 60.1932C119.696 60.0871 119.443 60.0125 119.098 59.9695L119.322 58.9602ZM126.863 59.1442C126.376 59.1442 125.941 59.0597 125.56 58.8906C125.179 58.7183 124.877 58.4647 124.655 58.13C124.437 57.7919 124.327 57.371 124.327 56.8672C124.327 56.4429 124.405 56.0866 124.561 55.7983C124.717 55.5099 124.929 55.2779 125.197 55.1023C125.466 54.9266 125.771 54.794 126.112 54.7045C126.457 54.6151 126.818 54.5521 127.196 54.5156C127.64 54.4692 127.998 54.4261 128.27 54.3864C128.541 54.3433 128.739 54.2803 128.861 54.1974C128.984 54.1146 129.045 53.992 129.045 53.8295V53.7997C129.045 53.4848 128.946 53.2412 128.747 53.0689C128.551 52.8965 128.273 52.8104 127.912 52.8104C127.531 52.8104 127.227 52.8949 127.002 53.0639C126.777 53.2296 126.627 53.4384 126.555 53.6903L124.596 53.5312C124.695 53.0672 124.891 52.6662 125.182 52.3281C125.474 51.9867 125.85 51.7249 126.311 51.5426C126.775 51.357 127.312 51.2642 127.922 51.2642C128.346 51.2642 128.752 51.3139 129.14 51.4134C129.531 51.5128 129.877 51.6669 130.179 51.8757C130.484 52.0845 130.724 52.353 130.9 52.6811C131.075 53.0059 131.163 53.3954 131.163 53.8494V59H129.155V57.9411H129.095C128.972 58.1797 128.808 58.3902 128.603 58.5724C128.397 58.7514 128.15 58.8923 127.862 58.995C127.574 59.0945 127.241 59.1442 126.863 59.1442ZM127.469 57.6825C127.781 57.6825 128.056 57.6212 128.295 57.4986C128.533 57.3726 128.72 57.2036 128.856 56.9915C128.992 56.7794 129.06 56.5391 129.06 56.2706V55.4602C128.994 55.5033 128.903 55.5431 128.787 55.5795C128.674 55.6127 128.546 55.6442 128.404 55.674C128.261 55.7005 128.119 55.7254 127.976 55.7486C127.834 55.7685 127.705 55.7867 127.589 55.8033C127.34 55.8397 127.123 55.8977 126.937 55.9773C126.752 56.0568 126.608 56.1645 126.505 56.3004C126.402 56.433 126.351 56.5987 126.351 56.7976C126.351 57.0859 126.455 57.3063 126.664 57.4588C126.876 57.608 127.144 57.6825 127.469 57.6825ZM132.906 59V51.3636H134.925V52.7109H135.014C135.173 52.2635 135.438 51.9105 135.81 51.652C136.181 51.3935 136.625 51.2642 137.142 51.2642C137.666 51.2642 138.112 51.3951 138.479 51.657C138.847 51.9155 139.093 52.2668 139.215 52.7109H139.295C139.451 52.2734 139.732 51.9238 140.14 51.6619C140.551 51.3968 141.036 51.2642 141.597 51.2642C142.309 51.2642 142.888 51.4912 143.332 51.9453C143.779 52.3961 144.003 53.0357 144.003 53.8643V59H141.89V54.282C141.89 53.8577 141.777 53.5395 141.552 53.3274C141.327 53.1153 141.045 53.0092 140.707 53.0092C140.322 53.0092 140.022 53.1319 139.807 53.3771C139.591 53.6191 139.484 53.9389 139.484 54.3366V59H137.43V54.2372C137.43 53.8627 137.323 53.5644 137.107 53.3423C136.895 53.1203 136.615 53.0092 136.267 53.0092C136.032 53.0092 135.82 53.0689 135.631 53.1882C135.445 53.3042 135.298 53.4683 135.188 53.6804C135.079 53.8892 135.024 54.1345 135.024 54.4162V59H132.906ZM149.256 59.1491C148.47 59.1491 147.794 58.9901 147.228 58.6719C146.664 58.3504 146.23 57.8963 145.925 57.3097C145.62 56.7197 145.468 56.022 145.468 55.2166C145.468 54.4311 145.62 53.7417 145.925 53.1484C146.23 52.5552 146.659 52.0928 147.213 51.7614C147.769 51.4299 148.422 51.2642 149.171 51.2642C149.675 51.2642 150.144 51.3454 150.578 51.5078C151.016 51.6669 151.397 51.9072 151.722 52.2287C152.05 52.5502 152.305 52.9545 152.487 53.4418C152.67 53.9257 152.761 54.4924 152.761 55.142V55.7237H146.313V54.4112H150.767C150.767 54.1063 150.701 53.8362 150.568 53.6009C150.436 53.3655 150.252 53.1816 150.017 53.049C149.785 52.9131 149.514 52.8452 149.206 52.8452C148.885 52.8452 148.6 52.9197 148.351 53.0689C148.106 53.2147 147.914 53.4119 147.774 53.6605C147.635 53.9058 147.564 54.1792 147.561 54.4808V55.7287C147.561 56.1065 147.63 56.433 147.769 56.7081C147.912 56.9832 148.112 57.1953 148.371 57.3445C148.63 57.4936 148.936 57.5682 149.291 57.5682C149.526 57.5682 149.741 57.535 149.937 57.4688C150.133 57.4025 150.3 57.303 150.439 57.1705C150.578 57.0379 150.684 56.8755 150.757 56.6832L152.716 56.8125C152.617 57.2831 152.413 57.6941 152.105 58.0455C151.8 58.3935 151.405 58.6652 150.921 58.8608C150.441 59.053 149.886 59.1491 149.256 59.1491ZM156.361 54.5852V59H154.243V51.3636H156.261V52.7109H156.351C156.52 52.2668 156.803 51.9155 157.201 51.657C157.599 51.3951 158.081 51.2642 158.648 51.2642C159.178 51.2642 159.641 51.3802 160.035 51.6122C160.429 51.8442 160.736 52.1757 160.955 52.6065C161.173 53.0341 161.283 53.5445 161.283 54.1378V59H159.165V54.5156C159.168 54.0483 159.049 53.6837 158.807 53.4219C158.565 53.1567 158.232 53.0241 157.808 53.0241C157.523 53.0241 157.271 53.0855 157.052 53.2081C156.837 53.3307 156.667 53.5097 156.545 53.745C156.426 53.977 156.364 54.2571 156.361 54.5852ZM167.114 51.3636V52.9545H162.515V51.3636H167.114ZM163.559 49.5341H165.677V56.6534C165.677 56.849 165.707 57.0014 165.766 57.1108C165.826 57.2169 165.909 57.2914 166.015 57.3345C166.124 57.3776 166.25 57.3991 166.393 57.3991C166.492 57.3991 166.592 57.3909 166.691 57.3743C166.791 57.3544 166.867 57.3395 166.92 57.3295L167.253 58.9055C167.147 58.9387 166.998 58.9768 166.806 59.0199C166.613 59.0663 166.38 59.0945 166.105 59.1044C165.594 59.1243 165.147 59.0563 164.762 58.9006C164.381 58.7448 164.084 58.5028 163.872 58.1747C163.66 57.8466 163.556 57.4323 163.559 56.9318V49.5341ZM171.962 59.1491C171.189 59.1491 170.522 58.9851 169.958 58.657C169.398 58.3255 168.965 57.8648 168.661 57.2749C168.356 56.6816 168.203 55.9938 168.203 55.2116C168.203 54.4228 168.356 53.7334 168.661 53.1435C168.965 52.5502 169.398 52.0895 169.958 51.7614C170.522 51.4299 171.189 51.2642 171.962 51.2642C172.734 51.2642 173.4 51.4299 173.96 51.7614C174.524 52.0895 174.958 52.5502 175.263 53.1435C175.568 53.7334 175.72 54.4228 175.72 55.2116C175.72 55.9938 175.568 56.6816 175.263 57.2749C174.958 57.8648 174.524 58.3255 173.96 58.657C173.4 58.9851 172.734 59.1491 171.962 59.1491ZM171.972 57.5085C172.323 57.5085 172.616 57.4091 172.852 57.2102C173.087 57.008 173.264 56.733 173.384 56.3849C173.506 56.0369 173.567 55.6409 173.567 55.1967C173.567 54.7526 173.506 54.3565 173.384 54.0085C173.264 53.6605 173.087 53.3854 172.852 53.1832C172.616 52.9811 172.323 52.88 171.972 52.88C171.617 52.88 171.319 52.9811 171.077 53.1832C170.838 53.3854 170.657 53.6605 170.535 54.0085C170.415 54.3565 170.356 54.7526 170.356 55.1967C170.356 55.6409 170.415 56.0369 170.535 56.3849C170.657 56.733 170.838 57.008 171.077 57.2102C171.319 57.4091 171.617 57.5085 171.972 57.5085ZM178.435 59.1293C178.107 59.1293 177.825 59.0133 177.59 58.7812C177.358 58.5459 177.242 58.2642 177.242 57.9361C177.242 57.6113 177.358 57.3329 177.59 57.1009C177.825 56.8688 178.107 56.7528 178.435 56.7528C178.753 56.7528 179.032 56.8688 179.27 57.1009C179.509 57.3329 179.628 57.6113 179.628 57.9361C179.628 58.1548 179.572 58.3554 179.459 58.5376C179.35 58.7166 179.206 58.8608 179.027 58.9702C178.848 59.0762 178.651 59.1293 178.435 59.1293Z" fill="#134967"/>
</g>
<path fill-rule="evenodd" clip-rule="evenodd" d="M33.6093 48.2034C34.5848 47.6571 35.4369 46.9265 36.1151 46.0549C35.8965 45.7257 35.741 45.3609 35.656 44.9782L35.624 44.8349C35.5324 44.4256 35.3167 44.0522 35.0045 43.7626C34.6922 43.473 34.2978 43.2803 33.8717 43.2093C30.3872 42.6229 30.3872 37.7786 33.8717 37.1906C34.2832 37.1219 34.6656 36.9397 34.9728 36.6658C35.2801 36.3919 35.4992 36.0379 35.6039 35.6464C34.7845 34.7815 33.7818 34.0985 32.6644 33.644C31.5471 33.1895 30.3415 32.9743 29.1303 33.0131C27.9191 33.052 26.7309 33.3439 25.647 33.869C24.5632 34.3941 23.6093 35.1399 22.8508 36.0554C22.0923 36.9708 21.547 38.0342 21.2523 39.1728C20.9577 40.3114 20.9206 41.4982 21.1436 42.6519C21.3666 43.8057 21.8445 44.8991 22.5445 45.8573C23.2445 46.8155 24.15 47.6158 25.1991 48.2034V50.1076C25.1991 50.5396 25.3763 50.9539 25.6916 51.2594C26.007 51.5649 26.4348 51.7365 26.8808 51.7365H31.9259C32.372 51.7365 32.7997 51.5649 33.1151 51.2594C33.4305 50.9539 33.6077 50.5396 33.6077 50.1076L33.6093 48.2034ZM25.2008 54.587C25.2008 54.263 25.3336 53.9523 25.5702 53.7232C25.8067 53.4941 26.1275 53.3653 26.462 53.3653H32.3481C32.6826 53.3653 33.0034 53.4941 33.2399 53.7232C33.4765 53.9523 33.6093 54.263 33.6093 54.587C33.6093 54.911 33.4765 55.2217 33.2399 55.4509C33.0034 55.68 32.6826 55.8087 32.3481 55.8087H26.462C26.1275 55.8087 25.8067 55.68 25.5702 55.4509C25.3336 55.2217 25.2008 54.911 25.2008 54.587ZM37.4437 35.8011C37.7514 34.4394 39.7527 34.4312 40.0722 35.7897L40.0873 35.8549L40.1176 35.9819C40.2991 36.726 40.7019 37.4021 41.2761 37.9267C41.8503 38.4513 42.5707 38.8014 43.3482 38.9335C44.8146 39.181 44.8146 41.2204 43.3482 41.468C42.5662 41.6007 41.842 41.9538 41.2662 42.4831C40.6904 43.0125 40.2885 43.6945 40.1109 44.444L40.0722 44.6101C39.7527 45.9702 37.7497 45.9621 37.4403 44.5987L37.4083 44.457C37.2388 43.7047 36.8418 43.0183 36.2679 42.4854C35.6941 41.9525 34.9693 41.5971 34.1862 41.4647C32.7214 41.2188 32.7214 39.1827 34.1862 38.9351C34.9666 38.8036 35.6892 38.4508 36.2625 37.9214C36.8358 37.3919 37.234 36.7095 37.4067 35.9607L37.4319 35.8549L37.4437 35.8011Z" fill="#134967"/>
<defs>
<filter id="filter0_dd_11_137" x="0" y="0" width="500" height="89" filterUnits="userSpaceOnUse" color-interpolation-filters="sRGB">
<feFlood flood-opacity="0" result="BackgroundImageFix"/>
<feColorMatrix in="SourceAlpha" type="matrix" values="0 0 0 0 0 0 0 0 0 0 0 0 0 0 0 0 0 0 127 0" result="hardAlpha"/>
<feOffset dy="4"/>
<feComposite in2="hardAlpha" operator="out"/>
<feColorMatrix type="matrix" values="0 0 0 0 0 0 0 0 0 0 0 0 0 0 0 0 0 0 0.04 0"/>
<feBlend mode="normal" in2="BackgroundImageFix" result="effect1_dropShadow_11_137"/>
<feColorMatrix in="SourceAlpha" type="matrix" values="0 0 0 0 0 0 0 0 0 0 0 0 0 0 0 0 0 0 127 0" result="hardAlpha"/>
<feOffset dy="4"/>
<feComposite in2="hardAlpha" operator="out"/>
<feColorMatrix type="matrix" values="0 0 0 0 0 0 0 0 0 0 0 0 0 0 0 0 0 0 0.04 0"/>
<feBlend mode="normal" in2="effect1_dropShadow_11_137" result="effect2_dropShadow_11_137"/>
<feBlend mode="normal" in="SourceGraphic" in2="effect2_dropShadow_11_137" result="shape"/>
</filter>
<clipPath id="clip0_11_137">
<rect width="417" height="30" fill="white" transform="translate(52.5392 31)"/>
</clipPath>
</defs>
</svg>
