<svg width="525" height="89" viewBox="0 0 525 89" fill="none" xmlns="http://www.w3.org/2000/svg">
<g filter="url(#filter0_dd_43_53)">
<path d="M0.5 15C0.5 6.71573 7.21573 0 15.5 0H485.5C493.784 0 500.5 6.71573 500.5 15V70C500.5 78.2843 493.784 85 485.5 85H15.5C7.21571 85 0.5 78.2843 0.5 70V15Z" fill="white"/>
</g>
<g clip-path="url(#clip0_43_53)">
<path d="M91.6364 33.1094C91.5668 32.8674 91.469 32.6536 91.343 32.468C91.2171 32.2791 91.063 32.12 90.8807 31.9908C90.7017 31.8582 90.4962 31.7571 90.2642 31.6875C90.0355 31.6179 89.782 31.5831 89.5036 31.5831C88.9832 31.5831 88.5258 31.7124 88.1314 31.9709C87.7403 32.2294 87.4354 32.6056 87.2166 33.0994C86.9979 33.59 86.8885 34.1899 86.8885 34.8991C86.8885 35.6084 86.9962 36.2116 87.2116 36.7088C87.4271 37.206 87.732 37.5855 88.1264 37.8473C88.5208 38.1058 88.9865 38.2351 89.5234 38.2351C90.0107 38.2351 90.4266 38.1489 90.7713 37.9766C91.1193 37.8009 91.3845 37.554 91.5668 37.2358C91.7524 36.9176 91.8452 36.5414 91.8452 36.1072L92.2827 36.1719H89.6577V34.5511H93.9183V35.8338C93.9183 36.7287 93.7294 37.4976 93.3516 38.1406C92.9737 38.7803 92.4534 39.2741 91.7905 39.6222C91.1276 39.9669 90.3686 40.1392 89.5135 40.1392C88.5589 40.1392 87.7204 39.9287 86.9979 39.5078C86.2753 39.0836 85.7119 38.482 85.3075 37.7031C84.9065 36.9209 84.706 35.9929 84.706 34.919C84.706 34.0937 84.8253 33.358 85.0639 32.7116C85.3059 32.062 85.6439 31.5118 86.0781 31.0611C86.5123 30.6103 87.0178 30.2673 87.5945 30.032C88.1712 29.7966 88.7959 29.679 89.4688 29.679C90.0455 29.679 90.5824 29.7635 91.0795 29.9325C91.5767 30.0982 92.0175 30.3336 92.402 30.6385C92.7898 30.9434 93.1063 31.3063 93.3516 31.7273C93.5968 32.1449 93.7543 32.6056 93.8239 33.1094H91.6364ZM97.7731 40.1442C97.2859 40.1442 96.8517 40.0597 96.4706 39.8906C96.0894 39.7183 95.7878 39.4647 95.5657 39.13C95.347 38.7919 95.2376 38.371 95.2376 37.8672C95.2376 37.4429 95.3155 37.0866 95.4713 36.7983C95.627 36.5099 95.8392 36.2779 96.1076 36.1023C96.3761 35.9266 96.681 35.794 97.0224 35.7045C97.3671 35.6151 97.7284 35.5521 98.1062 35.5156C98.5503 35.4692 98.9083 35.4261 99.1801 35.3864C99.4519 35.3433 99.6491 35.2803 99.7717 35.1974C99.8943 35.1146 99.9556 34.992 99.9556 34.8295V34.7997C99.9556 34.4848 99.8562 34.2412 99.6574 34.0689C99.4618 33.8965 99.1834 33.8104 98.8221 33.8104C98.441 33.8104 98.1377 33.8949 97.9123 34.0639C97.6869 34.2296 97.5378 34.4384 97.4649 34.6903L95.5061 34.5312C95.6055 34.0672 95.8011 33.6662 96.0927 33.3281C96.3844 32.9867 96.7606 32.7249 97.2213 32.5426C97.6853 32.357 98.2222 32.2642 98.8321 32.2642C99.2563 32.2642 99.6623 32.3139 100.05 32.4134C100.441 32.5128 100.788 32.6669 101.089 32.8757C101.394 33.0845 101.634 33.353 101.81 33.6811C101.986 34.0059 102.074 34.3954 102.074 34.8494V40H100.065V38.9411H100.005C99.8827 39.1797 99.7187 39.3902 99.5132 39.5724C99.3077 39.7514 99.0608 39.8923 98.7724 39.995C98.4841 40.0945 98.151 40.1442 97.7731 40.1442ZM98.3797 38.6825C98.6912 38.6825 98.9663 38.6212 99.2049 38.4986C99.4436 38.3726 99.6308 38.2036 99.7667 37.9915C99.9026 37.7794 99.9706 37.5391 99.9706 37.2706V36.4602C99.9043 36.5033 99.8131 36.5431 99.6971 36.5795C99.5844 36.6127 99.4568 36.6442 99.3143 36.674C99.1718 36.7005 99.0293 36.7254 98.8868 36.7486C98.7442 36.7685 98.615 36.7867 98.499 36.8033C98.2504 36.8397 98.0333 36.8977 97.8477 36.9773C97.6621 37.0568 97.5179 37.1645 97.4152 37.3004C97.3124 37.433 97.261 37.5987 97.261 37.7976C97.261 38.0859 97.3654 38.3063 97.5743 38.4588C97.7864 38.608 98.0548 38.6825 98.3797 38.6825ZM103.817 40V32.3636H105.87V33.696H105.949C106.089 33.2221 106.322 32.8641 106.65 32.6222C106.979 32.3769 107.356 32.2543 107.784 32.2543C107.89 32.2543 108.004 32.2609 108.127 32.2741C108.25 32.2874 108.357 32.3056 108.45 32.3288V34.2081C108.351 34.1783 108.213 34.1518 108.038 34.1286C107.862 34.1054 107.701 34.0938 107.555 34.0938C107.244 34.0938 106.965 34.1617 106.72 34.2976C106.478 34.4302 106.286 34.6158 106.143 34.8544C106.004 35.093 105.935 35.3681 105.935 35.6797V40H103.817ZM111.604 40.1442C111.117 40.1442 110.683 40.0597 110.301 39.8906C109.92 39.7183 109.619 39.4647 109.397 39.13C109.178 38.7919 109.068 38.371 109.068 37.8672C109.068 37.4429 109.146 37.0866 109.302 36.7983C109.458 36.5099 109.67 36.2779 109.938 36.1023C110.207 35.9266 110.512 35.794 110.853 35.7045C111.198 35.6151 111.559 35.5521 111.937 35.5156C112.381 35.4692 112.739 35.4261 113.011 35.3864C113.283 35.3433 113.48 35.2803 113.603 35.1974C113.725 35.1146 113.787 34.992 113.787 34.8295V34.7997C113.787 34.4848 113.687 34.2412 113.488 34.0689C113.293 33.8965 113.014 33.8104 112.653 33.8104C112.272 33.8104 111.969 33.8949 111.743 34.0639C111.518 34.2296 111.369 34.4384 111.296 34.6903L109.337 34.5312C109.436 34.0672 109.632 33.6662 109.924 33.3281C110.215 32.9867 110.591 32.7249 111.052 32.5426C111.516 32.357 112.053 32.2642 112.663 32.2642C113.087 32.2642 113.493 32.3139 113.881 32.4134C114.272 32.5128 114.618 32.6669 114.92 32.8757C115.225 33.0845 115.465 33.353 115.641 33.6811C115.817 34.0059 115.904 34.3954 115.904 34.8494V40H113.896V38.9411H113.836C113.714 39.1797 113.55 39.3902 113.344 39.5724C113.139 39.7514 112.892 39.8923 112.603 39.995C112.315 40.0945 111.982 40.1442 111.604 40.1442ZM112.211 38.6825C112.522 38.6825 112.797 38.6212 113.036 38.4986C113.274 38.3726 113.462 38.2036 113.598 37.9915C113.733 37.7794 113.801 37.5391 113.801 37.2706V36.4602C113.735 36.5033 113.644 36.5431 113.528 36.5795C113.415 36.6127 113.288 36.6442 113.145 36.674C113.003 36.7005 112.86 36.7254 112.718 36.7486C112.575 36.7685 112.446 36.7867 112.33 36.8033C112.081 36.8397 111.864 36.8977 111.679 36.9773C111.493 37.0568 111.349 37.1645 111.246 37.3004C111.143 37.433 111.092 37.5987 111.092 37.7976C111.092 38.0859 111.196 38.3063 111.405 38.4588C111.617 38.608 111.886 38.6825 112.211 38.6825ZM119.765 35.5852V40H117.648V32.3636H119.666V33.7109H119.755C119.925 33.2668 120.208 32.9155 120.606 32.657C121.003 32.3951 121.486 32.2642 122.052 32.2642C122.583 32.2642 123.045 32.3802 123.439 32.6122C123.834 32.8442 124.14 33.1757 124.359 33.6065C124.578 34.0341 124.687 34.5445 124.687 35.1378V40H122.569V35.5156C122.573 35.0483 122.453 34.6837 122.211 34.4219C121.969 34.1567 121.636 34.0241 121.212 34.0241C120.927 34.0241 120.675 34.0855 120.456 34.2081C120.241 34.3307 120.072 34.5097 119.949 34.745C119.83 34.977 119.769 35.2571 119.765 35.5852ZM130.518 32.3636V33.9545H125.92V32.3636H130.518ZM126.964 30.5341H129.081V37.6534C129.081 37.849 129.111 38.0014 129.171 38.1108C129.231 38.2169 129.314 38.2914 129.42 38.3345C129.529 38.3776 129.655 38.3991 129.797 38.3991C129.897 38.3991 129.996 38.3909 130.096 38.3743C130.195 38.3544 130.271 38.3395 130.324 38.3295L130.657 39.9055C130.551 39.9387 130.402 39.9768 130.21 40.0199C130.018 40.0663 129.784 40.0945 129.509 40.1044C128.999 40.1243 128.551 40.0563 128.167 39.9006C127.786 39.7448 127.489 39.5028 127.277 39.1747C127.065 38.8466 126.96 38.4323 126.964 37.9318V30.5341ZM131.998 40V32.3636H134.116V40H131.998ZM133.062 31.3793C132.747 31.3793 132.477 31.2749 132.251 31.0661C132.029 30.8539 131.918 30.6004 131.918 30.3054C131.918 30.0137 132.029 29.7635 132.251 29.5547C132.477 29.3426 132.747 29.2365 133.062 29.2365C133.377 29.2365 133.645 29.3426 133.867 29.5547C134.093 29.7635 134.205 30.0137 134.205 30.3054C134.205 30.6004 134.093 30.8539 133.867 31.0661C133.645 31.2749 133.377 31.3793 133.062 31.3793ZM135.912 40V32.3636H137.931V33.7109H138.02C138.179 33.2635 138.445 32.9105 138.816 32.652C139.187 32.3935 139.631 32.2642 140.148 32.2642C140.672 32.2642 141.118 32.3951 141.486 32.657C141.853 32.9155 142.099 33.2668 142.221 33.7109H142.301C142.457 33.2734 142.738 32.9238 143.146 32.6619C143.557 32.3968 144.043 32.2642 144.603 32.2642C145.315 32.2642 145.894 32.4912 146.338 32.9453C146.785 33.3961 147.009 34.0357 147.009 34.8643V40H144.896V35.282C144.896 34.8577 144.783 34.5395 144.558 34.3274C144.333 34.1153 144.051 34.0092 143.713 34.0092C143.328 34.0092 143.028 34.1319 142.813 34.3771C142.597 34.6191 142.49 34.9389 142.49 35.3366V40H140.437V35.2372C140.437 34.8627 140.329 34.5644 140.113 34.3423C139.901 34.1203 139.621 34.0092 139.273 34.0092C139.038 34.0092 138.826 34.0689 138.637 34.1882C138.451 34.3042 138.304 34.4683 138.194 34.6804C138.085 34.8892 138.03 35.1345 138.03 35.4162V40H135.912ZM152.232 40.1491C151.46 40.1491 150.792 39.9851 150.229 39.657C149.668 39.3255 149.236 38.8648 148.931 38.2749C148.626 37.6816 148.474 36.9938 148.474 36.2116C148.474 35.4228 148.626 34.7334 148.931 34.1435C149.236 33.5502 149.668 33.0895 150.229 32.7614C150.792 32.4299 151.46 32.2642 152.232 32.2642C153.004 32.2642 153.671 32.4299 154.231 32.7614C154.794 33.0895 155.228 33.5502 155.533 34.1435C155.838 34.7334 155.991 35.4228 155.991 36.2116C155.991 36.9938 155.838 37.6816 155.533 38.2749C155.228 38.8648 154.794 39.3255 154.231 39.657C153.671 39.9851 153.004 40.1491 152.232 40.1491ZM152.242 38.5085C152.593 38.5085 152.887 38.4091 153.122 38.2102C153.357 38.008 153.535 37.733 153.654 37.3849C153.777 37.0369 153.838 36.6409 153.838 36.1967C153.838 35.7526 153.777 35.3565 153.654 35.0085C153.535 34.6605 153.357 34.3854 153.122 34.1832C152.887 33.9811 152.593 33.88 152.242 33.88C151.887 33.88 151.589 33.9811 151.347 34.1832C151.109 34.3854 150.928 34.6605 150.805 35.0085C150.686 35.3565 150.626 35.7526 150.626 36.1967C150.626 36.6409 150.686 37.0369 150.805 37.3849C150.928 37.733 151.109 38.008 151.347 38.2102C151.589 38.4091 151.887 38.5085 152.242 38.5085ZM163.822 34.5412L161.883 34.6605C161.849 34.4948 161.778 34.3456 161.669 34.2131C161.559 34.0772 161.415 33.9695 161.236 33.8899C161.061 33.8071 160.85 33.7656 160.605 33.7656C160.277 33.7656 160 33.8352 159.775 33.9744C159.549 34.1103 159.437 34.2926 159.437 34.5213C159.437 34.7036 159.509 34.8577 159.655 34.9837C159.801 35.1096 160.051 35.2107 160.406 35.2869L161.788 35.5653C162.531 35.7178 163.084 35.9631 163.449 36.3011C163.813 36.6392 163.996 37.0833 163.996 37.6335C163.996 38.134 163.848 38.5732 163.553 38.951C163.261 39.3288 162.86 39.6238 162.35 39.8359C161.843 40.0447 161.258 40.1491 160.595 40.1491C159.584 40.1491 158.779 39.9387 158.179 39.5178C157.582 39.0935 157.233 38.5168 157.13 37.7876L159.213 37.6783C159.276 37.9865 159.428 38.2218 159.67 38.3842C159.912 38.5433 160.222 38.6229 160.6 38.6229C160.971 38.6229 161.269 38.5516 161.495 38.4091C161.724 38.2633 161.84 38.076 161.843 37.8473C161.84 37.6551 161.758 37.4976 161.599 37.375C161.44 37.2491 161.195 37.1529 160.863 37.0866L159.541 36.8232C158.795 36.674 158.24 36.4155 157.875 36.0476C157.514 35.6797 157.334 35.2107 157.334 34.6406C157.334 34.1501 157.466 33.7275 157.731 33.3729C158 33.0182 158.376 32.7448 158.86 32.5526C159.347 32.3603 159.917 32.2642 160.57 32.2642C161.535 32.2642 162.294 32.468 162.847 32.8757C163.404 33.2834 163.729 33.8385 163.822 34.5412ZM168.769 42.8636V32.3636H170.857V33.6463H170.952C171.045 33.4408 171.179 33.232 171.355 33.0199C171.534 32.8045 171.766 32.6255 172.051 32.483C172.339 32.3371 172.697 32.2642 173.125 32.2642C173.681 32.2642 174.195 32.41 174.666 32.7017C175.136 32.9901 175.513 33.4259 175.794 34.0092C176.076 34.5893 176.217 35.3168 176.217 36.1918C176.217 37.0436 176.079 37.7628 175.804 38.3494C175.532 38.9328 175.161 39.3752 174.691 39.6768C174.223 39.9751 173.7 40.1243 173.12 40.1243C172.709 40.1243 172.359 40.0563 172.071 39.9205C171.785 39.7846 171.552 39.6139 171.37 39.4084C171.187 39.1996 171.048 38.9891 170.952 38.777H170.887V42.8636H168.769ZM170.843 36.1818C170.843 36.6359 170.906 37.032 171.031 37.37C171.157 37.7081 171.34 37.9716 171.578 38.1605C171.817 38.3461 172.107 38.4389 172.448 38.4389C172.793 38.4389 173.085 38.3445 173.323 38.1555C173.562 37.9633 173.743 37.6982 173.865 37.3601C173.991 37.0187 174.054 36.6259 174.054 36.1818C174.054 35.741 173.993 35.3532 173.87 35.0185C173.748 34.6837 173.567 34.4219 173.328 34.233C173.09 34.044 172.796 33.9496 172.448 33.9496C172.104 33.9496 171.812 34.0407 171.573 34.223C171.338 34.4053 171.157 34.6638 171.031 34.9986C170.906 35.3333 170.843 35.7277 170.843 36.1818ZM177.729 40V32.3636H179.782V33.696H179.862C180.001 33.2221 180.234 32.8641 180.563 32.6222C180.891 32.3769 181.269 32.2543 181.696 32.2543C181.802 32.2543 181.916 32.2609 182.039 32.2741C182.162 32.2874 182.269 32.3056 182.362 32.3288V34.2081C182.263 34.1783 182.125 34.1518 181.95 34.1286C181.774 34.1054 181.613 34.0938 181.467 34.0938C181.156 34.0938 180.877 34.1617 180.632 34.2976C180.39 34.4302 180.198 34.6158 180.055 34.8544C179.916 35.093 179.847 35.3681 179.847 35.6797V40H177.729ZM186.652 40.1491C185.88 40.1491 185.212 39.9851 184.649 39.657C184.088 39.3255 183.656 38.8648 183.351 38.2749C183.046 37.6816 182.894 36.9938 182.894 36.2116C182.894 35.4228 183.046 34.7334 183.351 34.1435C183.656 33.5502 184.088 33.0895 184.649 32.7614C185.212 32.4299 185.88 32.2642 186.652 32.2642C187.424 32.2642 188.091 32.4299 188.651 32.7614C189.214 33.0895 189.648 33.5502 189.953 34.1435C190.258 34.7334 190.411 35.4228 190.411 36.2116C190.411 36.9938 190.258 37.6816 189.953 38.2749C189.648 38.8648 189.214 39.3255 188.651 39.657C188.091 39.9851 187.424 40.1491 186.652 40.1491ZM186.662 38.5085C187.013 38.5085 187.307 38.4091 187.542 38.2102C187.777 38.008 187.955 37.733 188.074 37.3849C188.197 37.0369 188.258 36.6409 188.258 36.1967C188.258 35.7526 188.197 35.3565 188.074 35.0085C187.955 34.6605 187.777 34.3854 187.542 34.1832C187.307 33.9811 187.013 33.88 186.662 33.88C186.307 33.88 186.009 33.9811 185.767 34.1832C185.529 34.3854 185.348 34.6605 185.225 35.0085C185.106 35.3565 185.046 35.7526 185.046 36.1967C185.046 36.6409 185.106 37.0369 185.225 37.3849C185.348 37.733 185.529 38.008 185.767 38.2102C186.009 38.4091 186.307 38.5085 186.662 38.5085ZM194.702 40.1243C194.122 40.1243 193.596 39.9751 193.126 39.6768C192.658 39.3752 192.287 38.9328 192.012 38.3494C191.74 37.7628 191.604 37.0436 191.604 36.1918C191.604 35.3168 191.745 34.5893 192.027 34.0092C192.309 33.4259 192.683 32.9901 193.151 32.7017C193.621 32.41 194.137 32.2642 194.697 32.2642C195.124 32.2642 195.481 32.3371 195.766 32.483C196.054 32.6255 196.286 32.8045 196.462 33.0199C196.641 33.232 196.776 33.4408 196.869 33.6463H196.934V29.8182H199.047V40H196.959V38.777H196.869C196.77 38.9891 196.629 39.1996 196.447 39.4084C196.268 39.6139 196.034 39.7846 195.746 39.9205C195.461 40.0563 195.113 40.1243 194.702 40.1243ZM195.373 38.4389C195.714 38.4389 196.003 38.3461 196.238 38.1605C196.477 37.9716 196.659 37.7081 196.785 37.37C196.914 37.032 196.979 36.6359 196.979 36.1818C196.979 35.7277 196.916 35.3333 196.79 34.9986C196.664 34.6638 196.482 34.4053 196.243 34.223C196.004 34.0407 195.714 33.9496 195.373 33.9496C195.025 33.9496 194.732 34.044 194.493 34.233C194.254 34.4219 194.074 34.6837 193.951 35.0185C193.828 35.3532 193.767 35.741 193.767 36.1818C193.767 36.6259 193.828 37.0187 193.951 37.3601C194.077 37.6982 194.258 37.9633 194.493 38.1555C194.732 38.3445 195.025 38.4389 195.373 38.4389ZM205.785 36.7486V32.3636H207.903V40H205.87V38.6129H205.79C205.618 39.0604 205.331 39.42 204.93 39.6918C204.532 39.9635 204.047 40.0994 203.473 40.0994C202.963 40.0994 202.514 39.9834 202.126 39.7514C201.738 39.5194 201.435 39.1896 201.216 38.7621C201.001 38.3345 200.891 37.8224 200.888 37.2259V32.3636H203.006V36.848C203.009 37.2988 203.13 37.6551 203.369 37.9169C203.608 38.1787 203.927 38.3097 204.328 38.3097C204.584 38.3097 204.822 38.2517 205.044 38.1357C205.266 38.0163 205.445 37.8407 205.581 37.6087C205.721 37.3767 205.788 37.09 205.785 36.7486ZM213.759 32.3636V33.9545H209.16V32.3636H213.759ZM210.204 30.5341H212.322V37.6534C212.322 37.849 212.352 38.0014 212.412 38.1108C212.471 38.2169 212.554 38.2914 212.66 38.3345C212.77 38.3776 212.896 38.3991 213.038 38.3991C213.137 38.3991 213.237 38.3909 213.336 38.3743C213.436 38.3544 213.512 38.3395 213.565 38.3295L213.898 39.9055C213.792 39.9387 213.643 39.9768 213.451 40.0199C213.258 40.0663 213.025 40.0945 212.75 40.1044C212.239 40.1243 211.792 40.0563 211.407 39.9006C211.026 39.7448 210.73 39.5028 210.517 39.1747C210.305 38.8466 210.201 38.4323 210.204 37.9318V30.5341ZM218.607 40.1491C217.835 40.1491 217.167 39.9851 216.603 39.657C216.043 39.3255 215.611 38.8648 215.306 38.2749C215.001 37.6816 214.848 36.9938 214.848 36.2116C214.848 35.4228 215.001 34.7334 215.306 34.1435C215.611 33.5502 216.043 33.0895 216.603 32.7614C217.167 32.4299 217.835 32.2642 218.607 32.2642C219.379 32.2642 220.045 32.4299 220.605 32.7614C221.169 33.0895 221.603 33.5502 221.908 34.1435C222.213 34.7334 222.365 35.4228 222.365 36.2116C222.365 36.9938 222.213 37.6816 221.908 38.2749C221.603 38.8648 221.169 39.3255 220.605 39.657C220.045 39.9851 219.379 40.1491 218.607 40.1491ZM218.617 38.5085C218.968 38.5085 219.261 38.4091 219.497 38.2102C219.732 38.008 219.909 37.733 220.029 37.3849C220.151 37.0369 220.213 36.6409 220.213 36.1967C220.213 35.7526 220.151 35.3565 220.029 35.0085C219.909 34.6605 219.732 34.3854 219.497 34.1832C219.261 33.9811 218.968 33.88 218.617 33.88C218.262 33.88 217.964 33.9811 217.722 34.1832C217.483 34.3854 217.303 34.6605 217.18 35.0085C217.061 35.3565 217.001 35.7526 217.001 36.1967C217.001 36.6409 217.061 37.0369 217.18 37.3849C217.303 37.733 217.483 38.008 217.722 38.2102C217.964 38.4091 218.262 38.5085 218.617 38.5085ZM230.196 34.5412L228.257 34.6605C228.224 34.4948 228.153 34.3456 228.043 34.2131C227.934 34.0772 227.79 33.9695 227.611 33.8899C227.435 33.8071 227.225 33.7656 226.98 33.7656C226.651 33.7656 226.375 33.8352 226.149 33.9744C225.924 34.1103 225.811 34.2926 225.811 34.5213C225.811 34.7036 225.884 34.8577 226.03 34.9837C226.176 35.1096 226.426 35.2107 226.781 35.2869L228.163 35.5653C228.905 35.7178 229.459 35.9631 229.823 36.3011C230.188 36.6392 230.37 37.0833 230.37 37.6335C230.37 38.134 230.223 38.5732 229.928 38.951C229.636 39.3288 229.235 39.6238 228.725 39.8359C228.217 40.0447 227.632 40.1491 226.97 40.1491C225.959 40.1491 225.153 39.9387 224.553 39.5178C223.957 39.0935 223.607 38.5168 223.504 37.7876L225.587 37.6783C225.65 37.9865 225.803 38.2218 226.045 38.3842C226.287 38.5433 226.597 38.6229 226.975 38.6229C227.346 38.6229 227.644 38.5516 227.869 38.4091C228.098 38.2633 228.214 38.076 228.217 37.8473C228.214 37.6551 228.133 37.4976 227.974 37.375C227.815 37.2491 227.569 37.1529 227.238 37.0866L225.916 36.8232C225.17 36.674 224.615 36.4155 224.25 36.0476C223.889 35.6797 223.708 35.2107 223.708 34.6406C223.708 34.1501 223.841 33.7275 224.106 33.3729C224.374 33.0182 224.751 32.7448 225.234 32.5526C225.722 32.3603 226.292 32.2642 226.945 32.2642C227.909 32.2642 228.668 32.468 229.222 32.8757C229.779 33.2834 230.103 33.8385 230.196 34.5412ZM235.144 40V32.3636H237.197V33.696H237.277C237.416 33.2221 237.65 32.8641 237.978 32.6222C238.306 32.3769 238.684 32.2543 239.111 32.2543C239.217 32.2543 239.332 32.2609 239.454 32.2741C239.577 32.2874 239.685 32.3056 239.778 32.3288V34.2081C239.678 34.1783 239.541 34.1518 239.365 34.1286C239.189 34.1054 239.028 34.0938 238.883 34.0938C238.571 34.0938 238.293 34.1617 238.047 34.2976C237.805 34.4302 237.613 34.6158 237.471 34.8544C237.331 35.093 237.262 35.3681 237.262 35.6797V40H235.144ZM244.067 40.1491C243.295 40.1491 242.627 39.9851 242.064 39.657C241.504 39.3255 241.071 38.8648 240.766 38.2749C240.461 37.6816 240.309 36.9938 240.309 36.2116C240.309 35.4228 240.461 34.7334 240.766 34.1435C241.071 33.5502 241.504 33.0895 242.064 32.7614C242.627 32.4299 243.295 32.2642 244.067 32.2642C244.84 32.2642 245.506 32.4299 246.066 32.7614C246.629 33.0895 247.064 33.5502 247.368 34.1435C247.673 34.7334 247.826 35.4228 247.826 36.2116C247.826 36.9938 247.673 37.6816 247.368 38.2749C247.064 38.8648 246.629 39.3255 246.066 39.657C245.506 39.9851 244.84 40.1491 244.067 40.1491ZM244.077 38.5085C244.429 38.5085 244.722 38.4091 244.957 38.2102C245.193 38.008 245.37 37.733 245.489 37.3849C245.612 37.0369 245.673 36.6409 245.673 36.1967C245.673 35.7526 245.612 35.3565 245.489 35.0085C245.37 34.6605 245.193 34.3854 244.957 34.1832C244.722 33.9811 244.429 33.88 244.077 33.88C243.723 33.88 243.424 33.9811 243.182 34.1832C242.944 34.3854 242.763 34.6605 242.64 35.0085C242.521 35.3565 242.462 35.7526 242.462 36.1967C242.462 36.6409 242.521 37.0369 242.64 37.3849C242.763 37.733 242.944 38.008 243.182 38.2102C243.424 38.4091 243.723 38.5085 244.077 38.5085ZM249.343 40V29.8182H251.461V33.6463H251.525C251.618 33.4408 251.752 33.232 251.928 33.0199C252.107 32.8045 252.339 32.6255 252.624 32.483C252.912 32.3371 253.27 32.2642 253.698 32.2642C254.255 32.2642 254.768 32.41 255.239 32.7017C255.71 32.9901 256.086 33.4259 256.368 34.0092C256.649 34.5893 256.79 35.3168 256.79 36.1918C256.79 37.0436 256.653 37.7628 256.378 38.3494C256.106 38.9328 255.735 39.3752 255.264 39.6768C254.797 39.9751 254.273 40.1243 253.693 40.1243C253.282 40.1243 252.932 40.0563 252.644 39.9205C252.359 39.7846 252.125 39.6139 251.943 39.4084C251.761 39.1996 251.621 38.9891 251.525 38.777H251.431V40H249.343ZM251.416 36.1818C251.416 36.6359 251.479 37.032 251.605 37.37C251.731 37.7081 251.913 37.9716 252.152 38.1605C252.39 38.3461 252.68 38.4389 253.022 38.4389C253.366 38.4389 253.658 38.3445 253.897 38.1555C254.135 37.9633 254.316 37.6982 254.439 37.3601C254.565 37.0187 254.628 36.6259 254.628 36.1818C254.628 35.741 254.566 35.3532 254.444 35.0185C254.321 34.6837 254.14 34.4219 253.902 34.233C253.663 34.044 253.37 33.9496 253.022 33.9496C252.677 33.9496 252.385 34.0407 252.147 34.223C251.911 34.4053 251.731 34.6638 251.605 34.9986C251.479 35.3333 251.416 35.7277 251.416 36.1818ZM263.2 36.7486V32.3636H265.318V40H263.285V38.6129H263.205C263.033 39.0604 262.746 39.42 262.345 39.6918C261.948 39.9635 261.462 40.0994 260.889 40.0994C260.378 40.0994 259.929 39.9834 259.541 39.7514C259.154 39.5194 258.85 39.1896 258.632 38.7621C258.416 38.3345 258.307 37.8224 258.303 37.2259V32.3636H260.421V36.848C260.425 37.2988 260.546 37.6551 260.784 37.9169C261.023 38.1787 261.343 38.3097 261.744 38.3097C261.999 38.3097 262.238 38.2517 262.46 38.1357C262.682 38.0163 262.861 37.8407 262.997 37.6087C263.136 37.3767 263.204 37.09 263.2 36.7486ZM273.466 34.5412L271.527 34.6605C271.494 34.4948 271.423 34.3456 271.313 34.2131C271.204 34.0772 271.06 33.9695 270.881 33.8899C270.705 33.8071 270.495 33.7656 270.249 33.7656C269.921 33.7656 269.645 33.8352 269.419 33.9744C269.194 34.1103 269.081 34.2926 269.081 34.5213C269.081 34.7036 269.154 34.8577 269.3 34.9837C269.446 35.1096 269.696 35.2107 270.051 35.2869L271.433 35.5653C272.175 35.7178 272.729 35.9631 273.093 36.3011C273.458 36.6392 273.64 37.0833 273.64 37.6335C273.64 38.134 273.493 38.5732 273.198 38.951C272.906 39.3288 272.505 39.6238 271.994 39.8359C271.487 40.0447 270.902 40.1491 270.239 40.1491C269.229 40.1491 268.423 39.9387 267.823 39.5178C267.227 39.0935 266.877 38.5168 266.774 37.7876L268.857 37.6783C268.92 37.9865 269.073 38.2218 269.315 38.3842C269.557 38.5433 269.867 38.6229 270.244 38.6229C270.616 38.6229 270.914 38.5516 271.139 38.4091C271.368 38.2633 271.484 38.076 271.487 37.8473C271.484 37.6551 271.403 37.4976 271.244 37.375C271.085 37.2491 270.839 37.1529 270.508 37.0866L269.186 36.8232C268.44 36.674 267.885 36.4155 267.52 36.0476C267.159 35.6797 266.978 35.2107 266.978 34.6406C266.978 34.1501 267.111 33.7275 267.376 33.3729C267.644 33.0182 268.02 32.7448 268.504 32.5526C268.992 32.3603 269.562 32.2642 270.215 32.2642C271.179 32.2642 271.938 32.468 272.492 32.8757C273.048 33.2834 273.373 33.8385 273.466 34.5412ZM279.135 32.3636V33.9545H274.537V32.3636H279.135ZM275.581 30.5341H277.699V37.6534C277.699 37.849 277.729 38.0014 277.788 38.1108C277.848 38.2169 277.931 38.2914 278.037 38.3345C278.146 38.3776 278.272 38.3991 278.415 38.3991C278.514 38.3991 278.613 38.3909 278.713 38.3743C278.812 38.3544 278.889 38.3395 278.942 38.3295L279.275 39.9055C279.169 39.9387 279.019 39.9768 278.827 40.0199C278.635 40.0663 278.401 40.0945 278.126 40.1044C277.616 40.1243 277.168 40.0563 276.784 39.9006C276.403 39.7448 276.106 39.5028 275.894 39.1747C275.682 38.8466 275.577 38.4323 275.581 37.9318V30.5341ZM283.983 40.1491C283.211 40.1491 282.543 39.9851 281.98 39.657C281.42 39.3255 280.987 38.8648 280.682 38.2749C280.377 37.6816 280.225 36.9938 280.225 36.2116C280.225 35.4228 280.377 34.7334 280.682 34.1435C280.987 33.5502 281.42 33.0895 281.98 32.7614C282.543 32.4299 283.211 32.2642 283.983 32.2642C284.756 32.2642 285.422 32.4299 285.982 32.7614C286.545 33.0895 286.98 33.5502 287.284 34.1435C287.589 34.7334 287.742 35.4228 287.742 36.2116C287.742 36.9938 287.589 37.6816 287.284 38.2749C286.98 38.8648 286.545 39.3255 285.982 39.657C285.422 39.9851 284.756 40.1491 283.983 40.1491ZM283.993 38.5085C284.345 38.5085 284.638 38.4091 284.873 38.2102C285.109 38.008 285.286 37.733 285.405 37.3849C285.528 37.0369 285.589 36.6409 285.589 36.1967C285.589 35.7526 285.528 35.3565 285.405 35.0085C285.286 34.6605 285.109 34.3854 284.873 34.1832C284.638 33.9811 284.345 33.88 283.993 33.88C283.639 33.88 283.34 33.9811 283.098 34.1832C282.86 34.3854 282.679 34.6605 282.557 35.0085C282.437 35.3565 282.378 35.7526 282.378 36.1967C282.378 36.6409 282.437 37.0369 282.557 37.3849C282.679 37.733 282.86 38.008 283.098 38.2102C283.34 38.4091 283.639 38.5085 283.993 38.5085ZM295.573 34.5412L293.634 34.6605C293.601 34.4948 293.529 34.3456 293.42 34.2131C293.311 34.0772 293.166 33.9695 292.987 33.8899C292.812 33.8071 292.601 33.7656 292.356 33.7656C292.028 33.7656 291.751 33.8352 291.526 33.9744C291.3 34.1103 291.188 34.2926 291.188 34.5213C291.188 34.7036 291.261 34.8577 291.406 34.9837C291.552 35.1096 291.803 35.2107 292.157 35.2869L293.539 35.5653C294.282 35.7178 294.835 35.9631 295.2 36.3011C295.564 36.6392 295.747 37.0833 295.747 37.6335C295.747 38.134 295.599 38.5732 295.304 38.951C295.013 39.3288 294.612 39.6238 294.101 39.8359C293.594 40.0447 293.009 40.1491 292.346 40.1491C291.335 40.1491 290.53 39.9387 289.93 39.5178C289.333 39.0935 288.984 38.5168 288.881 37.7876L290.964 37.6783C291.027 37.9865 291.179 38.2218 291.421 38.3842C291.663 38.5433 291.973 38.6229 292.351 38.6229C292.722 38.6229 293.021 38.5516 293.246 38.4091C293.475 38.2633 293.591 38.076 293.594 37.8473C293.591 37.6551 293.509 37.4976 293.35 37.375C293.191 37.2491 292.946 37.1529 292.615 37.0866L291.292 36.8232C290.546 36.674 289.991 36.4155 289.627 36.0476C289.265 35.6797 289.085 35.2107 289.085 34.6406C289.085 34.1501 289.217 33.7275 289.482 33.3729C289.751 33.0182 290.127 32.7448 290.611 32.5526C291.098 32.3603 291.668 32.2642 292.321 32.2642C293.286 32.2642 294.045 32.468 294.598 32.8757C295.155 33.2834 295.48 33.8385 295.573 34.5412ZM299.482 38.608L299.427 39.1548C299.384 39.5923 299.302 40.0282 299.179 40.4624C299.06 40.8999 298.934 41.2959 298.801 41.6506C298.672 42.0052 298.567 42.2836 298.488 42.4858H297.116C297.165 42.2902 297.233 42.0168 297.32 41.6655C297.406 41.3175 297.487 40.9264 297.563 40.4922C297.639 40.058 297.687 39.6155 297.707 39.1648L297.732 38.608H299.482ZM308.442 32.3636V33.9545H303.843V32.3636H308.442ZM304.887 30.5341H307.005V37.6534C307.005 37.849 307.035 38.0014 307.095 38.1108C307.154 38.2169 307.237 38.2914 307.343 38.3345C307.453 38.3776 307.579 38.3991 307.721 38.3991C307.821 38.3991 307.92 38.3909 308.02 38.3743C308.119 38.3544 308.195 38.3395 308.248 38.3295L308.581 39.9055C308.475 39.9387 308.326 39.9768 308.134 40.0199C307.942 40.0663 307.708 40.0945 307.433 40.1044C306.922 40.1243 306.475 40.0563 306.091 39.9006C305.709 39.7448 305.413 39.5028 305.201 39.1747C304.989 38.8466 304.884 38.4323 304.887 37.9318V30.5341ZM313.32 40.1491C312.534 40.1491 311.858 39.9901 311.291 39.6719C310.728 39.3504 310.294 38.8963 309.989 38.3097C309.684 37.7197 309.531 37.022 309.531 36.2166C309.531 35.4311 309.684 34.7417 309.989 34.1484C310.294 33.5552 310.723 33.0928 311.276 32.7614C311.833 32.4299 312.486 32.2642 313.235 32.2642C313.739 32.2642 314.208 32.3454 314.642 32.5078C315.08 32.6669 315.461 32.9072 315.786 33.2287C316.114 33.5502 316.369 33.9545 316.551 34.4418C316.734 34.9257 316.825 35.4924 316.825 36.142V36.7237H310.377V35.4112H314.831C314.831 35.1063 314.765 34.8362 314.632 34.6009C314.5 34.3655 314.316 34.1816 314.08 34.049C313.848 33.9131 313.578 33.8452 313.27 33.8452C312.949 33.8452 312.664 33.9197 312.415 34.0689C312.17 34.2147 311.977 34.4119 311.838 34.6605C311.699 34.9058 311.628 35.1792 311.625 35.4808V36.7287C311.625 37.1065 311.694 37.433 311.833 37.7081C311.976 37.9832 312.176 38.1953 312.435 38.3445C312.693 38.4936 313 38.5682 313.355 38.5682C313.59 38.5682 313.805 38.535 314.001 38.4688C314.196 38.4025 314.364 38.303 314.503 38.1705C314.642 38.0379 314.748 37.8755 314.821 37.6832L316.78 37.8125C316.681 38.2831 316.477 38.6941 316.169 39.0455C315.864 39.3935 315.469 39.6652 314.985 39.8608C314.505 40.053 313.95 40.1491 313.32 40.1491ZM324.661 34.5412L322.722 34.6605C322.689 34.4948 322.617 34.3456 322.508 34.2131C322.399 34.0772 322.254 33.9695 322.075 33.8899C321.9 33.8071 321.689 33.7656 321.444 33.7656C321.116 33.7656 320.839 33.8352 320.614 33.9744C320.388 34.1103 320.276 34.2926 320.276 34.5213C320.276 34.7036 320.349 34.8577 320.494 34.9837C320.64 35.1096 320.89 35.2107 321.245 35.2869L322.627 35.5653C323.37 35.7178 323.923 35.9631 324.288 36.3011C324.652 36.6392 324.835 37.0833 324.835 37.6335C324.835 38.134 324.687 38.5732 324.392 38.951C324.1 39.3288 323.699 39.6238 323.189 39.8359C322.682 40.0447 322.097 40.1491 321.434 40.1491C320.423 40.1491 319.618 39.9387 319.018 39.5178C318.421 39.0935 318.072 38.5168 317.969 37.7876L320.052 37.6783C320.115 37.9865 320.267 38.2218 320.509 38.3842C320.751 38.5433 321.061 38.6229 321.439 38.6229C321.81 38.6229 322.108 38.5516 322.334 38.4091C322.563 38.2633 322.679 38.076 322.682 37.8473C322.679 37.6551 322.597 37.4976 322.438 37.375C322.279 37.2491 322.034 37.1529 321.702 37.0866L320.38 36.8232C319.634 36.674 319.079 36.4155 318.715 36.0476C318.353 35.6797 318.173 35.2107 318.173 34.6406C318.173 34.1501 318.305 33.7275 318.57 33.3729C318.839 33.0182 319.215 32.7448 319.699 32.5526C320.186 32.3603 320.756 32.2642 321.409 32.2642C322.374 32.2642 323.133 32.468 323.686 32.8757C324.243 33.2834 324.568 33.8385 324.661 34.5412ZM330.33 32.3636V33.9545H325.731V32.3636H330.33ZM326.775 30.5341H328.893V37.6534C328.893 37.849 328.923 38.0014 328.983 38.1108C329.042 38.2169 329.125 38.2914 329.231 38.3345C329.341 38.3776 329.467 38.3991 329.609 38.3991C329.709 38.3991 329.808 38.3909 329.907 38.3743C330.007 38.3544 330.083 38.3395 330.136 38.3295L330.469 39.9055C330.363 39.9387 330.214 39.9768 330.022 40.0199C329.83 40.0663 329.596 40.0945 329.321 40.1044C328.81 40.1243 328.363 40.0563 327.978 39.9006C327.597 39.7448 327.301 39.5028 327.089 39.1747C326.876 38.8466 326.772 38.4323 326.775 37.9318V30.5341ZM333.987 40.1442C333.5 40.1442 333.066 40.0597 332.685 39.8906C332.303 39.7183 332.002 39.4647 331.78 39.13C331.561 38.7919 331.452 38.371 331.452 37.8672C331.452 37.4429 331.53 37.0866 331.685 36.7983C331.841 36.5099 332.053 36.2779 332.322 36.1023C332.59 35.9266 332.895 35.794 333.236 35.7045C333.581 35.6151 333.942 35.5521 334.32 35.5156C334.764 35.4692 335.122 35.4261 335.394 35.3864C335.666 35.3433 335.863 35.2803 335.986 35.1974C336.108 35.1146 336.17 34.992 336.17 34.8295V34.7997C336.17 34.4848 336.07 34.2412 335.871 34.0689C335.676 33.8965 335.397 33.8104 335.036 33.8104C334.655 33.8104 334.352 33.8949 334.126 34.0639C333.901 34.2296 333.752 34.4384 333.679 34.6903L331.72 34.5312C331.82 34.0672 332.015 33.6662 332.307 33.3281C332.598 32.9867 332.975 32.7249 333.435 32.5426C333.899 32.357 334.436 32.2642 335.046 32.2642C335.47 32.2642 335.876 32.3139 336.264 32.4134C336.655 32.5128 337.002 32.6669 337.303 32.8757C337.608 33.0845 337.848 33.353 338.024 33.6811C338.2 34.0059 338.288 34.3954 338.288 34.8494V40H336.279V38.9411H336.219C336.097 39.1797 335.933 39.3902 335.727 39.5724C335.522 39.7514 335.275 39.8923 334.986 39.995C334.698 40.0945 334.365 40.1442 333.987 40.1442ZM334.594 38.6825C334.905 38.6825 335.18 38.6212 335.419 38.4986C335.658 38.3726 335.845 38.2036 335.981 37.9915C336.117 37.7794 336.185 37.5391 336.185 37.2706V36.4602C336.118 36.5033 336.027 36.5431 335.911 36.5795C335.798 36.6127 335.671 36.6442 335.528 36.674C335.386 36.7005 335.243 36.7254 335.101 36.7486C334.958 36.7685 334.829 36.7867 334.713 36.8033C334.464 36.8397 334.247 36.8977 334.062 36.9773C333.876 37.0568 333.732 37.1645 333.629 37.3004C333.526 37.433 333.475 37.5987 333.475 37.7976C333.475 38.0859 333.58 38.3063 333.788 38.4588C334 38.608 334.269 38.6825 334.594 38.6825ZM342.845 40.1243C342.265 40.1243 341.739 39.9751 341.269 39.6768C340.801 39.3752 340.43 38.9328 340.155 38.3494C339.883 37.7628 339.747 37.0436 339.747 36.1918C339.747 35.3168 339.888 34.5893 340.17 34.0092C340.452 33.4259 340.826 32.9901 341.294 32.7017C341.764 32.41 342.28 32.2642 342.84 32.2642C343.267 32.2642 343.624 32.3371 343.909 32.483C344.197 32.6255 344.429 32.8045 344.605 33.0199C344.784 33.232 344.919 33.4408 345.012 33.6463H345.077V29.8182H347.19V40H345.102V38.777H345.012C344.913 38.9891 344.772 39.1996 344.59 39.4084C344.411 39.6139 344.177 39.7846 343.889 39.9205C343.604 40.0563 343.256 40.1243 342.845 40.1243ZM343.516 38.4389C343.857 38.4389 344.146 38.3461 344.381 38.1605C344.619 37.9716 344.802 37.7081 344.928 37.37C345.057 37.032 345.122 36.6359 345.122 36.1818C345.122 35.7277 345.059 35.3333 344.933 34.9986C344.807 34.6638 344.624 34.4053 344.386 34.223C344.147 34.0407 343.857 33.9496 343.516 33.9496C343.168 33.9496 342.874 34.044 342.636 34.233C342.397 34.4219 342.217 34.6837 342.094 35.0185C341.971 35.3532 341.91 35.741 341.91 36.1818C341.91 36.6259 341.971 37.0187 342.094 37.3601C342.22 37.6982 342.401 37.9633 342.636 38.1555C342.874 38.3445 343.168 38.4389 343.516 38.4389ZM352.481 40.1491C351.709 40.1491 351.041 39.9851 350.478 39.657C349.918 39.3255 349.485 38.8648 349.18 38.2749C348.875 37.6816 348.723 36.9938 348.723 36.2116C348.723 35.4228 348.875 34.7334 349.18 34.1435C349.485 33.5502 349.918 33.0895 350.478 32.7614C351.041 32.4299 351.709 32.2642 352.481 32.2642C353.254 32.2642 353.92 32.4299 354.48 32.7614C355.043 33.0895 355.478 33.5502 355.783 34.1435C356.087 34.7334 356.24 35.4228 356.24 36.2116C356.24 36.9938 356.087 37.6816 355.783 38.2749C355.478 38.8648 355.043 39.3255 354.48 39.657C353.92 39.9851 353.254 40.1491 352.481 40.1491ZM352.491 38.5085C352.843 38.5085 353.136 38.4091 353.371 38.2102C353.607 38.008 353.784 37.733 353.903 37.3849C354.026 37.0369 354.087 36.6409 354.087 36.1967C354.087 35.7526 354.026 35.3565 353.903 35.0085C353.784 34.6605 353.607 34.3854 353.371 34.1832C353.136 33.9811 352.843 33.88 352.491 33.88C352.137 33.88 351.838 33.9811 351.596 34.1832C351.358 34.3854 351.177 34.6605 351.055 35.0085C350.935 35.3565 350.876 35.7526 350.876 36.1967C350.876 36.6409 350.935 37.0369 351.055 37.3849C351.177 37.733 351.358 38.008 351.596 38.2102C351.838 38.4091 352.137 38.5085 352.491 38.5085ZM364.071 34.5412L362.132 34.6605C362.099 34.4948 362.027 34.3456 361.918 34.2131C361.809 34.0772 361.665 33.9695 361.486 33.8899C361.31 33.8071 361.099 33.7656 360.854 33.7656C360.526 33.7656 360.249 33.8352 360.024 33.9744C359.798 34.1103 359.686 34.2926 359.686 34.5213C359.686 34.7036 359.759 34.8577 359.905 34.9837C360.05 35.1096 360.301 35.2107 360.655 35.2869L362.037 35.5653C362.78 35.7178 363.333 35.9631 363.698 36.3011C364.062 36.6392 364.245 37.0833 364.245 37.6335C364.245 38.134 364.097 38.5732 363.802 38.951C363.511 39.3288 363.11 39.6238 362.599 39.8359C362.092 40.0447 361.507 40.1491 360.844 40.1491C359.833 40.1491 359.028 39.9387 358.428 39.5178C357.831 39.0935 357.482 38.5168 357.379 37.7876L359.462 37.6783C359.525 37.9865 359.678 38.2218 359.919 38.3842C360.161 38.5433 360.471 38.6229 360.849 38.6229C361.22 38.6229 361.519 38.5516 361.744 38.4091C361.973 38.2633 362.089 38.076 362.092 37.8473C362.089 37.6551 362.008 37.4976 361.848 37.375C361.689 37.2491 361.444 37.1529 361.113 37.0866L359.79 36.8232C359.044 36.674 358.489 36.4155 358.125 36.0476C357.763 35.6797 357.583 35.2107 357.583 34.6406C357.583 34.1501 357.715 33.7275 357.981 33.3729C358.249 33.0182 358.625 32.7448 359.109 32.5526C359.596 32.3603 360.166 32.2642 360.819 32.2642C361.784 32.2642 362.543 32.468 363.096 32.8757C363.653 33.2834 363.978 33.8385 364.071 34.5412ZM372.499 40.1491C371.713 40.1491 371.037 39.9901 370.47 39.6719C369.907 39.3504 369.473 38.8963 369.168 38.3097C368.863 37.7197 368.71 37.022 368.71 36.2166C368.71 35.4311 368.863 34.7417 369.168 34.1484C369.473 33.5552 369.902 33.0928 370.455 32.7614C371.012 32.4299 371.665 32.2642 372.414 32.2642C372.918 32.2642 373.387 32.3454 373.821 32.5078C374.259 32.6669 374.64 32.9072 374.965 33.2287C375.293 33.5502 375.548 33.9545 375.73 34.4418C375.913 34.9257 376.004 35.4924 376.004 36.142V36.7237H369.556V35.4112H374.01C374.01 35.1063 373.944 34.8362 373.811 34.6009C373.679 34.3655 373.495 34.1816 373.259 34.049C373.027 33.9131 372.757 33.8452 372.449 33.8452C372.128 33.8452 371.842 33.9197 371.594 34.0689C371.349 34.2147 371.156 34.4119 371.017 34.6605C370.878 34.9058 370.807 35.1792 370.803 35.4808V36.7287C370.803 37.1065 370.873 37.433 371.012 37.7081C371.155 37.9832 371.355 38.1953 371.614 38.3445C371.872 38.4936 372.179 38.5682 372.534 38.5682C372.769 38.5682 372.984 38.535 373.18 38.4688C373.375 38.4025 373.543 38.303 373.682 38.1705C373.821 38.0379 373.927 37.8755 374 37.6832L375.959 37.8125C375.86 38.2831 375.656 38.6941 375.347 39.0455C375.043 39.3935 374.648 39.6652 374.164 39.8608C373.684 40.053 373.128 40.1491 372.499 40.1491ZM380.826 42.8636V32.3636H382.914V33.6463H383.009C383.101 33.4408 383.236 33.232 383.411 33.0199C383.59 32.8045 383.822 32.6255 384.107 32.483C384.396 32.3371 384.754 32.2642 385.181 32.2642C385.738 32.2642 386.252 32.41 386.722 32.7017C387.193 32.9901 387.569 33.4259 387.851 34.0092C388.133 34.5893 388.273 35.3168 388.273 36.1918C388.273 37.0436 388.136 37.7628 387.861 38.3494C387.589 38.9328 387.218 39.3752 386.747 39.6768C386.28 39.9751 385.756 40.1243 385.176 40.1243C384.765 40.1243 384.416 40.0563 384.127 39.9205C383.842 39.7846 383.608 39.6139 383.426 39.4084C383.244 39.1996 383.105 38.9891 383.009 38.777H382.944V42.8636H380.826ZM382.899 36.1818C382.899 36.6359 382.962 37.032 383.088 37.37C383.214 37.7081 383.396 37.9716 383.635 38.1605C383.874 38.3461 384.164 38.4389 384.505 38.4389C384.85 38.4389 385.141 38.3445 385.38 38.1555C385.619 37.9633 385.799 37.6982 385.922 37.3601C386.048 37.0187 386.111 36.6259 386.111 36.1818C386.111 35.741 386.05 35.3532 385.927 35.0185C385.804 34.6837 385.624 34.4219 385.385 34.233C385.146 34.044 384.853 33.9496 384.505 33.9496C384.16 33.9496 383.869 34.0407 383.63 34.223C383.395 34.4053 383.214 34.6638 383.088 34.9986C382.962 35.3333 382.899 35.7277 382.899 36.1818ZM389.785 40V32.3636H391.839V33.696H391.918C392.057 33.2221 392.291 32.8641 392.619 32.6222C392.947 32.3769 393.325 32.2543 393.753 32.2543C393.859 32.2543 393.973 32.2609 394.096 32.2741C394.218 32.2874 394.326 32.3056 394.419 32.3288V34.2081C394.32 34.1783 394.182 34.1518 394.006 34.1286C393.831 34.1054 393.67 34.0938 393.524 34.0938C393.213 34.0938 392.934 34.1617 392.689 34.2976C392.447 34.4302 392.255 34.6158 392.112 34.8544C391.973 35.093 391.903 35.3681 391.903 35.6797V40H389.785ZM398.709 40.1491C397.936 40.1491 397.269 39.9851 396.705 39.657C396.145 39.3255 395.713 38.8648 395.408 38.2749C395.103 37.6816 394.95 36.9938 394.95 36.2116C394.95 35.4228 395.103 34.7334 395.408 34.1435C395.713 33.5502 396.145 33.0895 396.705 32.7614C397.269 32.4299 397.936 32.2642 398.709 32.2642C399.481 32.2642 400.147 32.4299 400.707 32.7614C401.271 33.0895 401.705 33.5502 402.01 34.1435C402.315 34.7334 402.467 35.4228 402.467 36.2116C402.467 36.9938 402.315 37.6816 402.01 38.2749C401.705 38.8648 401.271 39.3255 400.707 39.657C400.147 39.9851 399.481 40.1491 398.709 40.1491ZM398.719 38.5085C399.07 38.5085 399.363 38.4091 399.599 38.2102C399.834 38.008 400.011 37.733 400.131 37.3849C400.253 37.0369 400.315 36.6409 400.315 36.1967C400.315 35.7526 400.253 35.3565 400.131 35.0085C400.011 34.6605 399.834 34.3854 399.599 34.1832C399.363 33.9811 399.07 33.88 398.719 33.88C398.364 33.88 398.066 33.9811 397.824 34.1832C397.585 34.3854 397.405 34.6605 397.282 35.0085C397.163 35.3565 397.103 35.7526 397.103 36.1967C397.103 36.6409 397.163 37.0369 397.282 37.3849C397.405 37.733 397.585 38.008 397.824 38.2102C398.066 38.4091 398.364 38.5085 398.719 38.5085ZM406.062 35.5852V40H403.944V32.3636H405.963V33.7109H406.052C406.221 33.2668 406.505 32.9155 406.902 32.657C407.3 32.3951 407.782 32.2642 408.349 32.2642C408.88 32.2642 409.342 32.3802 409.736 32.6122C410.131 32.8442 410.437 33.1757 410.656 33.6065C410.875 34.0341 410.984 34.5445 410.984 35.1378V40H408.866V35.5156C408.87 35.0483 408.75 34.6837 408.508 34.4219C408.266 34.1567 407.933 34.0241 407.509 34.0241C407.224 34.0241 406.972 34.0855 406.753 34.2081C406.538 34.3307 406.369 34.5097 406.246 34.745C406.127 34.977 406.066 35.2571 406.062 35.5852ZM416.815 32.3636V33.9545H412.216V32.3636H416.815ZM413.26 30.5341H415.378V37.6534C415.378 37.849 415.408 38.0014 415.468 38.1108C415.528 38.2169 415.61 38.2914 415.716 38.3345C415.826 38.3776 415.952 38.3991 416.094 38.3991C416.194 38.3991 416.293 38.3909 416.393 38.3743C416.492 38.3544 416.568 38.3395 416.621 38.3295L416.954 39.9055C416.848 39.9387 416.699 39.9768 416.507 40.0199C416.315 40.0663 416.081 40.0945 415.806 40.1044C415.296 40.1243 414.848 40.0563 414.464 39.9006C414.082 39.7448 413.786 39.5028 413.574 39.1747C413.362 38.8466 413.257 38.4323 413.26 37.9318V30.5341ZM421.663 40.1491C420.891 40.1491 420.223 39.9851 419.659 39.657C419.099 39.3255 418.667 38.8648 418.362 38.2749C418.057 37.6816 417.905 36.9938 417.905 36.2116C417.905 35.4228 418.057 34.7334 418.362 34.1435C418.667 33.5502 419.099 33.0895 419.659 32.7614C420.223 32.4299 420.891 32.2642 421.663 32.2642C422.435 32.2642 423.101 32.4299 423.662 32.7614C424.225 33.0895 424.659 33.5502 424.964 34.1435C425.269 34.7334 425.422 35.4228 425.422 36.2116C425.422 36.9938 425.269 37.6816 424.964 38.2749C424.659 38.8648 424.225 39.3255 423.662 39.657C423.101 39.9851 422.435 40.1491 421.663 40.1491ZM421.673 38.5085C422.024 38.5085 422.318 38.4091 422.553 38.2102C422.788 38.008 422.966 37.733 423.085 37.3849C423.208 37.0369 423.269 36.6409 423.269 36.1967C423.269 35.7526 423.208 35.3565 423.085 35.0085C422.966 34.6605 422.788 34.3854 422.553 34.1832C422.318 33.9811 422.024 33.88 421.673 33.88C421.318 33.88 421.02 33.9811 420.778 34.1832C420.539 34.3854 420.359 34.6605 420.236 35.0085C420.117 35.3565 420.057 35.7526 420.057 36.1967C420.057 36.6409 420.117 37.0369 420.236 37.3849C420.359 37.733 420.539 38.008 420.778 38.2102C421.02 38.4091 421.318 38.5085 421.673 38.5085ZM433.252 34.5412L431.313 34.6605C431.28 34.4948 431.209 34.3456 431.1 34.2131C430.99 34.0772 430.846 33.9695 430.667 33.8899C430.492 33.8071 430.281 33.7656 430.036 33.7656C429.708 33.7656 429.431 33.8352 429.206 33.9744C428.98 34.1103 428.867 34.2926 428.867 34.5213C428.867 34.7036 428.94 34.8577 429.086 34.9837C429.232 35.1096 429.482 35.2107 429.837 35.2869L431.219 35.5653C431.961 35.7178 432.515 35.9631 432.88 36.3011C433.244 36.6392 433.426 37.0833 433.426 37.6335C433.426 38.134 433.279 38.5732 432.984 38.951C432.692 39.3288 432.291 39.6238 431.781 39.8359C431.274 40.0447 430.689 40.1491 430.026 40.1491C429.015 40.1491 428.21 39.9387 427.61 39.5178C427.013 39.0935 426.663 38.5168 426.561 37.7876L428.644 37.6783C428.707 37.9865 428.859 38.2218 429.101 38.3842C429.343 38.5433 429.653 38.6229 430.031 38.6229C430.402 38.6229 430.7 38.5516 430.926 38.4091C431.154 38.2633 431.27 38.076 431.274 37.8473C431.27 37.6551 431.189 37.4976 431.03 37.375C430.871 37.2491 430.626 37.1529 430.294 37.0866L428.972 36.8232C428.226 36.674 427.671 36.4155 427.306 36.0476C426.945 35.6797 426.764 35.2107 426.764 34.6406C426.764 34.1501 426.897 33.7275 427.162 33.3729C427.431 33.0182 427.807 32.7448 428.291 32.5526C428.778 32.3603 429.348 32.2642 430.001 32.2642C430.965 32.2642 431.724 32.468 432.278 32.8757C432.835 33.2834 433.16 33.8385 433.252 34.5412ZM438.2 42.8636V32.3636H440.288V33.6463H440.383C440.476 33.4408 440.61 33.232 440.785 33.0199C440.964 32.8045 441.196 32.6255 441.481 32.483C441.77 32.3371 442.128 32.2642 442.555 32.2642C443.112 32.2642 443.626 32.41 444.097 32.7017C444.567 32.9901 444.943 33.4259 445.225 34.0092C445.507 34.5893 445.648 35.3168 445.648 36.1918C445.648 37.0436 445.51 37.7628 445.235 38.3494C444.963 38.9328 444.592 39.3752 444.121 39.6768C443.654 39.9751 443.13 40.1243 442.55 40.1243C442.139 40.1243 441.79 40.0563 441.501 39.9205C441.216 39.7846 440.983 39.6139 440.8 39.4084C440.618 39.1996 440.479 38.9891 440.383 38.777H440.318V42.8636H438.2ZM440.273 36.1818C440.273 36.6359 440.336 37.032 440.462 37.37C440.588 37.7081 440.771 37.9716 441.009 38.1605C441.248 38.3461 441.538 38.4389 441.879 38.4389C442.224 38.4389 442.516 38.3445 442.754 38.1555C442.993 37.9633 443.173 37.6982 443.296 37.3601C443.422 37.0187 443.485 36.6259 443.485 36.1818C443.485 35.741 443.424 35.3532 443.301 35.0185C443.178 34.6837 442.998 34.4219 442.759 34.233C442.521 34.044 442.227 33.9496 441.879 33.9496C441.535 33.9496 441.243 34.0407 441.004 34.223C440.769 34.4053 440.588 34.6638 440.462 34.9986C440.336 35.3333 440.273 35.7277 440.273 36.1818ZM449.337 40.1442C448.85 40.1442 448.416 40.0597 448.035 39.8906C447.653 39.7183 447.352 39.4647 447.13 39.13C446.911 38.7919 446.802 38.371 446.802 37.8672C446.802 37.4429 446.88 37.0866 447.035 36.7983C447.191 36.5099 447.403 36.2779 447.672 36.1023C447.94 35.9266 448.245 35.794 448.586 35.7045C448.931 35.6151 449.292 35.5521 449.67 35.5156C450.114 35.4692 450.472 35.4261 450.744 35.3864C451.016 35.3433 451.213 35.2803 451.336 35.1974C451.458 35.1146 451.52 34.992 451.52 34.8295V34.7997C451.52 34.4848 451.42 34.2412 451.221 34.0689C451.026 33.8965 450.747 33.8104 450.386 33.8104C450.005 33.8104 449.702 33.8949 449.476 34.0639C449.251 34.2296 449.102 34.4384 449.029 34.6903L447.07 34.5312C447.17 34.0672 447.365 33.6662 447.657 33.3281C447.948 32.9867 448.325 32.7249 448.785 32.5426C449.249 32.357 449.786 32.2642 450.396 32.2642C450.82 32.2642 451.226 32.3139 451.614 32.4134C452.005 32.5128 452.352 32.6669 452.653 32.8757C452.958 33.0845 453.198 33.353 453.374 33.6811C453.55 34.0059 453.638 34.3954 453.638 34.8494V40H451.629V38.9411H451.569C451.447 39.1797 451.283 39.3902 451.077 39.5724C450.872 39.7514 450.625 39.8923 450.336 39.995C450.048 40.0945 449.715 40.1442 449.337 40.1442ZM449.944 38.6825C450.255 38.6825 450.53 38.6212 450.769 38.4986C451.008 38.3726 451.195 38.2036 451.331 37.9915C451.467 37.7794 451.535 37.5391 451.535 37.2706V36.4602C451.468 36.5033 451.377 36.5431 451.261 36.5795C451.148 36.6127 451.021 36.6442 450.878 36.674C450.736 36.7005 450.593 36.7254 450.451 36.7486C450.308 36.7685 450.179 36.7867 450.063 36.8033C449.814 36.8397 449.597 36.8977 449.412 36.9773C449.226 37.0568 449.082 37.1645 448.979 37.3004C448.876 37.433 448.825 37.5987 448.825 37.7976C448.825 38.0859 448.93 38.3063 449.138 38.4588C449.35 38.608 449.619 38.6825 449.944 38.6825ZM455.381 40V32.3636H457.434V33.696H457.514C457.653 33.2221 457.886 32.8641 458.215 32.6222C458.543 32.3769 458.92 32.2543 459.348 32.2543C459.454 32.2543 459.568 32.2609 459.691 32.2741C459.814 32.2874 459.921 32.3056 460.014 32.3288V34.2081C459.915 34.1783 459.777 34.1518 459.602 34.1286C459.426 34.1054 459.265 34.0938 459.119 34.0938C458.808 34.0938 458.529 34.1617 458.284 34.2976C458.042 34.4302 457.85 34.6158 457.707 34.8544C457.568 35.093 457.499 35.3681 457.499 35.6797V40H455.381ZM463.168 40.1442C462.681 40.1442 462.247 40.0597 461.865 39.8906C461.484 39.7183 461.183 39.4647 460.961 39.13C460.742 38.7919 460.633 38.371 460.633 37.8672C460.633 37.4429 460.71 37.0866 460.866 36.7983C461.022 36.5099 461.234 36.2779 461.503 36.1023C461.771 35.9266 462.076 35.794 462.417 35.7045C462.762 35.6151 463.123 35.5521 463.501 35.5156C463.945 35.4692 464.303 35.4261 464.575 35.3864C464.847 35.3433 465.044 35.2803 465.167 35.1974C465.289 35.1146 465.351 34.992 465.351 34.8295V34.7997C465.351 34.4848 465.251 34.2412 465.052 34.0689C464.857 33.8965 464.578 33.8104 464.217 33.8104C463.836 33.8104 463.533 33.8949 463.307 34.0639C463.082 34.2296 462.933 34.4384 462.86 34.6903L460.901 34.5312C461 34.0672 461.196 33.6662 461.488 33.3281C461.779 32.9867 462.156 32.7249 462.616 32.5426C463.08 32.357 463.617 32.2642 464.227 32.2642C464.651 32.2642 465.057 32.3139 465.445 32.4134C465.836 32.5128 466.182 32.6669 466.484 32.8757C466.789 33.0845 467.029 33.353 467.205 33.6811C467.381 34.0059 467.468 34.3954 467.468 34.8494V40H465.46V38.9411H465.4C465.278 39.1797 465.114 39.3902 464.908 39.5724C464.703 39.7514 464.456 39.8923 464.167 39.995C463.879 40.0945 463.546 40.1442 463.168 40.1442ZM463.775 38.6825C464.086 38.6825 464.361 38.6212 464.6 38.4986C464.839 38.3726 465.026 38.2036 465.162 37.9915C465.298 37.7794 465.365 37.5391 465.365 37.2706V36.4602C465.299 36.5033 465.208 36.5431 465.092 36.5795C464.979 36.6127 464.852 36.6442 464.709 36.674C464.567 36.7005 464.424 36.7254 464.282 36.7486C464.139 36.7685 464.01 36.7867 463.894 36.8033C463.645 36.8397 463.428 36.8977 463.243 36.9773C463.057 37.0568 462.913 37.1645 462.81 37.3004C462.707 37.433 462.656 37.5987 462.656 37.7976C462.656 38.0859 462.76 38.3063 462.969 38.4588C463.181 38.608 463.45 38.6825 463.775 38.6825ZM84.8452 55V47.3636H86.9631V55H84.8452ZM85.9091 46.3793C85.5942 46.3793 85.3241 46.2749 85.0987 46.0661C84.8767 45.8539 84.7656 45.6004 84.7656 45.3054C84.7656 45.0137 84.8767 44.7635 85.0987 44.5547C85.3241 44.3426 85.5942 44.2365 85.9091 44.2365C86.224 44.2365 86.4924 44.3426 86.7145 44.5547C86.9399 44.7635 87.0526 45.0137 87.0526 45.3054C87.0526 45.6004 86.9399 45.8539 86.7145 46.0661C86.4924 46.2749 86.224 46.3793 85.9091 46.3793ZM88.7596 55V47.3636H90.7781V48.7109H90.8676C91.0267 48.2635 91.2918 47.9105 91.663 47.652C92.0342 47.3935 92.4784 47.2642 92.9954 47.2642C93.5191 47.2642 93.9649 47.3951 94.3328 47.657C94.7007 47.9155 94.9459 48.2668 95.0686 48.7109H95.1481C95.3039 48.2734 95.5856 47.9238 95.9933 47.6619C96.4043 47.3968 96.8898 47.2642 97.45 47.2642C98.1626 47.2642 98.7409 47.4912 99.185 47.9453C99.6325 48.3961 99.8562 49.0357 99.8562 49.8643V55H97.7433V50.282C97.7433 49.8577 97.6306 49.5395 97.4052 49.3274C97.1798 49.1153 96.8981 49.0092 96.56 49.0092C96.1756 49.0092 95.8756 49.1319 95.6602 49.3771C95.4448 49.6191 95.337 49.9389 95.337 50.3366V55H93.2838V50.2372C93.2838 49.8627 93.1761 49.5644 92.9606 49.3423C92.7485 49.1203 92.4684 49.0092 92.1204 49.0092C91.8851 49.0092 91.673 49.0689 91.4841 49.1882C91.2984 49.3042 91.151 49.4683 91.0416 49.6804C90.9322 49.8892 90.8775 50.1345 90.8775 50.4162V55H88.7596ZM101.629 57.8636V47.3636H103.717V48.6463H103.812C103.904 48.4408 104.039 48.232 104.214 48.0199C104.393 47.8045 104.625 47.6255 104.91 47.483C105.199 47.3371 105.557 47.2642 105.984 47.2642C106.541 47.2642 107.055 47.41 107.525 47.7017C107.996 47.9901 108.372 48.4259 108.654 49.0092C108.936 49.5893 109.077 50.3168 109.077 51.1918C109.077 52.0436 108.939 52.7628 108.664 53.3494C108.392 53.9328 108.021 54.3752 107.55 54.6768C107.083 54.9751 106.559 55.1243 105.979 55.1243C105.568 55.1243 105.219 55.0563 104.93 54.9205C104.645 54.7846 104.412 54.6139 104.229 54.4084C104.047 54.1996 103.908 53.9891 103.812 53.777H103.747V57.8636H101.629ZM103.702 51.1818C103.702 51.6359 103.765 52.032 103.891 52.37C104.017 52.7081 104.199 52.9716 104.438 53.1605C104.677 53.3461 104.967 53.4389 105.308 53.4389C105.653 53.4389 105.944 53.3445 106.183 53.1555C106.422 52.9633 106.602 52.6982 106.725 52.3601C106.851 52.0187 106.914 51.6259 106.914 51.1818C106.914 50.741 106.853 50.3532 106.73 50.0185C106.607 49.6837 106.427 49.4219 106.188 49.233C105.949 49.044 105.656 48.9496 105.308 48.9496C104.963 48.9496 104.672 49.0407 104.433 49.223C104.198 49.4053 104.017 49.6638 103.891 49.9986C103.765 50.3333 103.702 50.7277 103.702 51.1818ZM115.486 51.7486V47.3636H117.603V55H115.57V53.6129H115.491C115.318 54.0604 115.031 54.42 114.63 54.6918C114.233 54.9635 113.747 55.0994 113.174 55.0994C112.663 55.0994 112.214 54.9834 111.826 54.7514C111.439 54.5194 111.135 54.1896 110.917 53.7621C110.701 53.3345 110.592 52.8224 110.589 52.2259V47.3636H112.706V51.848C112.71 52.2988 112.831 52.6551 113.069 52.9169C113.308 53.1787 113.628 53.3097 114.029 53.3097C114.284 53.3097 114.523 53.2517 114.745 53.1357C114.967 53.0163 115.146 52.8407 115.282 52.6087C115.421 52.3767 115.489 52.09 115.486 51.7486ZM121.515 44.8182V55H119.398V44.8182H121.515ZM129.666 49.5412L127.727 49.6605C127.694 49.4948 127.622 49.3456 127.513 49.2131C127.404 49.0772 127.259 48.9695 127.08 48.8899C126.905 48.8071 126.694 48.7656 126.449 48.7656C126.121 48.7656 125.844 48.8352 125.619 48.9744C125.393 49.1103 125.281 49.2926 125.281 49.5213C125.281 49.7036 125.354 49.8577 125.499 49.9837C125.645 50.1096 125.896 50.2107 126.25 50.2869L127.632 50.5653C128.375 50.7178 128.928 50.9631 129.293 51.3011C129.657 51.6392 129.84 52.0833 129.84 52.6335C129.84 53.134 129.692 53.5732 129.397 53.951C129.106 54.3288 128.704 54.6238 128.194 54.8359C127.687 55.0447 127.102 55.1491 126.439 55.1491C125.428 55.1491 124.623 54.9387 124.023 54.5178C123.426 54.0935 123.077 53.5168 122.974 52.7876L125.057 52.6783C125.12 52.9865 125.272 53.2218 125.514 53.3842C125.756 53.5433 126.066 53.6229 126.444 53.6229C126.815 53.6229 127.114 53.5516 127.339 53.4091C127.568 53.2633 127.684 53.076 127.687 52.8473C127.684 52.6551 127.602 52.4976 127.443 52.375C127.284 52.2491 127.039 52.1529 126.708 52.0866L125.385 51.8232C124.639 51.674 124.084 51.4155 123.72 51.0476C123.358 50.6797 123.178 50.2107 123.178 49.6406C123.178 49.1501 123.31 48.7275 123.575 48.3729C123.844 48.0182 124.22 47.7448 124.704 47.5526C125.191 47.3603 125.761 47.2642 126.414 47.2642C127.379 47.2642 128.138 47.468 128.691 47.8757C129.248 48.2834 129.573 48.8385 129.666 49.5412ZM131.273 55V47.3636H133.391V55H131.273ZM132.337 46.3793C132.022 46.3793 131.752 46.2749 131.527 46.0661C131.305 45.8539 131.194 45.6004 131.194 45.3054C131.194 45.0137 131.305 44.7635 131.527 44.5547C131.752 44.3426 132.022 44.2365 132.337 44.2365C132.652 44.2365 132.921 44.3426 133.143 44.5547C133.368 44.7635 133.481 45.0137 133.481 45.3054C133.481 45.6004 133.368 45.8539 133.143 46.0661C132.921 46.2749 132.652 46.3793 132.337 46.3793ZM138.638 55.1491C137.866 55.1491 137.198 54.9851 136.634 54.657C136.074 54.3255 135.642 53.8648 135.337 53.2749C135.032 52.6816 134.88 51.9938 134.88 51.2116C134.88 50.4228 135.032 49.7334 135.337 49.1435C135.642 48.5502 136.074 48.0895 136.634 47.7614C137.198 47.4299 137.866 47.2642 138.638 47.2642C139.41 47.2642 140.076 47.4299 140.637 47.7614C141.2 48.0895 141.634 48.5502 141.939 49.1435C142.244 49.7334 142.397 50.4228 142.397 51.2116C142.397 51.9938 142.244 52.6816 141.939 53.2749C141.634 53.8648 141.2 54.3255 140.637 54.657C140.076 54.9851 139.41 55.1491 138.638 55.1491ZM138.648 53.5085C138.999 53.5085 139.293 53.4091 139.528 53.2102C139.763 53.008 139.941 52.733 140.06 52.3849C140.183 52.0369 140.244 51.6409 140.244 51.1967C140.244 50.7526 140.183 50.3565 140.06 50.0085C139.941 49.6605 139.763 49.3854 139.528 49.1832C139.293 48.9811 138.999 48.88 138.648 48.88C138.293 48.88 137.995 48.9811 137.753 49.1832C137.514 49.3854 137.334 49.6605 137.211 50.0085C137.092 50.3565 137.032 50.7526 137.032 51.1967C137.032 51.6409 137.092 52.0369 137.211 52.3849C137.334 52.733 137.514 53.008 137.753 53.2102C137.995 53.4091 138.293 53.5085 138.648 53.5085ZM145.992 50.5852V55H143.874V47.3636H145.892V48.7109H145.982C146.151 48.2668 146.434 47.9155 146.832 47.657C147.23 47.3951 147.712 47.2642 148.279 47.2642C148.809 47.2642 149.271 47.3802 149.666 47.6122C150.06 47.8442 150.367 48.1757 150.585 48.6065C150.804 49.0341 150.913 49.5445 150.913 50.1378V55H148.796V50.5156C148.799 50.0483 148.68 49.6837 148.438 49.4219C148.196 49.1567 147.863 49.0241 147.438 49.0241C147.153 49.0241 146.901 49.0855 146.683 49.2081C146.467 49.3307 146.298 49.5097 146.176 49.745C146.056 49.977 145.995 50.2571 145.992 50.5852ZM154.86 55.1442C154.373 55.1442 153.939 55.0597 153.558 54.8906C153.177 54.7183 152.875 54.4647 152.653 54.13C152.434 53.7919 152.325 53.371 152.325 52.8672C152.325 52.4429 152.403 52.0866 152.558 51.7983C152.714 51.5099 152.926 51.2779 153.195 51.1023C153.463 50.9266 153.768 50.794 154.11 50.7045C154.454 50.6151 154.815 50.5521 155.193 50.5156C155.637 50.4692 155.995 50.4261 156.267 50.3864C156.539 50.3433 156.736 50.2803 156.859 50.1974C156.981 50.1146 157.043 49.992 157.043 49.8295V49.7997C157.043 49.4848 156.943 49.2412 156.744 49.0689C156.549 48.8965 156.271 48.8104 155.909 48.8104C155.528 48.8104 155.225 48.8949 154.999 49.0639C154.774 49.2296 154.625 49.4384 154.552 49.6903L152.593 49.5312C152.693 49.0672 152.888 48.6662 153.18 48.3281C153.471 47.9867 153.848 47.7249 154.308 47.5426C154.772 47.357 155.309 47.2642 155.919 47.2642C156.343 47.2642 156.749 47.3139 157.137 47.4134C157.528 47.5128 157.875 47.6669 158.176 47.8757C158.481 48.0845 158.721 48.353 158.897 48.6811C159.073 49.0059 159.161 49.3954 159.161 49.8494V55H157.152V53.9411H157.092C156.97 54.1797 156.806 54.3902 156.6 54.5724C156.395 54.7514 156.148 54.8923 155.86 54.995C155.571 55.0945 155.238 55.1442 154.86 55.1442ZM155.467 53.6825C155.778 53.6825 156.053 53.6212 156.292 53.4986C156.531 53.3726 156.718 53.2036 156.854 52.9915C156.99 52.7794 157.058 52.5391 157.058 52.2706V51.4602C156.991 51.5033 156.9 51.5431 156.784 51.5795C156.672 51.6127 156.544 51.6442 156.401 51.674C156.259 51.7005 156.116 51.7254 155.974 51.7486C155.831 51.7685 155.702 51.7867 155.586 51.8033C155.338 51.8397 155.12 51.8977 154.935 51.9773C154.749 52.0568 154.605 52.1645 154.502 52.3004C154.4 52.433 154.348 52.5987 154.348 52.7976C154.348 53.0859 154.453 53.3063 154.661 53.4588C154.873 53.608 155.142 53.6825 155.467 53.6825ZM160.904 55V47.3636H162.957V48.696H163.037C163.176 48.2221 163.409 47.8641 163.738 47.6222C164.066 47.3769 164.444 47.2543 164.871 47.2543C164.977 47.2543 165.092 47.2609 165.214 47.2741C165.337 47.2874 165.444 47.3056 165.537 47.3288V49.2081C165.438 49.1783 165.3 49.1518 165.125 49.1286C164.949 49.1054 164.788 49.0938 164.642 49.0938C164.331 49.0938 164.052 49.1617 163.807 49.2976C163.565 49.4302 163.373 49.6158 163.23 49.8544C163.091 50.093 163.022 50.3681 163.022 50.6797V55H160.904ZM176.426 49.5412L174.487 49.6605C174.454 49.4948 174.383 49.3456 174.274 49.2131C174.164 49.0772 174.02 48.9695 173.841 48.8899C173.665 48.8071 173.455 48.7656 173.21 48.7656C172.881 48.7656 172.605 48.8352 172.379 48.9744C172.154 49.1103 172.041 49.2926 172.041 49.5213C172.041 49.7036 172.114 49.8577 172.26 49.9837C172.406 50.1096 172.656 50.2107 173.011 50.2869L174.393 50.5653C175.135 50.7178 175.689 50.9631 176.053 51.3011C176.418 51.6392 176.6 52.0833 176.6 52.6335C176.6 53.134 176.453 53.5732 176.158 53.951C175.866 54.3288 175.465 54.6238 174.955 54.8359C174.448 55.0447 173.863 55.1491 173.2 55.1491C172.189 55.1491 171.383 54.9387 170.783 54.5178C170.187 54.0935 169.837 53.5168 169.734 52.7876L171.818 52.6783C171.881 52.9865 172.033 53.2218 172.275 53.3842C172.517 53.5433 172.827 53.6229 173.205 53.6229C173.576 53.6229 173.874 53.5516 174.099 53.4091C174.328 53.2633 174.444 53.076 174.448 52.8473C174.444 52.6551 174.363 52.4976 174.204 52.375C174.045 52.2491 173.8 52.1529 173.468 52.0866L172.146 51.8232C171.4 51.674 170.845 51.4155 170.48 51.0476C170.119 50.6797 169.938 50.2107 169.938 49.6406C169.938 49.1501 170.071 48.7275 170.336 48.3729C170.604 48.0182 170.981 47.7448 171.465 47.5526C171.952 47.3603 172.522 47.2642 173.175 47.2642C174.139 47.2642 174.898 47.468 175.452 47.8757C176.009 48.2834 176.333 48.8385 176.426 49.5412ZM181.514 55.1491C180.728 55.1491 180.052 54.9901 179.486 54.6719C178.922 54.3504 178.488 53.8963 178.183 53.3097C177.878 52.7197 177.726 52.022 177.726 51.2166C177.726 50.4311 177.878 49.7417 178.183 49.1484C178.488 48.5552 178.917 48.0928 179.471 47.7614C180.027 47.4299 180.68 47.2642 181.429 47.2642C181.933 47.2642 182.402 47.3454 182.836 47.5078C183.274 47.6669 183.655 47.9072 183.98 48.2287C184.308 48.5502 184.563 48.9545 184.745 49.4418C184.928 49.9257 185.019 50.4924 185.019 51.142V51.7237H178.571V50.4112H183.025C183.025 50.1063 182.959 49.8362 182.826 49.6009C182.694 49.3655 182.51 49.1816 182.275 49.049C182.043 48.9131 181.772 48.8452 181.464 48.8452C181.143 48.8452 180.858 48.9197 180.609 49.0689C180.364 49.2147 180.172 49.4119 180.032 49.6605C179.893 49.9058 179.822 50.1792 179.819 50.4808V51.7287C179.819 52.1065 179.888 52.433 180.027 52.7081C180.17 52.9832 180.37 53.1953 180.629 53.3445C180.888 53.4936 181.194 53.5682 181.549 53.5682C181.784 53.5682 182 53.535 182.195 53.4688C182.391 53.4025 182.558 53.303 182.697 53.1705C182.836 53.0379 182.942 52.8755 183.015 52.6832L184.974 52.8125C184.875 53.2831 184.671 53.6941 184.363 54.0455C184.058 54.3935 183.663 54.6652 183.179 54.8608C182.699 55.053 182.144 55.1491 181.514 55.1491ZM191.398 51.7486V47.3636H193.516V55H191.483V53.6129H191.403C191.231 54.0604 190.944 54.42 190.543 54.6918C190.145 54.9635 189.66 55.0994 189.086 55.0994C188.576 55.0994 188.127 54.9834 187.739 54.7514C187.351 54.5194 187.048 54.1896 186.829 53.7621C186.614 53.3345 186.504 52.8224 186.501 52.2259V47.3636H188.619V51.848C188.622 52.2988 188.743 52.6551 188.982 52.9169C189.22 53.1787 189.54 53.3097 189.941 53.3097C190.197 53.3097 190.435 53.2517 190.657 53.1357C190.879 53.0163 191.058 52.8407 191.194 52.6087C191.333 52.3767 191.401 52.09 191.398 51.7486ZM200.768 50.5852V55H198.65V47.3636H200.669V48.7109H200.758C200.927 48.2668 201.211 47.9155 201.608 47.657C202.006 47.3951 202.488 47.2642 203.055 47.2642C203.585 47.2642 204.048 47.3802 204.442 47.6122C204.837 47.8442 205.143 48.1757 205.362 48.6065C205.581 49.0341 205.69 49.5445 205.69 50.1378V55H203.572V50.5156C203.575 50.0483 203.456 49.6837 203.214 49.4219C202.972 49.1567 202.639 49.0241 202.215 49.0241C201.93 49.0241 201.678 49.0855 201.459 49.2081C201.244 49.3307 201.075 49.5097 200.952 49.745C200.833 49.977 200.771 50.2571 200.768 50.5852ZM210.939 55.1491C210.154 55.1491 209.478 54.9901 208.911 54.6719C208.347 54.3504 207.913 53.8963 207.608 53.3097C207.303 52.7197 207.151 52.022 207.151 51.2166C207.151 50.4311 207.303 49.7417 207.608 49.1484C207.913 48.5552 208.343 48.0928 208.896 47.7614C209.453 47.4299 210.106 47.2642 210.855 47.2642C211.359 47.2642 211.828 47.3454 212.262 47.5078C212.699 47.6669 213.08 47.9072 213.405 48.2287C213.733 48.5502 213.989 48.9545 214.171 49.4418C214.353 49.9257 214.444 50.4924 214.444 51.142V51.7237H207.996V50.4112H212.451C212.451 50.1063 212.384 49.8362 212.252 49.6009C212.119 49.3655 211.935 49.1816 211.7 49.049C211.468 48.9131 211.198 48.8452 210.89 48.8452C210.568 48.8452 210.283 48.9197 210.035 49.0689C209.789 49.2147 209.597 49.4119 209.458 49.6605C209.319 49.9058 209.247 50.1792 209.244 50.4808V51.7287C209.244 52.1065 209.314 52.433 209.453 52.7081C209.595 52.9832 209.796 53.1953 210.054 53.3445C210.313 53.4936 210.62 53.5682 210.974 53.5682C211.209 53.5682 211.425 53.535 211.62 53.4688C211.816 53.4025 211.983 53.303 212.123 53.1705C212.262 53.0379 212.368 52.8755 212.441 52.6832L214.4 52.8125C214.3 53.2831 214.096 53.6941 213.788 54.0455C213.483 54.3935 213.089 54.6652 212.605 54.8608C212.124 55.053 211.569 55.1491 210.939 55.1491ZM219.367 58.0227C218.681 58.0227 218.092 57.9283 217.602 57.7393C217.115 57.5537 216.727 57.3002 216.438 56.9787C216.15 56.6572 215.963 56.2959 215.877 55.8949L217.836 55.6314C217.895 55.7839 217.99 55.9264 218.119 56.0589C218.248 56.1915 218.419 56.2976 218.631 56.3771C218.846 56.46 219.108 56.5014 219.416 56.5014C219.877 56.5014 220.257 56.3887 220.555 56.1634C220.857 55.9413 221.007 55.5684 221.007 55.0447V53.6477H220.918C220.825 53.8598 220.686 54.0604 220.5 54.2493C220.315 54.4382 220.076 54.5923 219.784 54.7116C219.493 54.831 219.145 54.8906 218.74 54.8906C218.167 54.8906 217.645 54.758 217.174 54.4929C216.707 54.2244 216.334 53.8151 216.056 53.2649C215.781 52.7114 215.643 52.0121 215.643 51.1669C215.643 50.3018 215.784 49.5793 216.066 48.9993C216.347 48.4193 216.722 47.9851 217.189 47.6967C217.66 47.4084 218.175 47.2642 218.735 47.2642C219.163 47.2642 219.521 47.3371 219.809 47.483C220.098 47.6255 220.33 47.8045 220.505 48.0199C220.684 48.232 220.822 48.4408 220.918 48.6463H220.997V47.3636H223.1V55.0746C223.1 55.7242 222.941 56.2678 222.623 56.7053C222.305 57.1428 221.864 57.4709 221.301 57.6896C220.741 57.9117 220.096 58.0227 219.367 58.0227ZM219.412 53.2997C219.753 53.2997 220.041 53.2152 220.277 53.0462C220.515 52.8738 220.697 52.6286 220.823 52.3104C220.953 51.9889 221.017 51.6044 221.017 51.157C221.017 50.7095 220.954 50.3217 220.828 49.9936C220.702 49.6622 220.52 49.4053 220.282 49.223C220.043 49.0407 219.753 48.9496 219.412 48.9496C219.063 48.9496 218.77 49.044 218.532 49.233C218.293 49.4186 218.112 49.6771 217.99 50.0085C217.867 50.34 217.806 50.7228 217.806 51.157C217.806 51.5978 217.867 51.9789 217.99 52.3004C218.116 52.6186 218.296 52.8655 218.532 53.0412C218.77 53.2135 219.063 53.2997 219.412 53.2997ZM228.336 55.1491C227.564 55.1491 226.896 54.9851 226.333 54.657C225.772 54.3255 225.34 53.8648 225.035 53.2749C224.73 52.6816 224.578 51.9938 224.578 51.2116C224.578 50.4228 224.73 49.7334 225.035 49.1435C225.34 48.5502 225.772 48.0895 226.333 47.7614C226.896 47.4299 227.564 47.2642 228.336 47.2642C229.108 47.2642 229.775 47.4299 230.335 47.7614C230.898 48.0895 231.332 48.5502 231.637 49.1435C231.942 49.7334 232.095 50.4228 232.095 51.2116C232.095 51.9938 231.942 52.6816 231.637 53.2749C231.332 53.8648 230.898 54.3255 230.335 54.657C229.775 54.9851 229.108 55.1491 228.336 55.1491ZM228.346 53.5085C228.697 53.5085 228.991 53.4091 229.226 53.2102C229.461 53.008 229.639 52.733 229.758 52.3849C229.881 52.0369 229.942 51.6409 229.942 51.1967C229.942 50.7526 229.881 50.3565 229.758 50.0085C229.639 49.6605 229.461 49.3854 229.226 49.1832C228.991 48.9811 228.697 48.88 228.346 48.88C227.991 48.88 227.693 48.9811 227.451 49.1832C227.212 49.3854 227.032 49.6605 226.909 50.0085C226.79 50.3565 226.73 50.7526 226.73 51.1967C226.73 51.6409 226.79 52.0369 226.909 52.3849C227.032 52.733 227.212 53.008 227.451 53.2102C227.693 53.4091 227.991 53.5085 228.346 53.5085ZM227.575 46.3793L228.629 44.1172H230.588L229.072 46.3793H227.575ZM237.022 55.1491C236.24 55.1491 235.567 54.9834 235.004 54.652C234.443 54.3172 234.013 53.8532 233.711 53.2599C233.413 52.6667 233.263 51.9839 233.263 51.2116C233.263 50.4295 233.414 49.7434 233.716 49.1534C234.021 48.5601 234.453 48.0978 235.013 47.7663C235.574 47.4316 236.24 47.2642 237.012 47.2642C237.678 47.2642 238.262 47.3852 238.762 47.6271C239.263 47.8691 239.659 48.2088 239.95 48.6463C240.242 49.0838 240.403 49.5975 240.433 50.1875H238.434C238.378 49.8063 238.228 49.4998 237.987 49.2678C237.748 49.0324 237.435 48.9148 237.047 48.9148C236.719 48.9148 236.432 49.0043 236.187 49.1832C235.945 49.3589 235.756 49.6158 235.62 49.9538C235.484 50.2919 235.416 50.7012 235.416 51.1818C235.416 51.669 235.482 52.0833 235.615 52.4247C235.751 52.7661 235.942 53.0263 236.187 53.2053C236.432 53.3842 236.719 53.4737 237.047 53.4737C237.289 53.4737 237.506 53.424 237.698 53.3246C237.894 53.2251 238.054 53.081 238.18 52.892C238.31 52.6998 238.394 52.4695 238.434 52.201H240.433C240.399 52.7843 240.24 53.2981 239.955 53.7422C239.674 54.183 239.284 54.5277 238.787 54.7763C238.29 55.0249 237.701 55.1491 237.022 55.1491ZM241.889 55V47.3636H244.006V55H241.889ZM242.952 46.3793C242.638 46.3793 242.367 46.2749 242.142 46.0661C241.92 45.8539 241.809 45.6004 241.809 45.3054C241.809 45.0137 241.92 44.7635 242.142 44.5547C242.367 44.3426 242.638 44.2365 242.952 44.2365C243.267 44.2365 243.536 44.3426 243.758 44.5547C243.983 44.7635 244.096 45.0137 244.096 45.3054C244.096 45.6004 243.983 45.8539 243.758 46.0661C243.536 46.2749 243.267 46.3793 242.952 46.3793ZM249.253 55.1491C248.481 55.1491 247.813 54.9851 247.25 54.657C246.69 54.3255 246.257 53.8648 245.952 53.2749C245.647 52.6816 245.495 51.9938 245.495 51.2116C245.495 50.4228 245.647 49.7334 245.952 49.1435C246.257 48.5502 246.69 48.0895 247.25 47.7614C247.813 47.4299 248.481 47.2642 249.253 47.2642C250.026 47.2642 250.692 47.4299 251.252 47.7614C251.815 48.0895 252.249 48.5502 252.554 49.1435C252.859 49.7334 253.012 50.4228 253.012 51.2116C253.012 51.9938 252.859 52.6816 252.554 53.2749C252.249 53.8648 251.815 54.3255 251.252 54.657C250.692 54.9851 250.026 55.1491 249.253 55.1491ZM249.263 53.5085C249.615 53.5085 249.908 53.4091 250.143 53.2102C250.379 53.008 250.556 52.733 250.675 52.3849C250.798 52.0369 250.859 51.6409 250.859 51.1967C250.859 50.7526 250.798 50.3565 250.675 50.0085C250.556 49.6605 250.379 49.3854 250.143 49.1832C249.908 48.9811 249.615 48.88 249.263 48.88C248.909 48.88 248.61 48.9811 248.368 49.1832C248.13 49.3854 247.949 49.6605 247.826 50.0085C247.707 50.3565 247.647 50.7526 247.647 51.1967C247.647 51.6409 247.707 52.0369 247.826 52.3849C247.949 52.733 248.13 53.008 248.368 53.2102C248.61 53.4091 248.909 53.5085 249.263 53.5085ZM255.727 55.1293C255.399 55.1293 255.117 55.0133 254.882 54.7812C254.65 54.5459 254.534 54.2642 254.534 53.9361C254.534 53.6113 254.65 53.3329 254.882 53.1009C255.117 52.8688 255.399 52.7528 255.727 52.7528C256.045 52.7528 256.323 52.8688 256.562 53.1009C256.801 53.3329 256.92 53.6113 256.92 53.9361C256.92 54.1548 256.864 54.3554 256.751 54.5376C256.642 54.7166 256.497 54.8608 256.318 54.9702C256.139 55.0762 255.942 55.1293 255.727 55.1293Z" fill="#134967"/>
</g>
<path fill-rule="evenodd" clip-rule="evenodd" d="M39.4954 30.0458H48.0365C48.2848 30.0458 48.4861 30.2471 48.4861 30.4953V39.0365C48.4861 39.2848 48.2848 39.486 48.0365 39.486H39.4954C39.2471 39.486 39.0458 39.2848 39.0458 39.0365V30.4953C39.0458 30.2471 39.2471 30.0458 39.4954 30.0458ZM55.3503 29.3341L60.4362 34.42C60.6117 34.5955 60.6117 34.8801 60.4362 35.0557L55.3503 40.1416C55.1747 40.3171 54.8901 40.3171 54.7145 40.1416L49.6286 35.0557C49.4531 34.8801 49.4531 34.5955 49.6286 34.4199L54.7146 29.3341C54.8901 29.1585 55.1747 29.1585 55.3503 29.3341ZM39.4954 41.2842H48.0365C48.2848 41.2842 48.4861 41.4854 48.4861 41.7337V50.2749C48.4861 50.5232 48.2848 50.7244 48.0365 50.7244H39.4954C39.2471 50.7244 39.0458 50.5232 39.0458 50.2749V41.7337C39.0458 41.4854 39.2471 41.2842 39.4954 41.2842ZM50.7337 41.2842H59.2749C59.5232 41.2842 59.7244 41.4854 59.7244 41.7337V50.2749C59.7244 50.5232 59.5232 50.7244 59.2749 50.7244H50.7337C50.4855 50.7244 50.2842 50.5232 50.2842 50.2749V41.7337C50.2842 41.4854 50.4855 41.2842 50.7337 41.2842Z" fill="#134967"/>
<defs>
<filter id="filter0_dd_43_53" x="0.5" y="0" width="500" height="89" filterUnits="userSpaceOnUse" color-interpolation-filters="sRGB">
<feFlood flood-opacity="0" result="BackgroundImageFix"/>
<feColorMatrix in="SourceAlpha" type="matrix" values="0 0 0 0 0 0 0 0 0 0 0 0 0 0 0 0 0 0 127 0" result="hardAlpha"/>
<feOffset dy="4"/>
<feComposite in2="hardAlpha" operator="out"/>
<feColorMatrix type="matrix" values="0 0 0 0 0 0 0 0 0 0 0 0 0 0 0 0 0 0 0.04 0"/>
<feBlend mode="normal" in2="BackgroundImageFix" result="effect1_dropShadow_43_53"/>
<feColorMatrix in="SourceAlpha" type="matrix" values="0 0 0 0 0 0 0 0 0 0 0 0 0 0 0 0 0 0 127 0" result="hardAlpha"/>
<feOffset dy="4"/>
<feComposite in2="hardAlpha" operator="out"/>
<feColorMatrix type="matrix" values="0 0 0 0 0 0 0 0 0 0 0 0 0 0 0 0 0 0 0.04 0"/>
<feBlend mode="normal" in2="effect1_dropShadow_43_53" result="effect2_dropShadow_43_53"/>
<feBlend mode="normal" in="SourceGraphic" in2="effect2_dropShadow_43_53" result="shape"/>
</filter>
<clipPath id="clip0_43_53">
<rect width="385" height="45" fill="white" transform="translate(84 27)"/>
</clipPath>
</defs>
</svg>
